SplineFontDB: 3.0
FontName: KellySlab-Regular
FullName: Kelly Slab
FamilyName: Kelly Slab
Weight: Book
Copyright: Copyright (c) 2011, Denis Masharov <denis.masharov@gmail.com>, with Reserved Font Names "Kelly", "Kelly Slab".
Version: 1.001
ItalicAngle: 0
UnderlinePosition: -50
UnderlineWidth: 50
Ascent: 800
Descent: 200
sfntRevision: 0x00010042
LayerCount: 2
Layer: 0 1 "Back"  1
Layer: 1 1 "Fore"  0
XUID: [1021 288 713564382 14510526]
FSType: 0
OS2Version: 3
OS2_WeightWidthSlopeOnly: 0
OS2_UseTypoMetrics: 1
CreationTime: 1311152760
ModificationTime: 1311171352
PfmFamily: 17
TTFWeight: 400
TTFWidth: 5
LineGap: 0
VLineGap: 0
Panose: 2 0 0 0 0 0 0 0 0 0
OS2TypoAscent: 162
OS2TypoAOffset: 1
OS2TypoDescent: -50
OS2TypoDOffset: 1
OS2TypoLinegap: 0
OS2WinAscent: 0
OS2WinAOffset: 1
OS2WinDescent: 0
OS2WinDOffset: 1
HheadAscent: 0
HheadAOffset: 1
HheadDescent: 0
HheadDOffset: 1
OS2SubXSize: 700
OS2SubYSize: 650
OS2SubXOff: 0
OS2SubYOff: 140
OS2SupXSize: 700
OS2SupYSize: 650
OS2SupXOff: 0
OS2SupYOff: 477
OS2StrikeYSize: 50
OS2StrikeYPos: 250
OS2Vendor: 'PYRS'
OS2CodePages: 00000097.04000000
OS2UnicodeRanges: a000022f.1000004a.00000000.00000000
Lookup: 258 0 0 "'kern' Horizontal Kerning lookup 0"  {"'kern' Horizontal Kerning lookup 0 subtable"  } ['kern' ('DFLT' <'dflt' > 'cyrl' <'dflt' > 'latn' <'dflt' > ) ]
DEI: 91125
TtTable: prep
PUSHW_1
 511
SCANCTRL
PUSHB_1
 4
SCANTYPE
EndTTInstrs
ShortTable: maxp 16
  1
  0
  453
  79
  7
  0
  0
  2
  0
  1
  1
  0
  64
  0
  0
  0
EndShort
LangName: 1033 "" "" "" "DenisMasharov: Kelly Slab: 2011" "" "Version 1.001" "" "Kelly is a trademark of Denis Masharov." "Denis Masharov" "Denis Masharov" "" "denis.masharov@gmail.com" "denis.masharov@gmail.com" "This Font Software is licensed under the SIL Open Font License, Version 1.1. This license is available with a FAQ at: http://scripts.sil.org/OFL" "http://scripts.sil.org/OFL" "" "" "" "Kelly Slab" 
GaspTable: 1 65535 15
Encoding: UnicodeBmp
UnicodeInterp: none
NameList: Adobe Glyph List

StartChar: exclam
Encoding: 33 33 5
Width: 301
Flags: W
LayerCount: 2
Fore
SplineSet
109 193 m 1,0,-1
 109 727 l 1,1,-1
 191 727 l 1,2,-1
 191 193 l 1,3,-1
 109 193 l 1,0,-1
186.5 83 m 128,-1,5
 201 67 201 67 201 46 c 128,-1,6
 201 25 201 25 186.5 10.5 c 128,-1,7
 172 -4 172 -4 151 -4 c 128,-1,8
 130 -4 130 -4 115 10.5 c 128,-1,9
 100 25 100 25 100 46 c 128,-1,10
 100 67 100 67 115.5 83 c 128,-1,11
 131 99 131 99 151.5 99 c 128,-1,4
 172 99 172 99 186.5 83 c 128,-1,5
EndSplineSet
EndChar

StartChar: quotedbl
Encoding: 34 34 6
Width: 326
Flags: W
LayerCount: 2
Fore
SplineSet
204 510 m 1,0,-1
 204 750 l 1,1,-1
 286 750 l 1,2,-1
 286 510 l 1,3,-1
 204 510 l 1,0,-1
40 510 m 1,4,-1
 40 750 l 1,5,-1
 122 750 l 1,6,-1
 122 510 l 1,7,-1
 40 510 l 1,4,-1
EndSplineSet
EndChar

StartChar: numbersign
Encoding: 35 35 7
Width: 767
Flags: W
LayerCount: 2
Fore
SplineSet
525 423 m 1,0,-1
 498 321 l 1,1,-1
 699 321 l 1,2,-1
 681 248 l 1,3,-1
 478 248 l 1,4,-1
 415 0 l 1,5,-1
 334 0 l 1,6,-1
 398 248 l 1,7,-1
 268 248 l 1,8,-1
 203 0 l 1,9,-1
 124 0 l 1,10,-1
 191 248 l 1,11,-1
 20 248 l 1,12,-1
 40 321 l 1,13,-1
 209 321 l 1,14,-1
 235 423 l 1,15,-1
 67 423 l 1,16,-1
 87 500 l 1,17,-1
 255 500 l 1,18,-1
 319 750 l 1,19,-1
 397 750 l 1,20,-1
 333 500 l 1,21,-1
 464 500 l 1,22,-1
 528 750 l 1,23,-1
 608 750 l 1,24,-1
 545 500 l 1,25,-1
 747 500 l 1,26,-1
 727 423 l 1,27,-1
 525 423 l 1,0,-1
315 423 m 1,28,-1
 286 321 l 1,29,-1
 417 321 l 1,30,-1
 444 423 l 1,31,-1
 315 423 l 1,28,-1
EndSplineSet
EndChar

StartChar: dollar
Encoding: 36 36 8
Width: 582
Flags: W
LayerCount: 2
Fore
SplineSet
256 -150 m 1,0,-1
 256 0 l 1,1,-1
 80 0 l 1,2,-1
 80 185 l 1,3,-1
 152 185 l 1,4,-1
 152 68 l 1,5,-1
 256 68 l 1,6,-1
 256 365 l 1,7,-1
 160 424 l 1,8,9
 125 444 125 444 102.5 465.5 c 128,-1,10
 80 487 80 487 80 524 c 2,11,-1
 80 650 l 2,12,13
 80 709 80 709 108 731 c 0,14,15
 132 750 132 750 191 750 c 2,16,-1
 256 750 l 1,17,-1
 256 900 l 1,18,-1
 326 900 l 1,19,-1
 326 750 l 1,20,-1
 493 750 l 1,21,-1
 493 565 l 1,22,-1
 421 565 l 1,23,-1
 421 682 l 1,24,-1
 326 682 l 1,25,-1
 326 418 l 1,26,-1
 408 367 l 1,27,28
 428 353 428 353 445.5 342.5 c 128,-1,29
 463 332 463 332 476 320 c 0,30,31
 502 296 502 296 502 261 c 2,32,-1
 502 91 l 2,33,34
 502 46 502 46 470 22 c 1,35,36
 443 0 443 0 399 0 c 2,37,-1
 326 0 l 1,38,-1
 326 -150 l 1,39,-1
 256 -150 l 1,0,-1
326 322 m 1,40,-1
 326 68 l 1,41,-1
 422 68 l 1,42,-1
 422 263 l 1,43,-1
 326 322 l 1,40,-1
256 462 m 1,44,-1
 256 682 l 1,45,-1
 160 682 l 1,46,-1
 160 522 l 1,47,-1
 256 462 l 1,44,-1
EndSplineSet
EndChar

StartChar: percent
Encoding: 37 37 9
Width: 825
Flags: W
LayerCount: 2
Fore
SplineSet
332 439 m 2,0,1
 332 403 332 403 329 378.5 c 128,-1,2
 326 354 326 354 314 340 c 0,3,4
 293 313 293 313 220 313 c 2,5,-1
 180 313 l 2,6,7
 108 313 108 313 84 334 c 0,8,9
 60 356 60 356 60 427 c 2,10,-1
 60 642 l 2,11,12
 60 711 60 711 84 735 c 0,13,14
 108 758 108 758 174 758 c 2,15,-1
 210 758 l 2,16,17
 287 758 287 758 311 732 c 0,18,19
 332 708 332 708 332 630 c 2,20,-1
 332 439 l 2,0,1
262 377 m 1,21,-1
 262 692 l 1,22,-1
 132 692 l 1,23,-1
 132 377 l 1,24,-1
 262 377 l 1,21,-1
640 443 m 2,25,26
 720 443 720 443 743 418 c 0,27,28
 765 393 765 393 765 315 c 2,29,-1
 765 123 l 2,30,31
 765 87 765 87 761.5 63.5 c 128,-1,32
 758 40 758 40 746 26 c 0,33,34
 725 0 725 0 650 0 c 2,35,-1
 612 0 l 2,36,37
 540 0 540 0 516 22 c 0,38,39
 491 44 491 44 491 115 c 2,40,-1
 491 331 l 2,41,42
 491 395 491 395 516 420 c 0,43,44
 540 443 540 443 606 443 c 2,45,-1
 640 443 l 2,25,26
694 381 m 1,46,-1
 564 381 l 1,47,-1
 564 66 l 1,48,-1
 694 66 l 1,49,-1
 694 381 l 1,46,-1
531 870 m 1,50,-1
 608 870 l 1,51,-1
 276 -151 l 1,52,-1
 198 -151 l 1,53,-1
 531 870 l 1,50,-1
EndSplineSet
EndChar

StartChar: ampersand
Encoding: 38 38 10
Width: 726
Flags: W
LayerCount: 2
Fore
SplineSet
631 -6 m 1,0,-1
 487 161 l 1,1,-1
 487 124 l 2,2,3
 487 54 487 54 467 29 c 0,4,5
 443 -1 443 -1 371 -1 c 2,6,-1
 180 -1 l 2,7,8
 96 -1 96 -1 76 28 c 0,9,10
 64 44 64 44 62 71 c 128,-1,11
 60 98 60 98 60 140 c 2,12,-1
 60 274 l 1,13,-1
 254 440 l 1,14,-1
 162 550 l 1,15,-1
 162 631 l 2,16,17
 162 703 162 703 176 722 c 128,-1,18
 190 741 190 741 211.5 748.5 c 128,-1,19
 233 756 233 756 271 756 c 2,20,-1
 336 756 l 2,21,22
 421 756 421 756 444 727 c 0,23,24
 456 711 456 711 459.5 684 c 128,-1,25
 463 657 463 657 463 615 c 2,26,-1
 463 523 l 1,27,-1
 355 436 l 1,28,-1
 440 334 l 1,29,-1
 559 432 l 1,30,-1
 607 378 l 1,31,-1
 487 279 l 1,32,-1
 686 40 l 1,33,-1
 631 -6 l 1,0,-1
311 490 m 1,34,-1
 396 559 l 1,35,-1
 396 617 l 2,36,37
 396 664 396 664 389 673.5 c 128,-1,38
 382 683 382 683 370 685.5 c 128,-1,39
 358 688 358 688 336 688 c 2,40,-1
 293 688 l 2,41,42
 252 688 252 688 243 679 c 128,-1,43
 234 670 234 670 232.5 657.5 c 128,-1,44
 231 645 231 645 231 626 c 2,45,-1
 231 571 l 1,46,-1
 311 490 l 1,34,-1
360 67 m 2,47,48
 401 67 401 67 408.5 76 c 128,-1,49
 416 85 416 85 417 97 c 128,-1,50
 418 109 418 109 418 129 c 2,51,-1
 418 243 l 1,52,-1
 298 390 l 1,53,-1
 127 238 l 1,54,-1
 127 138 l 2,55,56
 127 92 127 92 135 82 c 128,-1,57
 143 72 143 72 156 69.5 c 128,-1,58
 169 67 169 67 191 67 c 2,59,-1
 360 67 l 2,47,48
EndSplineSet
EndChar

StartChar: quotesingle
Encoding: 39 39 11
Width: 202
Flags: W
LayerCount: 2
Fore
SplineSet
60 511 m 1,0,-1
 60 750 l 1,1,-1
 142 750 l 1,2,-1
 142 511 l 1,3,-1
 60 511 l 1,0,-1
EndSplineSet
EndChar

StartChar: parenleft
Encoding: 40 40 12
Width: 273
Flags: W
LayerCount: 2
Fore
SplineSet
263 -151 m 1,0,1
 80 -151 80 -151 80 122 c 2,2,-1
 80 630 l 2,3,4
 80 739 80 739 116 798 c 0,5,6
 160 870 160 870 263 870 c 1,7,-1
 263 819 l 1,8,9
 206 819 206 819 178 768 c 128,-1,10
 150 717 150 717 150 628 c 2,11,-1
 150 127 l 2,12,13
 150 -34 150 -34 212 -85 c 0,14,15
 233 -103 233 -103 263 -103 c 1,16,-1
 263 -151 l 1,0,1
EndSplineSet
EndChar

StartChar: parenright
Encoding: 41 41 13
Width: 273
Flags: W
LayerCount: 2
Fore
SplineSet
10 870 m 1,0,1
 112 870 112 870 158 783 c 0,2,3
 193 715 193 715 193 597 c 2,4,-1
 193 89 l 2,5,6
 193 -20 193 -20 157 -79 c 0,7,8
 113 -151 113 -151 10 -151 c 1,9,-1
 10 -100 l 1,10,11
 67 -100 67 -100 95 -49 c 128,-1,12
 123 2 123 2 123 91 c 2,13,-1
 123 592 l 2,14,15
 123 753 123 753 62 804 c 0,16,17
 40 822 40 822 10 822 c 1,18,-1
 10 870 l 1,0,1
EndSplineSet
EndChar

StartChar: asterisk
Encoding: 42 42 14
Width: 407
Flags: W
LayerCount: 2
Fore
SplineSet
262 592 m 1,0,-1
 365 533 l 1,1,-1
 336 483 l 1,2,-1
 232 538 l 1,3,-1
 232 419 l 1,4,-1
 174 419 l 1,5,-1
 174 539 l 1,6,-1
 69 482 l 1,7,-1
 40 538 l 1,8,-1
 141 592 l 1,9,-1
 42 652 l 1,10,-1
 69 703 l 1,11,-1
 174 643 l 1,12,-1
 174 761 l 1,13,-1
 232 761 l 1,14,-1
 232 643 l 1,15,-1
 338 701 l 1,16,-1
 367 651 l 1,17,-1
 262 592 l 1,0,-1
EndSplineSet
EndChar

StartChar: plus
Encoding: 43 43 15
Width: 604
Flags: W
LayerCount: 2
Fore
SplineSet
524 420 m 1,0,-1
 524 354 l 1,1,-1
 337 354 l 1,2,-1
 337 167 l 1,3,-1
 267 167 l 1,4,-1
 267 354 l 1,5,-1
 80 354 l 1,6,-1
 80 420 l 1,7,-1
 267 420 l 1,8,-1
 267 609 l 1,9,-1
 337 609 l 1,10,-1
 337 420 l 1,11,-1
 524 420 l 1,0,-1
EndSplineSet
EndChar

StartChar: comma
Encoding: 44 44 16
Width: 231
Flags: W
LayerCount: 2
Fore
SplineSet
93 -150 m 1,0,-1
 20 -150 l 1,1,-1
 97 98 l 1,2,-1
 171 98 l 1,3,-1
 93 -150 l 1,0,-1
EndSplineSet
EndChar

StartChar: hyphen
Encoding: 45 45 17
Width: 451
Flags: W
LayerCount: 2
Fore
SplineSet
371 420 m 1,0,-1
 371 354 l 1,1,-1
 80 354 l 1,2,-1
 80 420 l 1,3,-1
 371 420 l 1,0,-1
EndSplineSet
EndChar

StartChar: period
Encoding: 46 46 18
Width: 221
Flags: W
LayerCount: 2
Fore
SplineSet
146.5 83 m 128,-1,1
 161 67 161 67 161 46 c 128,-1,2
 161 25 161 25 146.5 10.5 c 128,-1,3
 132 -4 132 -4 111 -4 c 128,-1,4
 90 -4 90 -4 75 10.5 c 128,-1,5
 60 25 60 25 60 46 c 128,-1,6
 60 67 60 67 75.5 83 c 128,-1,7
 91 99 91 99 111.5 99 c 128,-1,0
 132 99 132 99 146.5 83 c 128,-1,1
EndSplineSet
EndChar

StartChar: slash
Encoding: 47 47 19
Width: 419
Flags: W
LayerCount: 2
Fore
SplineSet
337 870 m 1,0,-1
 414 870 l 1,1,-1
 83 -150 l 1,2,-1
 5 -150 l 1,3,-1
 337 870 l 1,0,-1
EndSplineSet
EndChar

StartChar: zero
Encoding: 48 48 20
Width: 522
Flags: W
LayerCount: 2
Fore
SplineSet
346 750 m 2,0,1
 407 750 407 750 434.5 716.5 c 128,-1,2
 462 683 462 683 462 617 c 2,3,-1
 462 136 l 2,4,5
 462 64 462 64 438 32 c 128,-1,6
 414 0 414 0 351 0 c 2,7,-1
 179 0 l 2,8,9
 83 0 83 0 66 72 c 0,10,11
 60 94 60 94 60 121 c 2,12,-1
 60 617 l 2,13,14
 60 684 60 684 82 714 c 0,15,16
 107 750 107 750 171 750 c 2,17,-1
 346 750 l 2,0,1
140 68 m 1,18,-1
 382 68 l 1,19,-1
 382 682 l 1,20,-1
 140 682 l 1,21,-1
 140 68 l 1,18,-1
EndSplineSet
EndChar

StartChar: one
Encoding: 49 49 21
Width: 350
Flags: W
LayerCount: 2
Fore
SplineSet
58 68 m 1,0,-1
 126 68 l 1,1,-1
 126 681 l 1,2,-1
 30 681 l 1,3,-1
 30 750 l 1,4,-1
 116 750 l 2,5,6
 167 750 167 750 187.5 728 c 128,-1,7
 208 706 208 706 208 664 c 2,8,-1
 208 68 l 1,9,-1
 270 68 l 1,10,-1
 270 0 l 1,11,-1
 58 0 l 1,12,-1
 58 68 l 1,0,-1
EndSplineSet
EndChar

StartChar: two
Encoding: 50 50 22
Width: 525
Flags: W
LayerCount: 2
Fore
SplineSet
50 181 m 2,0,1
 50 263 50 263 104 297 c 2,2,-1
 392 476 l 1,3,-1
 392 682 l 1,4,-1
 129 682 l 1,5,-1
 129 560 l 1,6,-1
 51 560 l 1,7,-1
 51 750 l 1,8,-1
 342 750 l 2,9,10
 416 750 416 750 446 724 c 0,11,12
 474 700 474 700 474 634 c 2,13,-1
 474 517 l 2,14,15
 474 448 474 448 425 418 c 2,16,-1
 128 230 l 1,17,-1
 128 68 l 1,18,-1
 391 68 l 1,19,-1
 391 160 l 1,20,-1
 475 160 l 1,21,-1
 475 0 l 1,22,-1
 50 0 l 1,23,-1
 50 181 l 2,0,1
EndSplineSet
EndChar

StartChar: three
Encoding: 51 51 23
Width: 514
Flags: W
LayerCount: 2
Fore
SplineSet
464 682 m 1,0,-1
 219 438 l 1,1,-1
 348 438 l 2,2,3
 414 438 414 438 439 411 c 0,4,5
 463 385 463 385 463 321 c 2,6,-1
 463 134 l 2,7,8
 463 101 463 101 459 75.5 c 128,-1,9
 455 50 455 50 440 34 c 1,10,11
 411 0 411 0 325 0 c 2,12,-1
 173 0 l 2,13,14
 63 0 63 0 53 84 c 0,15,16
 50 109 50 109 50 137 c 2,17,-1
 50 190 l 1,18,-1
 123 190 l 1,19,-1
 123 62 l 1,20,-1
 382 62 l 1,21,-1
 382 373 l 1,22,-1
 123 373 l 1,23,-1
 123 438 l 1,24,-1
 371 682 l 1,25,-1
 123 682 l 1,26,-1
 123 612 l 1,27,-1
 50 612 l 1,28,-1
 50 750 l 1,29,-1
 464 750 l 1,30,-1
 464 682 l 1,0,-1
EndSplineSet
EndChar

StartChar: four
Encoding: 52 52 24
Width: 519
Flags: W
LayerCount: 2
Fore
SplineSet
217 68 m 1,0,-1
 327 68 l 1,1,-1
 327 193 l 1,2,-1
 10 193 l 1,3,-1
 326 750 l 1,4,-1
 407 750 l 1,5,-1
 407 261 l 1,6,-1
 479 261 l 1,7,-1
 479 193 l 1,8,-1
 407 193 l 1,9,-1
 407 68 l 1,10,-1
 479 68 l 1,11,-1
 479 0 l 1,12,-1
 217 0 l 1,13,-1
 217 68 l 1,0,-1
327 601 m 1,14,-1
 133 261 l 1,15,-1
 327 261 l 1,16,-1
 327 601 l 1,14,-1
EndSplineSet
EndChar

StartChar: five
Encoding: 53 53 25
Width: 518
Flags: W
LayerCount: 2
Fore
SplineSet
374 457 m 2,0,1
 431 457 431 457 451 432 c 0,2,3
 468 410 468 410 468 360 c 2,4,-1
 468 121 l 2,5,6
 468 64 468 64 451.5 42 c 128,-1,7
 435 20 435 20 411.5 10 c 128,-1,8
 388 0 388 0 349 0 c 2,9,-1
 163 0 l 2,10,11
 67 0 67 0 54 72 c 0,12,13
 50 94 50 94 50 120 c 2,14,-1
 50 190 l 1,15,-1
 128 190 l 1,16,-1
 128 68 l 1,17,-1
 387 68 l 1,18,-1
 387 389 l 1,19,-1
 61 389 l 1,20,-1
 61 750 l 1,21,-1
 438 750 l 1,22,-1
 438 682 l 1,23,-1
 139 682 l 1,24,-1
 139 457 l 1,25,-1
 374 457 l 2,0,1
EndSplineSet
EndChar

StartChar: six
Encoding: 54 54 26
Width: 525
Flags: W
LayerCount: 2
Fore
SplineSet
387 687 m 1,0,-1
 132 687 l 1,1,-1
 132 443 l 1,2,-1
 350 443 l 2,3,4
 450 443 450 443 469 376 c 0,5,6
 475 355 475 355 475 330 c 2,7,-1
 475 127 l 2,8,9
 475 61 475 61 442 30.5 c 128,-1,10
 409 0 409 0 334 0 c 2,11,-1
 187 0 l 2,12,13
 110 0 110 0 80 29.5 c 128,-1,14
 50 59 50 59 50 124 c 2,15,-1
 50 631 l 2,16,17
 50 714 50 714 115 740 c 0,18,19
 138 750 138 750 170 750 c 2,20,-1
 354 750 l 2,21,22
 436 750 436 750 450 678 c 0,23,24
 455 657 455 657 455 633 c 2,25,-1
 455 611 l 1,26,-1
 387 611 l 1,27,-1
 387 687 l 1,0,-1
393 374 m 1,28,-1
 132 374 l 1,29,-1
 132 68 l 1,30,-1
 393 68 l 1,31,-1
 393 374 l 1,28,-1
EndSplineSet
EndChar

StartChar: seven
Encoding: 55 55 27
Width: 455
Flags: W
LayerCount: 2
Fore
SplineSet
121 0 m 1,0,-1
 30 0 l 1,1,-1
 372 682 l 1,2,-1
 102 682 l 1,3,-1
 102 533 l 1,4,-1
 30 533 l 1,5,-1
 30 750 l 1,6,-1
 445 750 l 1,7,-1
 445 648 l 1,8,-1
 121 0 l 1,0,-1
EndSplineSet
EndChar

StartChar: eight
Encoding: 56 56 28
Width: 525
Flags: W
LayerCount: 2
Fore
SplineSet
455 502 m 2,0,1
 455 463 455 463 436.5 437 c 128,-1,2
 418 411 418 411 395 409 c 1,3,4
 423 407 423 407 447 381 c 0,5,6
 475 351 475 351 475 304 c 2,7,-1
 475 134 l 2,8,9
 475 68 475 68 442 34 c 128,-1,10
 409 0 409 0 334 0 c 2,11,-1
 187 0 l 2,12,13
 110 0 110 0 80 34.5 c 128,-1,14
 50 69 50 69 50 134 c 2,15,-1
 50 301 l 2,16,17
 50 349 50 349 80 380 c 1,18,19
 103 406 103 406 132 409 c 1,20,21
 110 411 110 411 90 437.5 c 128,-1,22
 70 464 70 464 70 502 c 2,23,-1
 70 631 l 2,24,25
 70 714 70 714 131 740 c 0,26,27
 153 750 153 750 185 750 c 2,28,-1
 342 750 l 2,29,30
 400 750 400 750 430 715 c 0,31,32
 455 685 455 685 455 631 c 2,33,-1
 455 502 l 2,0,1
393 368 m 1,34,-1
 132 368 l 1,35,-1
 132 68 l 1,36,-1
 393 68 l 1,37,-1
 393 368 l 1,34,-1
147 443 m 1,38,-1
 378 443 l 1,39,-1
 378 687 l 1,40,-1
 147 687 l 1,41,-1
 147 443 l 1,38,-1
EndSplineSet
EndChar

StartChar: nine
Encoding: 57 57 29
Width: 525
Flags: W
LayerCount: 2
Fore
SplineSet
132 65 m 1,0,-1
 393 65 l 1,1,-1
 393 340 l 1,2,-1
 175 340 l 2,3,4
 73 340 73 340 56 407 c 0,5,6
 50 428 50 428 50 453 c 2,7,-1
 50 623 l 2,8,9
 50 689 50 689 83 719.5 c 128,-1,10
 116 750 116 750 191 750 c 2,11,-1
 338 750 l 2,12,13
 415 750 415 750 445 720.5 c 128,-1,14
 475 691 475 691 475 626 c 2,15,-1
 475 119 l 2,16,17
 475 69 475 69 447 34.5 c 128,-1,18
 419 0 419 0 355 0 c 2,19,-1
 165 0 l 2,20,21
 108 0 108 0 77 34 c 0,22,23
 50 64 50 64 50 117 c 2,24,-1
 50 139 l 1,25,-1
 132 139 l 1,26,-1
 132 65 l 1,0,-1
132 409 m 1,27,-1
 393 409 l 1,28,-1
 393 682 l 1,29,-1
 132 682 l 1,30,-1
 132 409 l 1,27,-1
EndSplineSet
EndChar

StartChar: colon
Encoding: 58 58 30
Width: 221
Flags: W
LayerCount: 2
Fore
SplineSet
146.5 83 m 128,-1,1
 161 67 161 67 161 46 c 128,-1,2
 161 25 161 25 146.5 10.5 c 128,-1,3
 132 -4 132 -4 111 -4 c 128,-1,4
 90 -4 90 -4 75 10.5 c 128,-1,5
 60 25 60 25 60 46 c 128,-1,6
 60 67 60 67 75.5 83 c 128,-1,7
 91 99 91 99 111.5 99 c 128,-1,0
 132 99 132 99 146.5 83 c 128,-1,1
146.5 442.5 m 128,-1,9
 161 427 161 427 161 405 c 128,-1,10
 161 383 161 383 146.5 368.5 c 128,-1,11
 132 354 132 354 111 354 c 128,-1,12
 90 354 90 354 75 368.5 c 128,-1,13
 60 383 60 383 60 405 c 128,-1,14
 60 427 60 427 75.5 442.5 c 128,-1,15
 91 458 91 458 111.5 458 c 128,-1,8
 132 458 132 458 146.5 442.5 c 128,-1,9
EndSplineSet
EndChar

StartChar: semicolon
Encoding: 59 59 31
Width: 242
Flags: W
LayerCount: 2
Fore
SplineSet
93 -150 m 1,0,-1
 20 -150 l 1,1,-1
 97 98 l 1,2,-1
 171 98 l 1,3,-1
 93 -150 l 1,0,-1
166.5 442.5 m 128,-1,5
 182 427 182 427 182 405 c 128,-1,6
 182 383 182 383 166.5 368.5 c 128,-1,7
 151 354 151 354 130 354 c 128,-1,8
 109 354 109 354 94 368.5 c 128,-1,9
 79 383 79 383 79 405 c 128,-1,10
 79 427 79 427 94.5 442.5 c 128,-1,11
 110 458 110 458 130.5 458 c 128,-1,4
 151 458 151 458 166.5 442.5 c 128,-1,5
EndSplineSet
EndChar

StartChar: less
Encoding: 60 60 32
Width: 541
Flags: W
LayerCount: 2
Fore
SplineSet
60 341 m 1,0,-1
 60 417 l 1,1,-1
 511 634 l 1,2,-1
 511 565 l 1,3,-1
 133 379 l 1,4,-1
 511 192 l 1,5,-1
 511 123 l 1,6,-1
 60 341 l 1,0,-1
EndSplineSet
EndChar

StartChar: equal
Encoding: 61 61 33
Width: 564
Flags: W
LayerCount: 2
Fore
SplineSet
80 427 m 1,0,-1
 80 492 l 1,1,-1
 484 492 l 1,2,-1
 484 427 l 1,3,-1
 80 427 l 1,0,-1
80 274 m 1,4,-1
 80 338 l 1,5,-1
 484 338 l 1,6,-1
 484 274 l 1,7,-1
 80 274 l 1,4,-1
EndSplineSet
EndChar

StartChar: greater
Encoding: 62 62 34
Width: 541
Flags: W
LayerCount: 2
Fore
SplineSet
30 634 m 1,0,-1
 481 417 l 1,1,-1
 481 341 l 1,2,-1
 30 123 l 1,3,-1
 30 192 l 1,4,-1
 408 379 l 1,5,-1
 30 565 l 1,6,-1
 30 634 l 1,0,-1
EndSplineSet
EndChar

StartChar: question
Encoding: 63 63 35
Width: 481
Flags: W
LayerCount: 2
Fore
SplineSet
401 450 m 2,0,1
 401 348 401 348 307 348 c 2,2,-1
 178 348 l 1,3,-1
 178 194 l 1,4,-1
 98 194 l 1,5,-1
 98 329 l 2,6,7
 98 376 98 376 121 396.5 c 128,-1,8
 144 417 144 417 193 417 c 2,9,-1
 315 417 l 1,10,-1
 315 682 l 1,11,-1
 93 682 l 1,12,-1
 93 568 l 1,13,-1
 20 568 l 1,14,-1
 20 750 l 1,15,-1
 289 750 l 2,16,17
 344 750 344 750 372.5 728 c 128,-1,18
 401 706 401 706 401 643 c 2,19,-1
 401 450 l 2,0,1
138 99 m 256,20,21
 159 99 159 99 174 83 c 128,-1,22
 189 67 189 67 189 46 c 128,-1,23
 189 25 189 25 174 10.5 c 128,-1,24
 159 -4 159 -4 138 -4 c 128,-1,25
 117 -4 117 -4 102 10.5 c 128,-1,26
 87 25 87 25 87 46 c 128,-1,27
 87 67 87 67 102 83 c 128,-1,28
 117 99 117 99 138 99 c 256,20,21
EndSplineSet
EndChar

StartChar: A
Encoding: 65 65 36
Width: 641
Flags: W
LayerCount: 2
Fore
SplineSet
409 330 m 1,0,-1
 320 682 l 1,1,-1
 231 330 l 1,2,-1
 409 330 l 1,0,-1
616 68 m 1,3,-1
 616 0 l 1,4,-1
 421 0 l 1,5,-1
 421 68 l 1,6,-1
 475 68 l 1,7,-1
 425 267 l 1,8,-1
 215 267 l 1,9,-1
 165 68 l 1,10,-1
 220 68 l 1,11,-1
 220 0 l 1,12,-1
 25 0 l 1,13,-1
 25 68 l 1,14,-1
 88 68 l 1,15,-1
 262 750 l 1,16,-1
 380 750 l 1,17,-1
 551 68 l 1,18,-1
 616 68 l 1,3,-1
EndSplineSet
EndChar

StartChar: B
Encoding: 66 66 37
Width: 557
Flags: W
LayerCount: 2
Fore
SplineSet
372 476 m 1,0,1
 393 492 393 492 423.5 492 c 128,-1,2
 454 492 454 492 475.5 471 c 128,-1,3
 497 450 497 450 497 406 c 2,4,-1
 497 88 l 2,5,6
 497 46 497 46 484 30 c 0,7,8
 458 0 458 0 408 0 c 2,9,-1
 60 0 l 1,10,-1
 60 68 l 1,11,-1
 123 68 l 1,12,-1
 123 683 l 1,13,-1
 61 683 l 1,14,-1
 61 750 l 1,15,-1
 270 750 l 2,16,17
 372 750 372 750 372 661 c 2,18,-1
 372 476 l 1,0,1
291 425 m 1,19,-1
 291 683 l 1,20,-1
 205 683 l 1,21,-1
 205 371 l 1,22,-1
 291 425 l 1,19,-1
417 424 m 1,23,-1
 205 291 l 1,24,-1
 205 69 l 1,25,-1
 417 69 l 1,26,-1
 417 424 l 1,23,-1
EndSplineSet
EndChar

StartChar: C
Encoding: 67 67 38
Width: 525
Flags: W
LayerCount: 2
Fore
SplineSet
407 185 m 1,0,-1
 475 185 l 1,1,-1
 475 0 l 1,2,-1
 168 0 l 2,3,4
 84 0 84 0 66 66 c 0,5,6
 60 85 60 85 60 107 c 2,7,-1
 60 642 l 2,8,9
 60 715 60 715 111 740 c 0,10,11
 130 750 130 750 158 750 c 2,12,-1
 475 750 l 1,13,-1
 475 565 l 1,14,-1
 407 565 l 1,15,-1
 407 682 l 1,16,-1
 142 682 l 1,17,-1
 142 68 l 1,18,-1
 407 68 l 1,19,-1
 407 185 l 1,0,-1
EndSplineSet
EndChar

StartChar: D
Encoding: 68 68 39
Width: 604
Flags: W
LayerCount: 2
Fore
SplineSet
413 750 m 2,0,1
 487 750 487 750 515.5 717.5 c 128,-1,2
 544 685 544 685 544 619 c 2,3,-1
 544 131 l 2,4,5
 544 62 544 62 512 31 c 128,-1,6
 480 0 480 0 413 0 c 2,7,-1
 60 0 l 1,8,-1
 60 68 l 1,9,-1
 123 68 l 1,10,-1
 123 682 l 1,11,-1
 60 682 l 1,12,-1
 60 750 l 1,13,-1
 413 750 l 2,0,1
462 682 m 1,14,-1
 205 682 l 1,15,-1
 205 68 l 1,16,-1
 462 68 l 1,17,-1
 462 682 l 1,14,-1
EndSplineSet
EndChar

StartChar: E
Encoding: 69 69 40
Width: 584
Flags: W
LayerCount: 2
Fore
SplineSet
419 493 m 1,0,-1
 419 283 l 1,1,-1
 351 283 l 1,2,-1
 351 354 l 1,3,-1
 210 354 l 1,4,-1
 210 68 l 1,5,-1
 466 68 l 1,6,-1
 466 185 l 1,7,-1
 534 185 l 1,8,-1
 534 0 l 1,9,-1
 65 0 l 1,10,-1
 65 68 l 1,11,-1
 128 68 l 1,12,-1
 128 682 l 1,13,-1
 65 682 l 1,14,-1
 65 750 l 1,15,-1
 534 750 l 1,16,-1
 534 565 l 1,17,-1
 466 565 l 1,18,-1
 466 682 l 1,19,-1
 210 682 l 1,20,-1
 210 422 l 1,21,-1
 351 422 l 1,22,-1
 351 493 l 1,23,-1
 419 493 l 1,0,-1
EndSplineSet
EndChar

StartChar: F
Encoding: 70 70 41
Width: 584
Flags: W
LayerCount: 2
Fore
SplineSet
351 354 m 1,0,-1
 210 354 l 1,1,-1
 210 68 l 1,2,-1
 275 68 l 1,3,-1
 275 0 l 1,4,-1
 65 0 l 1,5,-1
 65 68 l 1,6,-1
 128 68 l 1,7,-1
 128 682 l 1,8,-1
 65 682 l 1,9,-1
 65 750 l 1,10,-1
 534 750 l 1,11,-1
 534 565 l 1,12,-1
 466 565 l 1,13,-1
 466 682 l 1,14,-1
 210 682 l 1,15,-1
 210 422 l 1,16,-1
 351 422 l 1,17,-1
 351 493 l 1,18,-1
 419 493 l 1,19,-1
 419 283 l 1,20,-1
 351 283 l 1,21,-1
 351 354 l 1,0,-1
EndSplineSet
EndChar

StartChar: G
Encoding: 71 71 42
Width: 542
Flags: W
LayerCount: 2
Fore
SplineSet
60 635 m 2,0,1
 60 750 60 750 167 750 c 2,2,-1
 482 750 l 1,3,-1
 482 565 l 1,4,-1
 402 565 l 1,5,-1
 402 682 l 1,6,-1
 142 682 l 1,7,-1
 142 68 l 1,8,-1
 402 68 l 1,9,-1
 402 302 l 1,10,-1
 263 215 l 1,11,-1
 263 288 l 1,12,-1
 482 425 l 1,13,-1
 482 0 l 1,14,-1
 185 0 l 2,15,16
 114 0 114 0 88 26 c 0,17,18
 60 53 60 53 60 124 c 2,19,-1
 60 635 l 2,0,1
EndSplineSet
EndChar

StartChar: H
Encoding: 72 72 43
Width: 698
Flags: W
LayerCount: 2
Fore
SplineSet
570 682 m 1,0,-1
 570 68 l 1,1,-1
 633 68 l 1,2,-1
 633 0 l 1,3,-1
 427 0 l 1,4,-1
 427 68 l 1,5,-1
 488 68 l 1,6,-1
 488 354 l 1,7,-1
 210 354 l 1,8,-1
 210 68 l 1,9,-1
 271 68 l 1,10,-1
 271 0 l 1,11,-1
 65 0 l 1,12,-1
 65 68 l 1,13,-1
 128 68 l 1,14,-1
 128 682 l 1,15,-1
 65 682 l 1,16,-1
 65 750 l 1,17,-1
 271 750 l 1,18,-1
 271 682 l 1,19,-1
 210 682 l 1,20,-1
 210 421 l 1,21,-1
 488 421 l 1,22,-1
 488 682 l 1,23,-1
 427 682 l 1,24,-1
 427 750 l 1,25,-1
 633 750 l 1,26,-1
 633 682 l 1,27,-1
 570 682 l 1,0,-1
EndSplineSet
EndChar

StartChar: I
Encoding: 73 73 44
Width: 370
Flags: W
LayerCount: 2
Fore
SplineSet
225 68 m 1,0,-1
 290 68 l 1,1,-1
 290 0 l 1,2,-1
 80 0 l 1,3,-1
 80 68 l 1,4,-1
 143 68 l 1,5,-1
 143 682 l 1,6,-1
 80 682 l 1,7,-1
 80 750 l 1,8,-1
 290 750 l 1,9,-1
 290 682 l 1,10,-1
 225 682 l 1,11,-1
 225 68 l 1,0,-1
EndSplineSet
EndChar

StartChar: J
Encoding: 74 74 45
Width: 406
Flags: W
LayerCount: 2
Fore
SplineSet
341 682 m 1,0,-1
 276 682 l 1,1,-1
 276 117 l 2,2,3
 276 38 276 38 221 10 c 0,4,5
 200 0 200 0 169 0 c 2,6,-1
 20 0 l 1,7,-1
 20 68 l 1,8,-1
 194 68 l 1,9,-1
 194 682 l 1,10,-1
 130 682 l 1,11,-1
 130 750 l 1,12,-1
 341 750 l 1,13,-1
 341 682 l 1,0,-1
EndSplineSet
EndChar

StartChar: K
Encoding: 75 75 46
Width: 605
Flags: W
LayerCount: 2
Fore
SplineSet
575 68 m 1,0,-1
 575 0 l 1,1,-1
 461 0 l 1,2,-1
 210 373 l 1,3,-1
 210 68 l 1,4,-1
 275 68 l 1,5,-1
 275 0 l 1,6,-1
 65 0 l 1,7,-1
 65 68 l 1,8,-1
 128 68 l 1,9,-1
 128 682 l 1,10,-1
 65 682 l 1,11,-1
 65 750 l 1,12,-1
 275 750 l 1,13,-1
 275 682 l 1,14,-1
 206 682 l 1,15,-1
 206 403 l 1,16,-1
 461 750 l 1,17,-1
 569 750 l 1,18,-1
 569 682 l 1,19,-1
 502 682 l 1,20,-1
 294 390 l 1,21,-1
 511 68 l 1,22,-1
 575 68 l 1,0,-1
EndSplineSet
EndChar

StartChar: L
Encoding: 76 76 47
Width: 528
Flags: W
LayerCount: 2
Fore
SplineSet
65 68 m 1,0,-1
 128 68 l 1,1,-1
 128 682 l 1,2,-1
 65 682 l 1,3,-1
 65 750 l 1,4,-1
 275 750 l 1,5,-1
 275 682 l 1,6,-1
 210 682 l 1,7,-1
 210 68 l 1,8,-1
 420 68 l 1,9,-1
 420 185 l 1,10,-1
 488 185 l 1,11,-1
 488 0 l 1,12,-1
 65 0 l 1,13,-1
 65 68 l 1,0,-1
EndSplineSet
EndChar

StartChar: M
Encoding: 77 77 48
Width: 860
Flags: W
LayerCount: 2
Fore
SplineSet
65 682 m 1,0,-1
 65 750 l 1,1,-1
 219 750 l 1,2,-1
 431 313 l 1,3,-1
 641 750 l 1,4,-1
 795 750 l 1,5,-1
 795 682 l 1,6,-1
 732 682 l 1,7,-1
 732 68 l 1,8,-1
 795 68 l 1,9,-1
 795 0 l 1,10,-1
 585 0 l 1,11,-1
 585 68 l 1,12,-1
 650 68 l 1,13,-1
 650 583 l 1,14,-1
 461 194 l 1,15,-1
 398 194 l 1,16,-1
 210 586 l 1,17,-1
 210 68 l 1,18,-1
 275 68 l 1,19,-1
 275 0 l 1,20,-1
 65 0 l 1,21,-1
 65 68 l 1,22,-1
 128 68 l 1,23,-1
 128 682 l 1,24,-1
 65 682 l 1,0,-1
EndSplineSet
EndChar

StartChar: N
Encoding: 78 78 49
Width: 719
Flags: W
LayerCount: 2
Fore
SplineSet
654 682 m 1,0,-1
 591 682 l 1,1,-1
 591 0 l 1,2,-1
 493 0 l 1,3,-1
 210 584 l 1,4,-1
 210 68 l 1,5,-1
 275 68 l 1,6,-1
 275 0 l 1,7,-1
 65 0 l 1,8,-1
 65 68 l 1,9,-1
 128 68 l 1,10,-1
 128 682 l 1,11,-1
 65 682 l 1,12,-1
 65 750 l 1,13,-1
 219 750 l 1,14,-1
 509 154 l 1,15,-1
 509 682 l 1,16,-1
 444 682 l 1,17,-1
 444 750 l 1,18,-1
 654 750 l 1,19,-1
 654 682 l 1,0,-1
EndSplineSet
EndChar

StartChar: O
Encoding: 79 79 50
Width: 542
Flags: W
LayerCount: 2
Fore
SplineSet
366 750 m 2,0,1
 427 750 427 750 454.5 716.5 c 128,-1,2
 482 683 482 683 482 617 c 2,3,-1
 482 136 l 2,4,5
 482 64 482 64 458 32 c 128,-1,6
 434 0 434 0 371 0 c 2,7,-1
 179 0 l 2,8,9
 83 0 83 0 66 72 c 0,10,11
 60 94 60 94 60 121 c 2,12,-1
 60 617 l 2,13,14
 60 684 60 684 82 714 c 0,15,16
 107 750 107 750 171 750 c 2,17,-1
 366 750 l 2,0,1
140 68 m 1,18,-1
 402 68 l 1,19,-1
 402 682 l 1,20,-1
 140 682 l 1,21,-1
 140 68 l 1,18,-1
EndSplineSet
EndChar

StartChar: P
Encoding: 80 80 51
Width: 594
Flags: W
LayerCount: 2
Fore
SplineSet
422 750 m 2,0,1
 488 750 488 750 511 725 c 256,2,3
 534 700 534 700 534 626 c 2,4,-1
 534 553 l 2,5,6
 534 496 534 496 510 470 c 0,7,8
 498 457 498 457 478.5 445 c 128,-1,9
 459 433 459 433 431 416 c 2,10,-1
 210 278 l 1,11,-1
 210 68 l 1,12,-1
 275 68 l 1,13,-1
 275 0 l 1,14,-1
 65 0 l 1,15,-1
 65 68 l 1,16,-1
 128 68 l 1,17,-1
 128 681 l 1,18,-1
 65 681 l 1,19,-1
 65 750 l 1,20,-1
 422 750 l 2,0,1
461 681 m 1,21,-1
 210 681 l 1,22,-1
 210 358 l 1,23,-1
 461 513 l 1,24,-1
 461 681 l 1,21,-1
EndSplineSet
EndChar

StartChar: Q
Encoding: 81 81 52
Width: 542
Flags: W
LayerCount: 2
Fore
SplineSet
366 750 m 2,0,1
 427 750 427 750 454.5 716.5 c 128,-1,2
 482 683 482 683 482 617 c 2,3,-1
 482 136 l 2,4,5
 482 64 482 64 458 32 c 128,-1,6
 434 0 434 0 371 0 c 2,7,-1
 311 0 l 1,8,-1
 311 -60 l 1,9,-1
 231 -60 l 1,10,-1
 231 0 l 1,11,-1
 179 0 l 2,12,13
 83 0 83 0 66 72 c 0,14,15
 60 94 60 94 60 121 c 2,16,-1
 60 617 l 2,17,18
 60 684 60 684 82 714 c 0,19,20
 107 750 107 750 171 750 c 2,21,-1
 366 750 l 2,0,1
231 118 m 1,22,-1
 311 118 l 1,23,-1
 311 68 l 1,24,-1
 402 68 l 1,25,-1
 402 682 l 1,26,-1
 140 682 l 1,27,-1
 140 68 l 1,28,-1
 231 68 l 1,29,-1
 231 118 l 1,22,-1
EndSplineSet
EndChar

StartChar: R
Encoding: 82 82 53
Width: 646
Flags: W
LayerCount: 2
Fore
SplineSet
631 68 m 1,0,-1
 631 0 l 1,1,-1
 433 0 l 1,2,-1
 433 68 l 1,3,-1
 487 68 l 1,4,-1
 316 343 l 1,5,-1
 210 278 l 1,6,-1
 210 68 l 1,7,-1
 275 68 l 1,8,-1
 275 0 l 1,9,-1
 65 0 l 1,10,-1
 65 68 l 1,11,-1
 128 68 l 1,12,-1
 128 682 l 1,13,-1
 65 682 l 1,14,-1
 65 750 l 1,15,-1
 422 750 l 2,16,17
 488 750 488 750 511 724.5 c 128,-1,18
 534 699 534 699 534 625 c 2,19,-1
 534 563 l 2,20,21
 534 525 534 525 527 503 c 128,-1,22
 520 481 520 481 502 463.5 c 128,-1,23
 484 446 484 446 454 428 c 128,-1,24
 424 410 424 410 378 382 c 1,25,-1
 575 68 l 1,26,-1
 631 68 l 1,0,-1
210 358 m 1,27,-1
 461 513 l 1,28,-1
 461 682 l 1,29,-1
 210 682 l 1,30,-1
 210 358 l 1,27,-1
EndSplineSet
EndChar

StartChar: S
Encoding: 83 83 54
Width: 542
Flags: W
LayerCount: 2
Fore
SplineSet
388 367 m 1,0,1
 408 353 408 353 425.5 342.5 c 128,-1,2
 443 332 443 332 456 320 c 0,3,4
 482 296 482 296 482 261 c 2,5,-1
 482 91 l 2,6,7
 482 46 482 46 450 22 c 1,8,9
 423 0 423 0 379 0 c 2,10,-1
 60 0 l 1,11,-1
 60 185 l 1,12,-1
 132 185 l 1,13,-1
 132 68 l 1,14,-1
 402 68 l 1,15,-1
 402 263 l 1,16,-1
 140 424 l 1,17,18
 105 444 105 444 82.5 465.5 c 128,-1,19
 60 487 60 487 60 524 c 2,20,-1
 60 650 l 2,21,22
 60 709 60 709 88 731 c 0,23,24
 112 750 112 750 171 750 c 2,25,-1
 473 750 l 1,26,-1
 473 565 l 1,27,-1
 401 565 l 1,28,-1
 401 682 l 1,29,-1
 140 682 l 1,30,-1
 140 522 l 1,31,-1
 388 367 l 1,0,1
EndSplineSet
EndChar

StartChar: T
Encoding: 84 84 55
Width: 529
Flags: W
LayerCount: 2
Fore
SplineSet
160 68 m 1,0,-1
 223 68 l 1,1,-1
 223 682 l 1,2,-1
 97 682 l 1,3,-1
 97 564 l 1,4,-1
 25 564 l 1,5,-1
 25 750 l 1,6,-1
 504 750 l 1,7,-1
 504 564 l 1,8,-1
 431 564 l 1,9,-1
 431 682 l 1,10,-1
 305 682 l 1,11,-1
 305 68 l 1,12,-1
 370 68 l 1,13,-1
 370 0 l 1,14,-1
 160 0 l 1,15,-1
 160 68 l 1,0,-1
EndSplineSet
EndChar

StartChar: U
Encoding: 85 85 56
Width: 682
Flags: W
LayerCount: 2
Fore
SplineSet
212 0 m 2,0,1
 123 0 123 0 123 99 c 2,2,-1
 123 682 l 1,3,-1
 60 682 l 1,4,-1
 60 750 l 1,5,-1
 270 750 l 1,6,-1
 270 682 l 1,7,-1
 205 682 l 1,8,-1
 205 68 l 1,9,-1
 477 68 l 1,10,-1
 477 682 l 1,11,-1
 412 682 l 1,12,-1
 412 750 l 1,13,-1
 622 750 l 1,14,-1
 622 682 l 1,15,-1
 559 682 l 1,16,-1
 559 104 l 2,17,18
 559 0 559 0 469 0 c 2,19,-1
 212 0 l 2,0,1
EndSplineSet
EndChar

StartChar: V
Encoding: 86 86 57
Width: 640
Flags: W
LayerCount: 2
Fore
SplineSet
25 750 m 1,0,-1
 208 750 l 1,1,-1
 208 682 l 1,2,-1
 156 682 l 1,3,-1
 321 68 l 1,4,-1
 485 682 l 1,5,-1
 422 682 l 1,6,-1
 422 750 l 1,7,-1
 615 750 l 1,8,-1
 615 682 l 1,9,-1
 561 682 l 1,10,-1
 378 0 l 1,11,-1
 263 0 l 1,12,-1
 81 682 l 1,13,-1
 25 682 l 1,14,-1
 25 750 l 1,0,-1
EndSplineSet
EndChar

StartChar: W
Encoding: 87 87 58
Width: 836
Flags: W
LayerCount: 2
Fore
SplineSet
811 750 m 1,0,-1
 811 682 l 1,1,-1
 763 682 l 1,2,-1
 656 0 l 1,3,-1
 526 0 l 1,4,-1
 418 681 l 1,5,-1
 310 0 l 1,6,-1
 180 0 l 1,7,-1
 73 682 l 1,8,-1
 25 682 l 1,9,-1
 25 750 l 1,10,-1
 190 750 l 1,11,-1
 190 682 l 1,12,-1
 150 682 l 1,13,-1
 245 68 l 1,14,-1
 350 750 l 1,15,-1
 486 750 l 1,16,-1
 591 68 l 1,17,-1
 686 682 l 1,18,-1
 646 682 l 1,19,-1
 646 750 l 1,20,-1
 811 750 l 1,0,-1
EndSplineSet
EndChar

StartChar: X
Encoding: 88 88 59
Width: 590
Flags: W
LayerCount: 2
Fore
SplineSet
565 68 m 1,0,-1
 565 0 l 1,1,-1
 461 0 l 1,2,-1
 296 312 l 1,3,-1
 131 0 l 1,4,-1
 25 0 l 1,5,-1
 25 68 l 1,6,-1
 82 68 l 1,7,-1
 253 394 l 1,8,-1
 102 682 l 1,9,-1
 42 682 l 1,10,-1
 42 750 l 1,11,-1
 152 750 l 1,12,-1
 295 474 l 1,13,-1
 440 750 l 1,14,-1
 548 750 l 1,15,-1
 548 682 l 1,16,-1
 489 682 l 1,17,-1
 337 394 l 1,18,-1
 510 68 l 1,19,-1
 565 68 l 1,0,-1
EndSplineSet
EndChar

StartChar: Y
Encoding: 89 89 60
Width: 556
Flags: W
LayerCount: 2
Fore
SplineSet
531 750 m 1,0,-1
 531 682 l 1,1,-1
 493 682 l 1,2,-1
 318 369 l 1,3,-1
 318 68 l 1,4,-1
 383 68 l 1,5,-1
 383 0 l 1,6,-1
 173 0 l 1,7,-1
 173 68 l 1,8,-1
 236 68 l 1,9,-1
 236 369 l 1,10,-1
 70 682 l 1,11,-1
 25 682 l 1,12,-1
 25 750 l 1,13,-1
 187 750 l 1,14,-1
 187 682 l 1,15,-1
 151 682 l 1,16,-1
 278 438 l 1,17,-1
 408 682 l 1,18,-1
 372 682 l 1,19,-1
 372 750 l 1,20,-1
 531 750 l 1,0,-1
EndSplineSet
EndChar

StartChar: Z
Encoding: 90 90 61
Width: 521
Flags: W
LayerCount: 2
Fore
SplineSet
116 68 m 1,0,-1
 411 68 l 1,1,-1
 411 182 l 1,2,-1
 481 182 l 1,3,-1
 481 0 l 1,4,-1
 30 0 l 1,5,-1
 30 72 l 1,6,-1
 407 682 l 1,7,-1
 128 682 l 1,8,-1
 128 570 l 1,9,-1
 57 570 l 1,10,-1
 57 750 l 1,11,-1
 491 750 l 1,12,-1
 491 678 l 1,13,-1
 116 68 l 1,0,-1
EndSplineSet
EndChar

StartChar: bracketleft
Encoding: 91 91 62
Width: 259
Flags: W
LayerCount: 2
Fore
SplineSet
152 -149 m 2,0,1
 116 -149 116 -149 98 -134.5 c 128,-1,2
 80 -120 80 -120 80 -84 c 2,3,-1
 80 804 l 2,4,5
 80 840 80 840 98 855 c 128,-1,6
 116 870 116 870 152 870 c 2,7,-1
 254 870 l 1,8,-1
 254 821 l 1,9,-1
 150 821 l 1,10,-1
 150 -99 l 1,11,-1
 254 -99 l 1,12,-1
 254 -149 l 1,13,-1
 152 -149 l 2,0,1
EndSplineSet
EndChar

StartChar: backslash
Encoding: 92 92 63
Width: 419
Flags: W
LayerCount: 2
Fore
SplineSet
5 870 m 1,0,-1
 83 870 l 1,1,-1
 414 -150 l 1,2,-1
 337 -150 l 1,3,-1
 5 870 l 1,0,-1
EndSplineSet
EndChar

StartChar: bracketright
Encoding: 93 93 64
Width: 259
Flags: W
LayerCount: 2
Fore
SplineSet
107 870 m 2,0,1
 143 870 143 870 161 855.5 c 128,-1,2
 179 841 179 841 179 805 c 2,3,-1
 179 -83 l 2,4,5
 179 -119 179 -119 161 -134 c 128,-1,6
 143 -149 143 -149 107 -149 c 2,7,-1
 5 -149 l 1,8,-1
 5 -100 l 1,9,-1
 109 -100 l 1,10,-1
 109 820 l 1,11,-1
 5 820 l 1,12,-1
 5 870 l 1,13,-1
 107 870 l 2,0,1
EndSplineSet
EndChar

StartChar: asciicircum
Encoding: 94 94 65
Width: 596
Flags: W
LayerCount: 2
Fore
SplineSet
516 375 m 1,0,-1
 447 375 l 1,1,-1
 301 679 l 1,2,-1
 150 375 l 1,3,-1
 80 375 l 1,4,-1
 272 750 l 1,5,-1
 334 750 l 1,6,-1
 516 375 l 1,0,-1
EndSplineSet
EndChar

StartChar: underscore
Encoding: 95 95 66
Width: 542
Flags: W
LayerCount: 2
Fore
SplineSet
5 -72 m 1,0,-1
 537 -72 l 1,1,-1
 537 -112 l 1,2,-1
 5 -112 l 1,3,-1
 5 -72 l 1,0,-1
EndSplineSet
EndChar

StartChar: grave
Encoding: 96 96 67
Width: 182
Flags: W
LayerCount: 2
Fore
SplineSet
179 559 m 1,0,-1
 106 559 l 1,1,-1
 1 682 l 1,2,-1
 72 682 l 1,3,-1
 179 559 l 1,0,-1
EndSplineSet
EndChar

StartChar: a
Encoding: 97 97 68
Width: 493
Flags: W
LayerCount: 2
Fore
SplineSet
453 68 m 1,0,-1
 453 0 l 1,1,-1
 105 0 l 2,2,3
 54 0 54 0 36 20 c 0,4,5
 20 38 20 38 20 88 c 2,6,-1
 20 125 l 2,7,8
 20 161 20 161 29 174 c 0,9,10
 42 193 42 193 88 221 c 2,11,-1
 308 358 l 1,12,-1
 308 432 l 1,13,-1
 112 432 l 1,14,-1
 112 374 l 1,15,-1
 48 374 l 1,16,-1
 48 500 l 1,17,-1
 298 500 l 2,18,19
 349 500 349 500 369.5 478 c 128,-1,20
 390 456 390 456 390 414 c 2,21,-1
 390 68 l 1,22,-1
 453 68 l 1,0,-1
308 278 m 1,23,-1
 100 148 l 1,24,-1
 100 68 l 1,25,-1
 308 68 l 1,26,-1
 308 278 l 1,23,-1
EndSplineSet
EndChar

StartChar: b
Encoding: 98 98 69
Width: 527
Flags: W
LayerCount: 2
Fore
SplineSet
355 496 m 2,0,1
 377 510 377 510 406.5 510 c 128,-1,2
 436 510 436 510 456.5 488 c 128,-1,3
 477 466 477 466 477 424 c 2,4,-1
 477 88 l 2,5,6
 477 47 477 47 464 30 c 0,7,8
 440 0 440 0 391 0 c 2,9,-1
 40 0 l 1,10,-1
 40 68 l 1,11,-1
 103 68 l 1,12,-1
 103 682 l 1,13,-1
 40 682 l 1,14,-1
 40 750 l 1,15,-1
 185 750 l 1,16,-1
 185 389 l 1,17,-1
 355 496 l 2,0,1
397 442 m 1,18,-1
 185 309 l 1,19,-1
 185 68 l 1,20,-1
 397 68 l 1,21,-1
 397 442 l 1,18,-1
EndSplineSet
EndChar

StartChar: c
Encoding: 99 99 70
Width: 426
Flags: W
LayerCount: 2
Fore
SplineSet
386 0 m 1,0,-1
 137 0 l 2,1,2
 65 0 65 0 54 54 c 0,3,4
 50 70 50 70 50 88 c 2,5,-1
 50 412 l 2,6,7
 50 454 50 454 73.5 477.5 c 128,-1,8
 97 501 97 501 145 501 c 2,9,-1
 386 501 l 1,10,-1
 386 374 l 1,11,-1
 318 374 l 1,12,-1
 318 432 l 1,13,-1
 130 432 l 1,14,-1
 130 68 l 1,15,-1
 318 68 l 1,16,-1
 318 126 l 1,17,-1
 386 126 l 1,18,-1
 386 0 l 1,0,-1
EndSplineSet
EndChar

StartChar: d
Encoding: 100 100 71
Width: 527
Flags: W
LayerCount: 2
Fore
SplineSet
487 69 m 1,0,-1
 487 0 l 1,1,-1
 342 0 l 1,2,-1
 342 115 l 1,3,-1
 169 6 l 1,4,5
 138 -10 138 -10 110.5 -10 c 128,-1,6
 83 -10 83 -10 66.5 10 c 128,-1,7
 50 30 50 30 50 56 c 2,8,-1
 50 406 l 2,9,10
 50 452 50 452 64 469 c 0,11,12
 88 500 88 500 140 500 c 2,13,-1
 342 500 l 1,14,-1
 342 682 l 1,15,-1
 276 682 l 1,16,-1
 276 750 l 1,17,-1
 424 750 l 1,18,-1
 424 69 l 1,19,-1
 487 69 l 1,0,-1
342 432 m 1,20,-1
 130 432 l 1,21,-1
 130 63 l 1,22,-1
 342 195 l 1,23,-1
 342 432 l 1,20,-1
EndSplineSet
EndChar

StartChar: e
Encoding: 101 101 72
Width: 465
Flags: W
LayerCount: 2
Fore
SplineSet
50 402 m 2,0,1
 50 501 50 501 153 501 c 2,2,-1
 322 501 l 2,3,4
 371 501 371 501 393 482 c 128,-1,5
 415 463 415 463 415 412 c 2,6,-1
 415 319 l 1,7,-1
 130 139 l 1,8,-1
 130 68 l 1,9,-1
 336 68 l 1,10,-1
 336 126 l 1,11,-1
 415 126 l 1,12,-1
 415 73 l 2,13,14
 415 43 415 43 396.5 21.5 c 128,-1,15
 378 0 378 0 335 0 c 2,16,-1
 130 0 l 2,17,18
 87 0 87 0 68.5 21.5 c 128,-1,19
 50 43 50 43 50 73 c 2,20,-1
 50 402 l 2,0,1
130 220 m 1,21,-1
 335 349 l 1,22,-1
 335 432 l 1,23,-1
 130 432 l 1,24,-1
 130 220 l 1,21,-1
EndSplineSet
EndChar

StartChar: f
Encoding: 102 102 73
Width: 332
Flags: W
LayerCount: 2
Fore
SplineSet
198 428 m 1,0,-1
 198 68 l 1,1,-1
 279 68 l 1,2,-1
 279 0 l 1,3,-1
 40 0 l 1,4,-1
 40 68 l 1,5,-1
 120 68 l 1,6,-1
 120 428 l 1,7,-1
 40 428 l 1,8,-1
 40 500 l 1,9,-1
 120 500 l 1,10,-1
 120 646 l 2,11,12
 120 703 120 703 142 726.5 c 128,-1,13
 164 750 164 750 209 750 c 2,14,-1
 292 750 l 1,15,-1
 292 682 l 1,16,-1
 198 682 l 1,17,-1
 198 500 l 1,18,-1
 279 500 l 1,19,-1
 279 428 l 1,20,-1
 198 428 l 1,0,-1
EndSplineSet
EndChar

StartChar: g
Encoding: 103 103 74
Width: 523
Flags: W
LayerCount: 2
Fore
SplineSet
420 432 m 1,0,-1
 420 -133 l 2,1,2
 420 -175 420 -175 399.5 -197 c 128,-1,3
 379 -219 379 -219 328 -219 c 2,4,-1
 86 -219 l 1,5,-1
 86 -83 l 1,6,-1
 154 -83 l 1,7,-1
 154 -150 l 1,8,-1
 338 -150 l 1,9,-1
 338 111 l 1,10,-1
 167 3 l 2,11,12
 145 -10 145 -10 118.5 -10 c 128,-1,13
 92 -10 92 -10 71 10.5 c 128,-1,14
 50 31 50 31 50 61 c 2,15,-1
 50 412 l 2,16,17
 50 461 50 461 63 476 c 0,18,19
 85 500 85 500 135 500 c 2,20,-1
 483 500 l 1,21,-1
 483 432 l 1,22,-1
 420 432 l 1,0,-1
338 432 m 1,23,-1
 128 432 l 1,24,-1
 128 60 l 1,25,-1
 338 192 l 1,26,-1
 338 432 l 1,23,-1
EndSplineSet
EndChar

StartChar: h
Encoding: 104 104 75
Width: 568
Flags: W
LayerCount: 2
Fore
SplineSet
528 68 m 1,0,-1
 528 0 l 1,1,-1
 335 0 l 1,2,-1
 335 68 l 1,3,-1
 383 68 l 1,4,-1
 383 438 l 1,5,-1
 184 313 l 1,6,-1
 184 68 l 1,7,-1
 233 68 l 1,8,-1
 233 0 l 1,9,-1
 40 0 l 1,10,-1
 40 68 l 1,11,-1
 103 68 l 1,12,-1
 103 682 l 1,13,-1
 40 682 l 1,14,-1
 40 750 l 1,15,-1
 184 750 l 1,16,-1
 184 394 l 1,17,-1
 350 498 l 2,18,19
 369 510 369 510 395 510 c 128,-1,20
 421 510 421 510 442.5 489.5 c 128,-1,21
 464 469 464 469 464 431 c 2,22,-1
 464 68 l 1,23,-1
 528 68 l 1,0,-1
EndSplineSet
EndChar

StartChar: i
Encoding: 105 105 76
Width: 300
Flags: W
LayerCount: 2
Fore
SplineSet
195 68 m 1,0,-1
 260 68 l 1,1,-1
 260 0 l 1,2,-1
 50 0 l 1,3,-1
 50 68 l 1,4,-1
 113 68 l 1,5,-1
 113 432 l 1,6,-1
 50 432 l 1,7,-1
 50 500 l 1,8,-1
 195 500 l 1,9,-1
 195 68 l 1,0,-1
189.5 668.5 m 128,-1,11
 204 653 204 653 204 631.5 c 128,-1,12
 204 610 204 610 189.5 595.5 c 128,-1,13
 175 581 175 581 153.5 581 c 128,-1,14
 132 581 132 581 117.5 595.5 c 128,-1,15
 103 610 103 610 103 631.5 c 128,-1,16
 103 653 103 653 118 668.5 c 128,-1,17
 133 684 133 684 154 684 c 128,-1,10
 175 684 175 684 189.5 668.5 c 128,-1,11
EndSplineSet
EndChar

StartChar: j
Encoding: 106 106 77
Width: 264
Flags: W
LayerCount: 2
Fore
SplineSet
204 -114 m 2,0,1
 204 -156 204 -156 183.5 -178 c 128,-1,2
 163 -200 163 -200 112 -200 c 2,3,-1
 -10 -200 l 1,4,-1
 -10 -131 l 1,5,-1
 122 -131 l 1,6,-1
 122 432 l 1,7,-1
 59 432 l 1,8,-1
 59 500 l 1,9,-1
 204 500 l 1,10,-1
 204 -114 l 2,0,1
189.5 668.5 m 128,-1,12
 204 653 204 653 204 631.5 c 128,-1,13
 204 610 204 610 189.5 595.5 c 128,-1,14
 175 581 175 581 153.5 581 c 128,-1,15
 132 581 132 581 117.5 595.5 c 128,-1,16
 103 610 103 610 103 631.5 c 128,-1,17
 103 653 103 653 118 668.5 c 128,-1,18
 133 684 133 684 154 684 c 128,-1,11
 175 684 175 684 189.5 668.5 c 128,-1,12
EndSplineSet
EndChar

StartChar: k
Encoding: 107 107 78
Width: 507
Flags: W
LayerCount: 2
Fore
SplineSet
487 68 m 1,0,-1
 487 0 l 1,1,-1
 401 0 l 1,2,-1
 184 252 l 1,3,-1
 184 68 l 1,4,-1
 244 68 l 1,5,-1
 244 0 l 1,6,-1
 40 0 l 1,7,-1
 40 68 l 1,8,-1
 104 68 l 1,9,-1
 104 682 l 1,10,-1
 40 682 l 1,11,-1
 40 750 l 1,12,-1
 180 750 l 1,13,-1
 180 276 l 1,14,-1
 408 500 l 1,15,-1
 486 500 l 1,16,-1
 486 432 l 1,17,-1
 431 432 l 1,18,-1
 268 265 l 1,19,-1
 435 68 l 1,20,-1
 487 68 l 1,0,-1
EndSplineSet
EndChar

StartChar: l
Encoding: 108 108 79
Width: 310
Flags: W
LayerCount: 2
Fore
SplineSet
195 68 m 1,0,-1
 260 68 l 1,1,-1
 260 0 l 1,2,-1
 50 0 l 1,3,-1
 50 68 l 1,4,-1
 113 68 l 1,5,-1
 113 682 l 1,6,-1
 50 682 l 1,7,-1
 50 750 l 1,8,-1
 195 750 l 1,9,-1
 195 68 l 1,0,-1
EndSplineSet
EndChar

StartChar: m
Encoding: 109 109 80
Width: 817
Flags: W
LayerCount: 2
Fore
SplineSet
635 510 m 0,0,1
 713 510 713 510 713 433 c 2,2,-1
 713 68 l 1,3,-1
 777 68 l 1,4,-1
 777 0 l 1,5,-1
 584 0 l 1,6,-1
 584 68 l 1,7,-1
 632 68 l 1,8,-1
 632 440 l 1,9,-1
 449 326 l 1,10,-1
 449 68 l 1,11,-1
 498 68 l 1,12,-1
 498 0 l 1,13,-1
 319 0 l 1,14,-1
 319 68 l 1,15,-1
 367 68 l 1,16,-1
 368 72 l 1,17,-1
 368 441 l 1,18,-1
 184 326 l 1,19,-1
 184 68 l 1,20,-1
 233 68 l 1,21,-1
 233 0 l 1,22,-1
 40 0 l 1,23,-1
 40 68 l 1,24,-1
 103 68 l 1,25,-1
 103 433 l 1,26,-1
 40 433 l 1,27,-1
 40 500 l 1,28,-1
 184 500 l 1,29,-1
 184 405 l 1,30,-1
 335 500 l 2,31,32
 351 510 351 510 371 510 c 0,33,34
 449 510 449 510 449 433 c 2,35,-1
 449 406 l 1,36,-1
 599 500 l 2,37,38
 615 510 615 510 635 510 c 0,0,1
EndSplineSet
EndChar

StartChar: n
Encoding: 110 110 81
Width: 568
Flags: W
LayerCount: 2
Fore
SplineSet
386 510 m 0,0,1
 464 510 464 510 464 433 c 2,2,-1
 464 68 l 1,3,-1
 528 68 l 1,4,-1
 528 0 l 1,5,-1
 335 0 l 1,6,-1
 335 68 l 1,7,-1
 383 68 l 1,8,-1
 383 440 l 1,9,-1
 184 315 l 1,10,-1
 184 68 l 1,11,-1
 233 68 l 1,12,-1
 233 0 l 1,13,-1
 40 0 l 1,14,-1
 40 68 l 1,15,-1
 103 68 l 1,16,-1
 103 433 l 1,17,-1
 40 433 l 1,18,-1
 40 500 l 1,19,-1
 184 500 l 1,20,-1
 184 396 l 1,21,-1
 350 500 l 2,22,23
 366 510 366 510 386 510 c 0,0,1
EndSplineSet
EndChar

StartChar: o
Encoding: 111 111 82
Width: 451
Flags: W
LayerCount: 2
Fore
SplineSet
133 0 m 2,0,1
 82 0 82 0 61 23.5 c 128,-1,2
 40 47 40 47 40 89 c 2,3,-1
 40 411 l 2,4,5
 40 451 40 451 58.5 475.5 c 128,-1,6
 77 500 77 500 133 500 c 2,7,-1
 318 500 l 2,8,9
 373 500 373 500 392 475.5 c 128,-1,10
 411 451 411 451 411 411 c 2,11,-1
 411 89 l 2,12,13
 411 47 411 47 390 23.5 c 128,-1,14
 369 0 369 0 318 0 c 2,15,-1
 133 0 l 2,0,1
121 68 m 1,16,-1
 330 68 l 1,17,-1
 330 432 l 1,18,-1
 121 432 l 1,19,-1
 121 68 l 1,16,-1
EndSplineSet
EndChar

StartChar: p
Encoding: 112 112 83
Width: 527
Flags: W
LayerCount: 2
Fore
SplineSet
185 68 m 1,0,-1
 397 68 l 1,1,-1
 397 439 l 1,2,-1
 185 306 l 1,3,-1
 185 68 l 1,0,-1
41 -182 m 1,4,-1
 103 -182 l 1,5,-1
 103 431 l 1,6,-1
 40 431 l 1,7,-1
 40 500 l 1,8,-1
 185 500 l 1,9,-1
 185 386 l 1,10,-1
 358 495 l 2,11,12
 382 510 382 510 409 510 c 128,-1,13
 436 510 436 510 456.5 493.5 c 128,-1,14
 477 477 477 477 477 445 c 2,15,-1
 477 94 l 2,16,17
 477 48 477 48 464 31 c 0,18,19
 439 0 439 0 387 0 c 2,20,-1
 185 0 l 1,21,-1
 185 -182 l 1,22,-1
 251 -182 l 1,23,-1
 251 -250 l 1,24,-1
 41 -250 l 1,25,-1
 41 -182 l 1,4,-1
EndSplineSet
EndChar

StartChar: q
Encoding: 113 113 84
Width: 537
Flags: W
LayerCount: 2
Fore
SplineSet
130 58 m 1,0,-1
 342 192 l 1,1,-1
 342 432 l 1,2,-1
 130 432 l 1,3,-1
 130 58 l 1,0,-1
279 -182 m 1,4,-1
 342 -182 l 1,5,-1
 342 111 l 1,6,-1
 172 4 l 2,7,8
 150 -10 150 -10 120.5 -10 c 128,-1,9
 91 -10 91 -10 70.5 12 c 128,-1,10
 50 34 50 34 50 76 c 2,11,-1
 50 412 l 2,12,13
 50 453 50 453 63 470 c 0,14,15
 87 500 87 500 136 500 c 2,16,-1
 487 500 l 1,17,-1
 487 432 l 1,18,-1
 424 432 l 1,19,-1
 424 -182 l 1,20,-1
 487 -182 l 1,21,-1
 487 -250 l 1,22,-1
 279 -250 l 1,23,-1
 279 -182 l 1,4,-1
EndSplineSet
EndChar

StartChar: r
Encoding: 114 114 85
Width: 461
Flags: W
LayerCount: 2
Fore
SplineSet
343 500 m 0,0,1
 421 500 421 500 421 423 c 2,2,-1
 421 334 l 1,3,-1
 340 334 l 1,4,-1
 340 431 l 1,5,-1
 184 332 l 1,6,-1
 184 68 l 1,7,-1
 233 68 l 1,8,-1
 233 0 l 1,9,-1
 40 0 l 1,10,-1
 40 68 l 1,11,-1
 103 68 l 1,12,-1
 103 433 l 1,13,-1
 40 433 l 1,14,-1
 40 501 l 1,15,-1
 184 501 l 1,16,-1
 184 413 l 1,17,-1
 307 490 l 2,18,19
 323 500 323 500 343 500 c 0,0,1
EndSplineSet
EndChar

StartChar: s
Encoding: 115 115 86
Width: 439
Flags: W
LayerCount: 2
Fore
SplineSet
389 88 m 2,0,1
 389 0 389 0 303 0 c 2,2,-1
 61 0 l 1,3,-1
 61 151 l 1,4,-1
 129 151 l 1,5,-1
 129 68 l 1,6,-1
 309 68 l 1,7,-1
 309 151 l 1,8,-1
 145 254 l 2,9,10
 120 270 120 270 102 280 c 128,-1,11
 84 290 84 290 72 300 c 0,12,13
 50 320 50 320 50 354 c 2,14,-1
 50 411 l 2,15,16
 50 453 50 453 64 469 c 0,17,18
 91 500 91 500 144 500 c 2,19,-1
 377 500 l 1,20,-1
 377 350 l 1,21,-1
 309 350 l 1,22,-1
 309 432 l 1,23,-1
 129 432 l 1,24,-1
 129 348 l 1,25,-1
 299 242 l 2,26,27
 320 229 320 229 336.5 219.5 c 128,-1,28
 353 210 353 210 364 200 c 0,29,30
 389 179 389 179 389 150 c 2,31,-1
 389 88 l 2,0,1
EndSplineSet
EndChar

StartChar: t
Encoding: 116 116 87
Width: 317
Flags: W
LayerCount: 2
Fore
SplineSet
192 682 m 1,0,-1
 192 500 l 1,1,-1
 273 500 l 1,2,-1
 273 428 l 1,3,-1
 192 428 l 1,4,-1
 192 68 l 1,5,-1
 287 68 l 1,6,-1
 287 0 l 1,7,-1
 203 0 l 2,8,9
 158 0 158 0 136 23.5 c 128,-1,10
 114 47 114 47 114 104 c 2,11,-1
 114 428 l 1,12,-1
 40 428 l 1,13,-1
 40 500 l 1,14,-1
 114 500 l 1,15,-1
 114 682 l 1,16,-1
 192 682 l 1,0,-1
EndSplineSet
EndChar

StartChar: u
Encoding: 117 117 88
Width: 568
Flags: W
LayerCount: 2
Fore
SplineSet
182 -2 m 0,0,1
 104 -2 104 -2 104 75 c 2,2,-1
 104 433 l 1,3,-1
 40 433 l 1,4,-1
 40 501 l 1,5,-1
 185 501 l 1,6,-1
 185 68 l 1,7,-1
 384 193 l 1,8,-1
 384 433 l 1,9,-1
 335 433 l 1,10,-1
 335 501 l 1,11,-1
 465 501 l 1,12,-1
 465 68 l 1,13,-1
 528 68 l 1,14,-1
 528 0 l 1,15,-1
 384 0 l 1,16,-1
 384 112 l 1,17,-1
 218 8 l 2,18,19
 202 -2 202 -2 182 -2 c 0,0,1
EndSplineSet
EndChar

StartChar: v
Encoding: 118 118 89
Width: 513
Flags: W
LayerCount: 2
Fore
SplineSet
204 500 m 1,0,-1
 204 432 l 1,1,-1
 155 432 l 1,2,-1
 255 68 l 1,3,-1
 357 432 l 1,4,-1
 308 432 l 1,5,-1
 308 500 l 1,6,-1
 493 500 l 1,7,-1
 493 432 l 1,8,-1
 433 432 l 1,9,-1
 312 0 l 1,10,-1
 201 0 l 1,11,-1
 79 432 l 1,12,-1
 20 432 l 1,13,-1
 20 500 l 1,14,-1
 204 500 l 1,0,-1
EndSplineSet
EndChar

StartChar: w
Encoding: 119 119 90
Width: 732
Flags: W
LayerCount: 2
Fore
SplineSet
20 500 m 1,0,-1
 179 500 l 1,1,-1
 179 432 l 1,2,-1
 135 432 l 1,3,-1
 216 69 l 1,4,-1
 309 500 l 1,5,-1
 419 500 l 1,6,-1
 515 67 l 1,7,-1
 597 432 l 1,8,-1
 552 432 l 1,9,-1
 552 500 l 1,10,-1
 712 500 l 1,11,-1
 712 432 l 1,12,-1
 664 432 l 1,13,-1
 569 0 l 1,14,-1
 462 0 l 1,15,-1
 367 433 l 1,16,-1
 270 0 l 1,17,-1
 158 0 l 1,18,19
 158 0 158 0 151 32 c 0,20,21
 144 65 144 65 133.5 113 c 128,-1,22
 123 161 123 161 111 217 c 128,-1,23
 99 273 99 273 88.5 321 c 128,-1,24
 78 369 78 369 70 400 c 1,25,-1
 63 432 l 1,26,-1
 20 432 l 1,27,-1
 20 500 l 1,0,-1
EndSplineSet
EndChar

StartChar: x
Encoding: 120 120 91
Width: 508
Flags: W
LayerCount: 2
Fore
SplineSet
86 68 m 1,0,-1
 212 259 l 1,1,-1
 97 432 l 1,2,-1
 38 432 l 1,3,-1
 38 500 l 1,4,-1
 134 500 l 1,5,-1
 256 320 l 1,6,-1
 370 500 l 1,7,-1
 468 500 l 1,8,-1
 468 432 l 1,9,-1
 412 432 l 1,10,-1
 297 259 l 1,11,-1
 422 68 l 1,12,-1
 478 68 l 1,13,-1
 478 0 l 1,14,-1
 384 0 l 1,15,-1
 256 199 l 1,16,-1
 129 0 l 1,17,-1
 30 0 l 1,18,-1
 30 68 l 1,19,-1
 86 68 l 1,0,-1
EndSplineSet
EndChar

StartChar: y
Encoding: 121 121 92
Width: 515
Flags: W
LayerCount: 2
Fore
SplineSet
465 500 m 1,0,-1
 465 -133 l 2,1,2
 465 -175 465 -175 444.5 -197 c 128,-1,3
 424 -219 424 -219 373 -219 c 2,4,-1
 142 -219 l 1,5,-1
 142 -83 l 1,6,-1
 210 -83 l 1,7,-1
 210 -150 l 1,8,-1
 383 -150 l 1,9,-1
 383 113 l 1,10,-1
 207 4 l 2,11,12
 184 -10 184 -10 161 -10 c 256,13,14
 138 -10 138 -10 121 5.5 c 128,-1,15
 104 21 104 21 104 55 c 2,16,-1
 104 432 l 1,17,-1
 40 432 l 1,18,-1
 40 500 l 1,19,-1
 185 500 l 1,20,-1
 185 69 l 1,21,-1
 384 194 l 1,22,-1
 384 432 l 1,23,-1
 335 432 l 1,24,-1
 335 500 l 1,25,-1
 465 500 l 1,0,-1
EndSplineSet
EndChar

StartChar: z
Encoding: 122 122 93
Width: 452
Flags: W
LayerCount: 2
Fore
SplineSet
40 0 m 1,0,-1
 40 69 l 1,1,-1
 317 432 l 1,2,-1
 114 432 l 1,3,-1
 114 361 l 1,4,-1
 45 361 l 1,5,-1
 45 500 l 1,6,-1
 404 500 l 1,7,-1
 404 429 l 1,8,-1
 129 68 l 1,9,-1
 342 68 l 1,10,-1
 342 137 l 1,11,-1
 412 137 l 1,12,-1
 412 0 l 1,13,-1
 40 0 l 1,0,-1
EndSplineSet
EndChar

StartChar: braceleft
Encoding: 123 123 94
Width: 329
Flags: W
LayerCount: 2
Fore
SplineSet
211 523 m 2,0,1
 211 404 211 404 108 361 c 1,2,3
 211 318 211 318 211 199 c 2,4,-1
 211 78 l 2,5,6
 211 -18 211 -18 224 -49.5 c 128,-1,7
 237 -81 237 -81 259 -95.5 c 128,-1,8
 281 -110 281 -110 319 -110 c 1,9,-1
 319 -151 l 1,10,11
 207 -151 207 -151 170 -97 c 0,12,13
 152 -71 152 -71 147.5 -32.5 c 128,-1,14
 143 6 143 6 143 56 c 2,15,-1
 143 199 l 2,16,17
 143 302 143 302 50 341 c 1,18,-1
 50 381 l 1,19,20
 143 420 143 420 143 523 c 2,21,-1
 143 666 l 2,22,23
 143 715 143 715 147.5 754 c 128,-1,24
 152 793 152 793 170 819 c 0,25,26
 207 873 207 873 319 873 c 1,27,-1
 319 832 l 1,28,29
 249 832 249 832 226 778 c 1,30,31
 211 740 211 740 211 644 c 2,32,-1
 211 523 l 2,0,1
EndSplineSet
EndChar

StartChar: bar
Encoding: 124 124 95
Width: 270
Flags: W
LayerCount: 2
Fore
SplineSet
100 -151 m 1,0,-1
 100 871 l 1,1,-1
 170 871 l 1,2,-1
 170 -151 l 1,3,-1
 100 -151 l 1,0,-1
EndSplineSet
EndChar

StartChar: braceright
Encoding: 125 125 96
Width: 329
Flags: W
LayerCount: 2
Fore
SplineSet
221 361 m 1,0,1
 118 404 118 404 118 523 c 2,2,-1
 118 644 l 2,3,4
 118 740 118 740 105 771.5 c 128,-1,5
 92 803 92 803 70 817.5 c 128,-1,6
 48 832 48 832 10 832 c 1,7,-1
 10 873 l 1,8,9
 122 873 122 873 159 819 c 0,10,11
 177 793 177 793 181.5 754 c 128,-1,12
 186 715 186 715 186 666 c 2,13,-1
 186 523 l 2,14,15
 186 420 186 420 279 381 c 1,16,-1
 279 341 l 1,17,18
 186 302 186 302 186 199 c 2,19,-1
 186 56 l 2,20,21
 186 6 186 6 181.5 -32.5 c 128,-1,22
 177 -71 177 -71 159 -97 c 0,23,24
 122 -151 122 -151 10 -151 c 1,25,-1
 10 -110 l 1,26,27
 80 -110 80 -110 102 -56 c 0,28,29
 118 -18 118 -18 118 78 c 2,30,-1
 118 199 l 2,31,32
 118 318 118 318 221 361 c 1,0,1
EndSplineSet
EndChar

StartChar: asciitilde
Encoding: 126 126 97
Width: 595
Flags: W
LayerCount: 2
Fore
SplineSet
40 287 m 1,0,1
 111 385 111 385 182 385 c 0,2,3
 227 385 227 385 310 346 c 0,4,5
 341 331 341 331 367 318.5 c 128,-1,6
 393 306 393 306 411 306 c 0,7,8
 458 306 458 306 496 348 c 0,9,10
 507 360 507 360 516 371 c 1,11,-1
 555 335 l 1,12,13
 479 243 479 243 412 243 c 0,14,15
 380 243 380 243 322.5 269.5 c 128,-1,16
 265 296 265 296 235 308 c 128,-1,17
 205 320 205 320 186.5 320 c 128,-1,18
 168 320 168 320 156 316.5 c 128,-1,19
 144 313 144 313 133 304 c 0,20,21
 113 289 113 289 85 253 c 1,22,-1
 40 287 l 1,0,1
EndSplineSet
EndChar

StartChar: exclamdown
Encoding: 161 161 98
Width: 301
Flags: W
LayerCount: 2
Fore
SplineSet
191 530 m 1,0,-1
 191 -4 l 1,1,-1
 109 -4 l 1,2,-1
 109 530 l 1,3,-1
 191 530 l 1,0,-1
186.5 712.5 m 128,-1,5
 201 698 201 698 201 677 c 128,-1,6
 201 656 201 656 186.5 640 c 128,-1,7
 172 624 172 624 151.5 624 c 128,-1,8
 131 624 131 624 115.5 640 c 128,-1,9
 100 656 100 656 100 677 c 128,-1,10
 100 698 100 698 115 712.5 c 128,-1,11
 130 727 130 727 151 727 c 128,-1,4
 172 727 172 727 186.5 712.5 c 128,-1,5
EndSplineSet
EndChar

StartChar: cent
Encoding: 162 162 99
Width: 452
Flags: W
LayerCount: 2
Fore
SplineSet
210 -117 m 1,0,-1
 210 0 l 1,1,-1
 137 0 l 2,2,3
 65 0 65 0 54 54 c 0,4,5
 50 70 50 70 50 88 c 2,6,-1
 50 412 l 2,7,8
 50 454 50 454 73.5 477.5 c 128,-1,9
 97 501 97 501 145 501 c 2,10,-1
 210 501 l 1,11,-1
 210 586 l 1,12,-1
 269 586 l 1,13,-1
 269 501 l 1,14,-1
 403 501 l 1,15,-1
 403 374 l 1,16,-1
 335 374 l 1,17,-1
 335 432 l 1,18,-1
 269 432 l 1,19,-1
 269 68 l 1,20,-1
 335 68 l 1,21,-1
 335 126 l 1,22,-1
 403 126 l 1,23,-1
 403 0 l 1,24,-1
 269 0 l 1,25,-1
 269 -117 l 1,26,-1
 210 -117 l 1,0,-1
130 68 m 1,27,-1
 210 68 l 1,28,-1
 210 432 l 1,29,-1
 130 432 l 1,30,-1
 130 68 l 1,27,-1
EndSplineSet
EndChar

StartChar: sterling
Encoding: 163 163 100
Width: 531
Flags: W
LayerCount: 2
Fore
SplineSet
198 428 m 1,0,-1
 198 68 l 1,1,-1
 411 68 l 1,2,-1
 411 185 l 1,3,-1
 479 185 l 1,4,-1
 479 0 l 1,5,-1
 33 0 l 1,6,-1
 33 68 l 1,7,-1
 120 68 l 1,8,-1
 120 428 l 1,9,-1
 33 428 l 1,10,-1
 33 500 l 1,11,-1
 120 500 l 1,12,-1
 120 646 l 2,13,14
 120 703 120 703 142 726.5 c 128,-1,15
 164 750 164 750 209 750 c 2,16,-1
 331 750 l 1,17,-1
 331 682 l 1,18,-1
 198 682 l 1,19,-1
 198 500 l 1,20,-1
 318 500 l 1,21,-1
 318 428 l 1,22,-1
 198 428 l 1,0,-1
EndSplineSet
EndChar

StartChar: currency
Encoding: 164 164 101
Width: 484
Flags: W
LayerCount: 2
Fore
SplineSet
379 138 m 1,0,1
 325 90 325 90 245 90 c 128,-1,2
 165 90 165 90 112 137 c 1,3,-1
 64 88 l 1,4,-1
 27 125 l 1,5,-1
 76 174 l 1,6,7
 28 230 28 230 30 305 c 1,8,9
 30 387 30 387 76 437 c 1,10,-1
 27 486 l 1,11,-1
 64 523 l 1,12,-1
 112 474 l 1,13,14
 172 521 172 521 244 521 c 128,-1,15
 316 521 316 521 379 474 c 1,16,-1
 427 523 l 1,17,-1
 464 487 l 1,18,-1
 414 437 l 1,19,20
 460 385 460 385 460 305.5 c 128,-1,21
 460 226 460 226 414 174 c 1,22,-1
 464 124 l 1,23,-1
 427 88 l 1,24,-1
 379 138 l 1,0,1
98 304 m 0,25,26
 98 273 98 273 109.5 245.5 c 128,-1,27
 121 218 121 218 141 197 c 0,28,29
 184 152 184 152 245 152 c 0,30,31
 307 152 307 152 351 198 c 0,32,33
 393 242 393 242 393 305 c 0,34,35
 393 366 393 366 350 412 c 0,36,37
 309 457 309 457 245 457 c 0,38,39
 184 457 184 457 141 412 c 0,40,41
 98 368 98 368 98 304 c 0,25,26
EndSplineSet
EndChar

StartChar: yen
Encoding: 165 165 102
Width: 556
Flags: W
LayerCount: 2
Fore
SplineSet
318 217 m 1,0,-1
 318 68 l 1,1,-1
 383 68 l 1,2,-1
 383 0 l 1,3,-1
 173 0 l 1,4,-1
 173 68 l 1,5,-1
 236 68 l 1,6,-1
 236 217 l 1,7,-1
 76 217 l 1,8,-1
 76 281 l 1,9,-1
 237 281 l 1,10,-1
 237 370 l 1,11,-1
 76 370 l 1,12,-1
 76 435 l 1,13,-1
 201 435 l 1,14,-1
 70 682 l 1,15,-1
 25 682 l 1,16,-1
 25 750 l 1,17,-1
 187 750 l 1,18,-1
 187 682 l 1,19,-1
 151 682 l 1,20,-1
 278 438 l 1,21,-1
 408 682 l 1,22,-1
 372 682 l 1,23,-1
 372 750 l 1,24,-1
 531 750 l 1,25,-1
 531 682 l 1,26,-1
 493 682 l 1,27,-1
 355 435 l 1,28,-1
 480 435 l 1,29,-1
 480 369 l 1,30,-1
 318 369 l 1,31,-1
 318 281 l 1,32,-1
 480 281 l 1,33,-1
 480 217 l 1,34,-1
 318 217 l 1,0,-1
EndSplineSet
EndChar

StartChar: brokenbar
Encoding: 166 166 103
Width: 259
Flags: W
LayerCount: 2
Fore
SplineSet
169 750 m 1,0,-1
 169 389 l 1,1,-1
 100 389 l 1,2,-1
 100 750 l 1,3,-1
 169 750 l 1,0,-1
169 212 m 1,4,-1
 169 -150 l 1,5,-1
 100 -150 l 1,6,-1
 100 212 l 1,7,-1
 169 212 l 1,4,-1
EndSplineSet
EndChar

StartChar: section
Encoding: 167 167 104
Width: 562
Flags: W
LayerCount: 2
Fore
SplineSet
502 333 m 2,0,1
 502 271 502 271 494 252 c 0,2,3
 478 217 478 217 433 215 c 1,4,5
 484 213 484 213 488 146 c 0,6,7
 489 127 489 127 489 108 c 2,8,-1
 489 46 l 2,9,10
 489 -35 489 -35 456 -56 c 1,11,12
 438 -66 438 -66 412 -68 c 128,-1,13
 386 -70 386 -70 350 -70 c 2,14,-1
 211 -70 l 2,15,16
 122 -70 122 -70 97 -47 c 0,17,18
 83 -34 83 -34 79.5 -12 c 128,-1,19
 76 10 76 10 76 43 c 2,20,-1
 76 109 l 1,21,-1
 149 109 l 1,22,-1
 149 0 l 1,23,-1
 410 0 l 1,24,-1
 410 178 l 1,25,-1
 194 178 l 2,26,27
 109 178 109 178 86 198 c 0,28,29
 60 220 60 220 60 302 c 2,30,-1
 60 422 l 2,31,32
 60 484 60 484 68 503 c 128,-1,33
 76 522 76 522 90 530.5 c 128,-1,34
 104 539 104 539 129 540 c 1,35,36
 80 540 80 540 74 586 c 0,37,38
 73 600 73 600 73 615 c 2,39,-1
 73 704 l 2,40,41
 73 785 73 785 106 806 c 1,42,43
 124 816 124 816 150 818 c 128,-1,44
 176 820 176 820 212 820 c 2,45,-1
 351 820 l 2,46,47
 440 820 440 820 465 797 c 0,48,49
 479 784 479 784 482.5 762 c 128,-1,50
 486 740 486 740 486 707 c 2,51,-1
 486 641 l 1,52,-1
 413 641 l 1,53,-1
 413 750 l 1,54,-1
 152 750 l 1,55,-1
 152 574 l 1,56,-1
 368 574 l 2,57,58
 453 574 453 574 476 554 c 0,59,60
 502 532 502 532 502 450 c 2,61,-1
 502 333 l 2,0,1
423 500 m 1,62,-1
 141 500 l 1,63,-1
 141 252 l 1,64,-1
 423 252 l 1,65,-1
 423 500 l 1,62,-1
EndSplineSet
EndChar

StartChar: dieresis
Encoding: 168 168 105
Width: 235
Flags: W
LayerCount: 2
Fore
SplineSet
74.5 632.5 m 128,-1,1
 87 619 87 619 87 601 c 128,-1,2
 87 583 87 583 74.5 570.5 c 128,-1,3
 62 558 62 558 44 558 c 128,-1,4
 26 558 26 558 13.5 570.5 c 128,-1,5
 1 583 1 583 1 601 c 128,-1,6
 1 619 1 619 14 632.5 c 128,-1,7
 27 646 27 646 44.5 646 c 128,-1,0
 62 646 62 646 74.5 632.5 c 128,-1,1
222.5 632.5 m 128,-1,9
 235 619 235 619 235 601 c 128,-1,10
 235 583 235 583 222.5 570.5 c 128,-1,11
 210 558 210 558 192 558 c 128,-1,12
 174 558 174 558 161.5 570.5 c 128,-1,13
 149 583 149 583 149 601 c 128,-1,14
 149 619 149 619 162 632.5 c 128,-1,15
 175 646 175 646 192.5 646 c 128,-1,8
 210 646 210 646 222.5 632.5 c 128,-1,9
EndSplineSet
EndChar

StartChar: copyright
Encoding: 169 169 106
Width: 886
Flags: W
LayerCount: 2
Fore
SplineSet
795.5 522.5 m 128,-1,1
 826 452 826 452 826 372.5 c 128,-1,2
 826 293 826 293 795.5 223 c 128,-1,3
 765 153 765 153 713 101 c 128,-1,4
 661 49 661 49 590.5 19 c 128,-1,5
 520 -11 520 -11 440.5 -11 c 128,-1,6
 361 -11 361 -11 291 19 c 128,-1,7
 221 49 221 49 168.5 101 c 128,-1,8
 116 153 116 153 85.5 223 c 128,-1,9
 55 293 55 293 55 372.5 c 128,-1,10
 55 452 55 452 85.5 522.5 c 128,-1,11
 116 593 116 593 168.5 645.5 c 128,-1,12
 221 698 221 698 291.5 728.5 c 128,-1,13
 362 759 362 759 441.5 759 c 128,-1,14
 521 759 521 759 591 728.5 c 128,-1,15
 661 698 661 698 713 645.5 c 128,-1,0
 765 593 765 593 795.5 522.5 c 128,-1,1
733 248.5 m 128,-1,17
 758 306 758 306 758 371.5 c 128,-1,18
 758 437 758 437 733 495 c 128,-1,19
 708 553 708 553 665 596.5 c 128,-1,20
 622 640 622 640 564.5 665.5 c 128,-1,21
 507 691 507 691 441 691 c 256,22,23
 375 691 375 691 316.5 666 c 128,-1,24
 258 641 258 641 214 598 c 1,25,26
 121 504 121 504 121 373 c 256,27,28
 121 242 121 242 214 148 c 1,29,30
 258 105 258 105 316.5 80 c 128,-1,31
 375 55 375 55 441 55 c 0,32,33
 572 55 572 55 665 148 c 0,34,16
 708 191 708 191 733 248.5 c 128,-1,17
582 134 m 1,35,-1
 346 134 l 2,36,37
 279 134 279 134 268 185 c 0,38,39
 264 200 264 200 264 217 c 2,40,-1
 264 523 l 2,41,42
 264 563 264 563 286.5 585 c 128,-1,43
 309 607 309 607 354 607 c 2,44,-1
 582 607 l 1,45,-1
 582 487 l 1,46,-1
 517 487 l 1,47,-1
 517 542 l 1,48,-1
 340 542 l 1,49,-1
 340 198 l 1,50,-1
 517 198 l 1,51,-1
 517 253 l 1,52,-1
 582 253 l 1,53,-1
 582 134 l 1,35,-1
EndSplineSet
EndChar

StartChar: ordfeminine
Encoding: 170 170 107
Width: 338
Flags: W
LayerCount: 2
Fore
SplineSet
208 750 m 2,0,1
 273 750 273 750 273 689 c 2,2,-1
 273 476 l 1,3,-1
 328 476 l 1,4,-1
 328 420 l 1,5,-1
 83 420 l 2,6,7
 46 420 46 420 34 434 c 128,-1,8
 22 448 22 448 22 483 c 2,9,-1
 22 506 l 2,10,11
 22 530 22 530 32.5 543 c 128,-1,12
 43 556 43 556 69 573 c 2,13,-1
 208 659 l 1,14,-1
 208 694 l 1,15,-1
 89 694 l 1,16,-1
 89 647 l 1,17,-1
 36 647 l 1,18,-1
 36 750 l 1,19,-1
 208 750 l 2,0,1
208 594 m 1,20,-1
 86 519 l 1,21,-1
 86 476 l 1,22,-1
 208 476 l 1,23,-1
 208 594 l 1,20,-1
EndSplineSet
EndChar

StartChar: guillemotleft
Encoding: 171 171 108
Width: 443
Flags: W
LayerCount: 2
Fore
SplineSet
241 114 m 1,0,-1
 186 73 l 1,1,-1
 30 270 l 1,2,-1
 184 482 l 1,3,-1
 241 442 l 1,4,-1
 114 270 l 1,5,-1
 241 114 l 1,0,-1
433 114 m 1,6,-1
 378 73 l 1,7,-1
 222 270 l 1,8,-1
 376 482 l 1,9,-1
 433 442 l 1,10,-1
 306 270 l 1,11,-1
 433 114 l 1,6,-1
EndSplineSet
EndChar

StartChar: logicalnot
Encoding: 172 172 109
Width: 649
Flags: W
LayerCount: 2
Fore
SplineSet
493 354 m 1,0,-1
 43 354 l 1,1,-1
 43 421 l 1,2,-1
 566 421 l 1,3,-1
 566 83 l 1,4,-1
 493 83 l 1,5,-1
 493 354 l 1,0,-1
EndSplineSet
EndChar

StartChar: uni00AD
Encoding: 173 173 110
Width: 376
Flags: W
LayerCount: 2
Fore
SplineSet
52 238 m 1,0,-1
 52 301 l 1,1,-1
 325 301 l 1,2,-1
 325 238 l 1,3,-1
 52 238 l 1,0,-1
EndSplineSet
EndChar

StartChar: registered
Encoding: 174 174 111
Width: 899
Flags: W
LayerCount: 2
Fore
SplineSet
795.5 522.5 m 128,-1,1
 826 452 826 452 826 372.5 c 128,-1,2
 826 293 826 293 795.5 223 c 128,-1,3
 765 153 765 153 713 101 c 128,-1,4
 661 49 661 49 590.5 19 c 128,-1,5
 520 -11 520 -11 440.5 -11 c 128,-1,6
 361 -11 361 -11 291 19 c 128,-1,7
 221 49 221 49 168.5 101 c 128,-1,8
 116 153 116 153 85.5 223 c 128,-1,9
 55 293 55 293 55 372.5 c 128,-1,10
 55 452 55 452 85.5 522.5 c 128,-1,11
 116 593 116 593 168.5 645.5 c 128,-1,12
 221 698 221 698 291.5 728.5 c 128,-1,13
 362 759 362 759 441.5 759 c 128,-1,14
 521 759 521 759 591 728.5 c 128,-1,15
 661 698 661 698 713 645.5 c 128,-1,0
 765 593 765 593 795.5 522.5 c 128,-1,1
733 248.5 m 128,-1,17
 758 306 758 306 758 371.5 c 128,-1,18
 758 437 758 437 733 495 c 128,-1,19
 708 553 708 553 665 596.5 c 128,-1,20
 622 640 622 640 564.5 665.5 c 128,-1,21
 507 691 507 691 441 691 c 256,22,23
 375 691 375 691 316.5 666 c 128,-1,24
 258 641 258 641 214 598 c 1,25,26
 121 504 121 504 121 373 c 256,27,28
 121 242 121 242 214 148 c 1,29,30
 258 105 258 105 316.5 80 c 128,-1,31
 375 55 375 55 441 55 c 0,32,33
 572 55 572 55 665 148 c 0,34,16
 708 191 708 191 733 248.5 c 128,-1,17
258 535 m 1,35,-1
 258 599 l 1,36,-1
 536 599 l 2,37,38
 570 599 570 599 595.5 583 c 128,-1,39
 621 567 621 567 621 529 c 2,40,-1
 621 476 l 2,41,42
 621 438 621 438 602 419.5 c 128,-1,43
 583 401 583 401 560 387 c 2,44,-1
 517 360 l 1,45,-1
 557 209 l 1,46,-1
 627 209 l 1,47,-1
 627 149 l 1,48,-1
 577 149 l 2,49,50
 538 149 538 149 517 168.5 c 128,-1,51
 496 188 496 188 485 229 c 2,52,-1
 460 322 l 1,53,-1
 385 276 l 1,54,-1
 385 209 l 1,55,-1
 435 209 l 1,56,-1
 435 149 l 1,57,-1
 258 149 l 1,58,-1
 258 209 l 1,59,-1
 314 209 l 1,60,-1
 314 535 l 1,61,-1
 258 535 l 1,35,-1
385 342 m 1,62,-1
 554 450 l 1,63,-1
 554 535 l 1,64,-1
 385 535 l 1,65,-1
 385 342 l 1,62,-1
EndSplineSet
EndChar

StartChar: macron
Encoding: 175 175 112
Width: 255
Flags: W
LayerCount: 2
Fore
SplineSet
0 638 m 1,0,-1
 255 638 l 1,1,-1
 255 575 l 1,2,-1
 0 575 l 1,3,-1
 0 638 l 1,0,-1
EndSplineSet
EndChar

StartChar: degree
Encoding: 176 176 113
Width: 376
Flags: W
LayerCount: 2
Fore
SplineSet
37 648 m 0,0,1
 37 713 37 713 82 756 c 0,2,3
 128 801 128 801 192 801 c 0,4,5
 254 801 254 801 299 756 c 128,-1,6
 344 711 344 711 344 647 c 0,7,8
 344 582 344 582 299 538 c 0,9,10
 253 494 253 494 191 494 c 0,11,12
 127 494 127 494 82 539 c 128,-1,13
 37 584 37 584 37 648 c 0,0,1
90 650 m 0,14,15
 90 629 90 629 98 610.5 c 128,-1,16
 106 592 106 592 120 578 c 0,17,18
 148 548 148 548 191 548 c 0,19,20
 232 548 232 548 261.5 577.5 c 128,-1,21
 291 607 291 607 291 648 c 0,22,23
 291 690 291 690 261.5 719.5 c 128,-1,24
 232 749 232 749 192 749 c 0,25,26
 149 749 149 749 119.5 719.5 c 128,-1,27
 90 690 90 690 90 650 c 0,14,15
EndSplineSet
EndChar

StartChar: plusminus
Encoding: 177 177 114
Width: 604
Flags: W
LayerCount: 2
Fore
SplineSet
524 486 m 1,0,-1
 524 420 l 1,1,-1
 337 420 l 1,2,-1
 337 253 l 1,3,-1
 267 253 l 1,4,-1
 267 420 l 1,5,-1
 80 420 l 1,6,-1
 80 486 l 1,7,-1
 267 486 l 1,8,-1
 267 656 l 1,9,-1
 337 656 l 1,10,-1
 337 486 l 1,11,-1
 524 486 l 1,0,-1
80 187 m 1,12,-1
 524 187 l 1,13,-1
 524 121 l 1,14,-1
 80 121 l 1,15,-1
 80 187 l 1,12,-1
EndSplineSet
EndChar

StartChar: twosuperior
Encoding: 178 178 115
Width: 291
Flags: W
LayerCount: 2
Fore
SplineSet
44 500 m 2,0,1
 44 538 44 538 72 556 c 1,2,-1
 205 629 l 1,3,-1
 205 707 l 1,4,-1
 95 707 l 1,5,-1
 95 655 l 1,6,-1
 45 655 l 1,7,-1
 45 750 l 1,8,-1
 189 750 l 2,9,10
 227 750 227 750 242.5 738 c 128,-1,11
 258 726 258 726 258 694 c 2,12,-1
 258 643 l 2,13,14
 258 610 258 610 227 593 c 128,-1,15
 196 576 196 576 162.5 556.5 c 128,-1,16
 129 537 129 537 94 517 c 1,17,-1
 94 462 l 1,18,-1
 205 462 l 1,19,-1
 205 501 l 1,20,-1
 258 501 l 1,21,-1
 258 420 l 1,22,-1
 44 420 l 1,23,-1
 44 500 l 2,0,1
EndSplineSet
EndChar

StartChar: threesuperior
Encoding: 179 179 116
Width: 296
Flags: W
LayerCount: 2
Fore
SplineSet
258 711 m 1,0,-1
 151 617 l 1,1,-1
 195 617 l 2,2,3
 230 617 230 617 243.5 604 c 128,-1,4
 257 591 257 591 257 560 c 2,5,-1
 257 484 l 2,6,7
 257 449 257 449 247 439 c 0,8,9
 229 420 229 420 184 420 c 2,10,-1
 110 420 l 2,11,12
 51 420 51 420 46 460 c 0,13,14
 44 471 44 471 44 485 c 2,15,-1
 44 515 l 1,16,-1
 93 515 l 1,17,-1
 93 459 l 1,18,-1
 204 459 l 1,19,-1
 204 575 l 1,20,-1
 79 575 l 1,21,-1
 79 613 l 1,22,-1
 188 707 l 1,23,-1
 93 707 l 1,24,-1
 93 677 l 1,25,-1
 44 677 l 1,26,-1
 44 750 l 1,27,-1
 258 750 l 1,28,-1
 258 711 l 1,0,-1
EndSplineSet
EndChar

StartChar: acute
Encoding: 180 180 117
Width: 182
Flags: W
LayerCount: 2
Fore
SplineSet
108 682 m 1,0,-1
 179 682 l 1,1,-1
 74 559 l 1,2,-1
 1 559 l 1,3,-1
 108 682 l 1,0,-1
EndSplineSet
EndChar

StartChar: paragraph
Encoding: 182 182 118
Width: 542
Flags: W
LayerCount: 2
Fore
SplineSet
26 591 m 0,0,1
 26 751 26 751 233 751 c 2,2,-1
 474 751 l 1,3,-1
 474 -101 l 1,4,-1
 406 -101 l 1,5,-1
 406 700 l 1,6,-1
 290 700 l 1,7,-1
 290 -101 l 1,8,-1
 221 -101 l 1,9,-1
 222 434 l 1,10,11
 134 434 134 434 80 478 c 0,12,13
 26 521 26 521 26 591 c 0,0,1
EndSplineSet
EndChar

StartChar: periodcentered
Encoding: 183 183 119
Width: 221
Flags: W
LayerCount: 2
Fore
SplineSet
146.5 300 m 128,-1,1
 161 284 161 284 161 263 c 128,-1,2
 161 242 161 242 146.5 227.5 c 128,-1,3
 132 213 132 213 111 213 c 128,-1,4
 90 213 90 213 75 227.5 c 128,-1,5
 60 242 60 242 60 263 c 128,-1,6
 60 284 60 284 75.5 300 c 128,-1,7
 91 316 91 316 111.5 316 c 128,-1,0
 132 316 132 316 146.5 300 c 128,-1,1
EndSplineSet
EndChar

StartChar: cedilla
Encoding: 184 184 120
Width: 170
Flags: W
LayerCount: 2
Fore
SplineSet
0 2 m 1,0,-1
 59 2 l 1,1,-1
 59 -42 l 1,2,-1
 96 -42 l 2,3,4
 134 -42 134 -42 152 -61 c 128,-1,5
 170 -80 170 -80 170 -112 c 2,6,-1
 170 -149 l 2,7,8
 170 -177 170 -177 157 -197 c 128,-1,9
 144 -217 144 -217 102 -217 c 2,10,-1
 0 -217 l 1,11,-1
 0 -164 l 1,12,-1
 108 -164 l 1,13,-1
 108 -97 l 1,14,-1
 0 -97 l 1,15,-1
 0 2 l 1,0,-1
EndSplineSet
EndChar

StartChar: onesuperior
Encoding: 185 185 121
Width: 170
Flags: W
LayerCount: 2
Fore
SplineSet
70 750 m 2,0,1
 115 750 115 750 115 709 c 2,2,-1
 115 466 l 1,3,-1
 158 466 l 1,4,-1
 158 420 l 1,5,-1
 16 420 l 1,6,-1
 16 466 l 1,7,-1
 62 466 l 1,8,-1
 62 703 l 1,9,-1
 4 703 l 1,10,-1
 4 750 l 1,11,-1
 70 750 l 2,0,1
EndSplineSet
EndChar

StartChar: ordmasculine
Encoding: 186 186 122
Width: 308
Flags: W
LayerCount: 2
Fore
SplineSet
173 750 m 2,0,1
 252 750 252 750 271 724 c 0,2,3
 282 710 282 710 285 685 c 128,-1,4
 288 660 288 660 288 622 c 2,5,-1
 288 543 l 2,6,7
 288 507 288 507 286 483.5 c 128,-1,8
 284 460 284 460 274 445.5 c 128,-1,9
 264 431 264 431 243 425.5 c 128,-1,10
 222 420 222 420 183 420 c 2,11,-1
 133 420 l 2,12,13
 64 420 64 420 43 442 c 0,14,15
 23 462 23 462 23 535 c 2,16,-1
 23 638 l 2,17,18
 23 704 23 704 43.5 727 c 128,-1,19
 64 750 64 750 127 750 c 2,20,-1
 173 750 l 2,0,1
238 705 m 1,21,-1
 73 705 l 1,22,-1
 73 465 l 1,23,-1
 238 465 l 1,24,-1
 238 705 l 1,21,-1
EndSplineSet
EndChar

StartChar: guillemotright
Encoding: 187 187 123
Width: 443
Flags: W
LayerCount: 2
Fore
SplineSet
202 441 m 1,0,-1
 257 482 l 1,1,-1
 413 285 l 1,2,-1
 259 73 l 1,3,-1
 202 113 l 1,4,-1
 329 285 l 1,5,-1
 202 441 l 1,0,-1
10 441 m 1,6,-1
 65 482 l 1,7,-1
 221 285 l 1,8,-1
 67 73 l 1,9,-1
 10 113 l 1,10,-1
 137 285 l 1,11,-1
 10 441 l 1,6,-1
EndSplineSet
EndChar

StartChar: questiondown
Encoding: 191 191 124
Width: 481
Flags: W
LayerCount: 2
Fore
SplineSet
20 296 m 2,0,1
 20 398 20 398 114 398 c 2,2,-1
 243 398 l 1,3,-1
 243 552 l 1,4,-1
 323 552 l 1,5,-1
 323 417 l 2,6,7
 323 370 323 370 300 349.5 c 128,-1,8
 277 329 277 329 228 329 c 2,9,-1
 106 329 l 1,10,-1
 106 64 l 1,11,-1
 328 64 l 1,12,-1
 328 178 l 1,13,-1
 401 178 l 1,14,-1
 401 -4 l 1,15,-1
 132 -4 l 2,16,17
 77 -4 77 -4 48.5 18 c 128,-1,18
 20 40 20 40 20 103 c 2,19,-1
 20 296 l 2,0,1
283 647 m 256,20,21
 262 647 262 647 247 663 c 128,-1,22
 232 679 232 679 232 700 c 128,-1,23
 232 721 232 721 247 735.5 c 128,-1,24
 262 750 262 750 283 750 c 128,-1,25
 304 750 304 750 319 735.5 c 128,-1,26
 334 721 334 721 334 700 c 128,-1,27
 334 679 334 679 319 663 c 128,-1,28
 304 647 304 647 283 647 c 256,20,21
EndSplineSet
EndChar

StartChar: Agrave
Encoding: 192 192 125
Width: 641
Flags: W
LayerCount: 2
Fore
SplineSet
409 330 m 1,0,-1
 320 682 l 1,1,-1
 231 330 l 1,2,-1
 409 330 l 1,0,-1
616 68 m 1,3,-1
 616 0 l 1,4,-1
 421 0 l 1,5,-1
 421 68 l 1,6,-1
 475 68 l 1,7,-1
 425 267 l 1,8,-1
 215 267 l 1,9,-1
 165 68 l 1,10,-1
 220 68 l 1,11,-1
 220 0 l 1,12,-1
 25 0 l 1,13,-1
 25 68 l 1,14,-1
 88 68 l 1,15,-1
 262 750 l 1,16,-1
 380 750 l 1,17,-1
 551 68 l 1,18,-1
 616 68 l 1,3,-1
409 809 m 1,19,-1
 336 809 l 1,20,-1
 231 932 l 1,21,-1
 302 932 l 1,22,-1
 409 809 l 1,19,-1
EndSplineSet
EndChar

StartChar: Aacute
Encoding: 193 193 126
Width: 641
Flags: W
LayerCount: 2
Fore
SplineSet
231 330 m 1,0,-1
 320 682 l 1,1,-1
 409 330 l 1,2,-1
 231 330 l 1,0,-1
551 68 m 1,3,-1
 380 750 l 1,4,-1
 262 750 l 1,5,-1
 88 68 l 1,6,-1
 25 68 l 1,7,-1
 25 0 l 1,8,-1
 220 0 l 1,9,-1
 220 68 l 1,10,-1
 165 68 l 1,11,-1
 215 267 l 1,12,-1
 425 267 l 1,13,-1
 475 68 l 1,14,-1
 421 68 l 1,15,-1
 421 0 l 1,16,-1
 616 0 l 1,17,-1
 616 68 l 1,18,-1
 551 68 l 1,3,-1
338 932 m 1,19,-1
 409 932 l 1,20,-1
 304 809 l 1,21,-1
 231 809 l 1,22,-1
 338 932 l 1,19,-1
EndSplineSet
EndChar

StartChar: Acircumflex
Encoding: 194 194 127
Width: 641
Flags: W
LayerCount: 2
Fore
SplineSet
409 330 m 1,0,-1
 320 682 l 1,1,-1
 231 330 l 1,2,-1
 409 330 l 1,0,-1
616 68 m 1,3,-1
 616 0 l 1,4,-1
 421 0 l 1,5,-1
 421 68 l 1,6,-1
 475 68 l 1,7,-1
 425 267 l 1,8,-1
 215 267 l 1,9,-1
 165 68 l 1,10,-1
 220 68 l 1,11,-1
 220 0 l 1,12,-1
 25 0 l 1,13,-1
 25 68 l 1,14,-1
 88 68 l 1,15,-1
 262 750 l 1,16,-1
 380 750 l 1,17,-1
 551 68 l 1,18,-1
 616 68 l 1,3,-1
463 809 m 1,19,-1
 390 809 l 1,20,-1
 321 889 l 1,21,-1
 251 809 l 1,22,-1
 177 809 l 1,23,-1
 289 932 l 1,24,-1
 356 932 l 1,25,-1
 463 809 l 1,19,-1
EndSplineSet
EndChar

StartChar: Atilde
Encoding: 195 195 128
Width: 641
Flags: W
LayerCount: 2
Fore
SplineSet
409 330 m 1,0,-1
 320 682 l 1,1,-1
 231 330 l 1,2,-1
 409 330 l 1,0,-1
616 68 m 1,3,-1
 616 0 l 1,4,-1
 421 0 l 1,5,-1
 421 68 l 1,6,-1
 475 68 l 1,7,-1
 425 267 l 1,8,-1
 215 267 l 1,9,-1
 165 68 l 1,10,-1
 220 68 l 1,11,-1
 220 0 l 1,12,-1
 25 0 l 1,13,-1
 25 68 l 1,14,-1
 88 68 l 1,15,-1
 262 750 l 1,16,-1
 380 750 l 1,17,-1
 551 68 l 1,18,-1
 616 68 l 1,3,-1
485 888 m 1,19,20
 477 865 477 865 457 846 c 1,21,22
 417 811 417 811 385 811 c 0,23,24
 361 811 361 811 329.5 829.5 c 128,-1,25
 298 848 298 848 281.5 856.5 c 128,-1,26
 265 865 265 865 248.5 865 c 128,-1,27
 232 865 232 865 221 855 c 128,-1,28
 210 845 210 845 196 816 c 1,29,-1
 155 846 l 1,30,31
 162 868 162 868 182 886 c 1,32,33
 219 922 219 922 243 922 c 128,-1,34
 267 922 267 922 287.5 913.5 c 128,-1,35
 308 905 308 905 326.5 894.5 c 128,-1,36
 345 884 345 884 360 875.5 c 128,-1,37
 375 867 375 867 389.5 867 c 128,-1,38
 404 867 404 867 421.5 882 c 128,-1,39
 439 897 439 897 447 916 c 1,40,-1
 485 888 l 1,19,20
EndSplineSet
EndChar

StartChar: Adieresis
Encoding: 196 196 129
Width: 641
Flags: W
LayerCount: 2
Fore
SplineSet
409 330 m 1,0,-1
 320 682 l 1,1,-1
 231 330 l 1,2,-1
 409 330 l 1,0,-1
616 68 m 1,3,-1
 616 0 l 1,4,-1
 421 0 l 1,5,-1
 421 68 l 1,6,-1
 475 68 l 1,7,-1
 425 267 l 1,8,-1
 215 267 l 1,9,-1
 165 68 l 1,10,-1
 220 68 l 1,11,-1
 220 0 l 1,12,-1
 25 0 l 1,13,-1
 25 68 l 1,14,-1
 88 68 l 1,15,-1
 262 750 l 1,16,-1
 380 750 l 1,17,-1
 551 68 l 1,18,-1
 616 68 l 1,3,-1
276.5 882.5 m 128,-1,20
 289 869 289 869 289 851 c 128,-1,21
 289 833 289 833 276.5 820.5 c 128,-1,22
 264 808 264 808 246 808 c 128,-1,23
 228 808 228 808 215.5 820.5 c 128,-1,24
 203 833 203 833 203 851 c 128,-1,25
 203 869 203 869 216 882.5 c 128,-1,26
 229 896 229 896 246.5 896 c 128,-1,19
 264 896 264 896 276.5 882.5 c 128,-1,20
424.5 882.5 m 128,-1,28
 437 869 437 869 437 851 c 128,-1,29
 437 833 437 833 424.5 820.5 c 128,-1,30
 412 808 412 808 394 808 c 128,-1,31
 376 808 376 808 363.5 820.5 c 128,-1,32
 351 833 351 833 351 851 c 128,-1,33
 351 869 351 869 364 882.5 c 128,-1,34
 377 896 377 896 394.5 896 c 128,-1,27
 412 896 412 896 424.5 882.5 c 128,-1,28
EndSplineSet
EndChar

StartChar: Aring
Encoding: 197 197 130
Width: 641
Flags: W
LayerCount: 2
Fore
SplineSet
409 330 m 1,0,-1
 320 682 l 1,1,-1
 231 330 l 1,2,-1
 409 330 l 1,0,-1
616 68 m 1,3,-1
 616 0 l 1,4,-1
 421 0 l 1,5,-1
 421 68 l 1,6,-1
 475 68 l 1,7,-1
 425 267 l 1,8,-1
 215 267 l 1,9,-1
 165 68 l 1,10,-1
 220 68 l 1,11,-1
 220 0 l 1,12,-1
 25 0 l 1,13,-1
 25 68 l 1,14,-1
 88 68 l 1,15,-1
 262 750 l 1,16,-1
 380 750 l 1,17,-1
 551 68 l 1,18,-1
 616 68 l 1,3,-1
257 936 m 128,-1,20
 283 962 283 962 321 962 c 0,21,22
 357 962 357 962 383 936 c 128,-1,23
 409 910 409 910 409 873 c 128,-1,24
 409 836 409 836 383 810 c 128,-1,25
 357 784 357 784 320 784 c 0,26,27
 282 784 282 784 257 810 c 0,28,29
 231 838 231 838 231 874 c 128,-1,19
 231 910 231 910 257 936 c 128,-1,20
280 874 m 256,30,31
 280 857 280 857 291.5 845 c 128,-1,32
 303 833 303 833 320 833 c 256,33,34
 337 833 337 833 349 845 c 128,-1,35
 361 857 361 857 361 873.5 c 128,-1,36
 361 890 361 890 349 902 c 128,-1,37
 337 914 337 914 320.5 914 c 128,-1,38
 304 914 304 914 292 902.5 c 128,-1,39
 280 891 280 891 280 874 c 256,30,31
EndSplineSet
EndChar

StartChar: AE
Encoding: 198 198 131
Width: 856
Flags: W
LayerCount: 2
Fore
SplineSet
711 68 m 1,0,-1
 711 185 l 1,1,-1
 779 185 l 1,2,-1
 779 0 l 1,3,-1
 387 0 l 1,4,-1
 387 70 l 1,5,-1
 450 70 l 1,6,-1
 450 353 l 1,7,-1
 278 353 l 1,8,-1
 178 68 l 1,9,-1
 238 68 l 1,10,-1
 238 0 l 1,11,-1
 44 0 l 1,12,-1
 44 68 l 1,13,-1
 102 68 l 1,14,-1
 320 682 l 1,15,-1
 241 682 l 1,16,-1
 241 750 l 1,17,-1
 779 750 l 1,18,-1
 779 565 l 1,19,-1
 711 565 l 1,20,-1
 711 682 l 1,21,-1
 532 682 l 1,22,-1
 532 420 l 1,23,-1
 700 420 l 1,24,-1
 700 353 l 1,25,-1
 532 353 l 1,26,-1
 532 69 l 1,27,-1
 711 68 l 1,0,-1
302 420 m 1,28,-1
 450 420 l 1,29,-1
 450 682 l 1,30,-1
 395 682 l 1,31,-1
 302 420 l 1,28,-1
EndSplineSet
EndChar

StartChar: Ccedilla
Encoding: 199 199 132
Width: 525
Flags: W
LayerCount: 2
Fore
SplineSet
177 0 m 1,0,-1
 168 0 l 2,1,2
 84 0 84 0 66 66 c 0,3,4
 60 85 60 85 60 107 c 2,5,-1
 60 642 l 2,6,7
 60 715 60 715 111 740 c 0,8,9
 130 750 130 750 158 750 c 2,10,-1
 475 750 l 1,11,-1
 475 565 l 1,12,-1
 407 565 l 1,13,-1
 407 682 l 1,14,-1
 142 682 l 1,15,-1
 142 68 l 1,16,-1
 407 68 l 1,17,-1
 407 185 l 1,18,-1
 475 185 l 1,19,-1
 475 0 l 1,20,-1
 236 0 l 1,21,-1
 236 -42 l 1,22,-1
 273 -42 l 2,23,24
 311 -42 311 -42 329 -61 c 128,-1,25
 347 -80 347 -80 347 -112 c 2,26,-1
 347 -149 l 2,27,28
 347 -177 347 -177 334 -197 c 128,-1,29
 321 -217 321 -217 279 -217 c 2,30,-1
 177 -217 l 1,31,-1
 177 -164 l 1,32,-1
 285 -164 l 1,33,-1
 285 -97 l 1,34,-1
 177 -97 l 1,35,-1
 177 0 l 1,0,-1
EndSplineSet
EndChar

StartChar: Egrave
Encoding: 200 200 133
Width: 584
Flags: W
LayerCount: 2
Fore
SplineSet
419 493 m 1,0,-1
 419 283 l 1,1,-1
 351 283 l 1,2,-1
 351 354 l 1,3,-1
 210 354 l 1,4,-1
 210 68 l 1,5,-1
 466 68 l 1,6,-1
 466 185 l 1,7,-1
 534 185 l 1,8,-1
 534 0 l 1,9,-1
 65 0 l 1,10,-1
 65 68 l 1,11,-1
 128 68 l 1,12,-1
 128 682 l 1,13,-1
 65 682 l 1,14,-1
 65 750 l 1,15,-1
 534 750 l 1,16,-1
 534 565 l 1,17,-1
 466 565 l 1,18,-1
 466 682 l 1,19,-1
 210 682 l 1,20,-1
 210 422 l 1,21,-1
 351 422 l 1,22,-1
 351 493 l 1,23,-1
 419 493 l 1,0,-1
381 809 m 1,24,-1
 308 809 l 1,25,-1
 203 932 l 1,26,-1
 274 932 l 1,27,-1
 381 809 l 1,24,-1
EndSplineSet
EndChar

StartChar: Eacute
Encoding: 201 201 134
Width: 584
Flags: W
LayerCount: 2
Fore
SplineSet
351 493 m 1,0,-1
 351 422 l 1,1,-1
 210 422 l 1,2,-1
 210 682 l 1,3,-1
 466 682 l 1,4,-1
 466 565 l 1,5,-1
 534 565 l 1,6,-1
 534 750 l 1,7,-1
 65 750 l 1,8,-1
 65 682 l 1,9,-1
 128 682 l 1,10,-1
 128 68 l 1,11,-1
 65 68 l 1,12,-1
 65 0 l 1,13,-1
 534 0 l 1,14,-1
 534 185 l 1,15,-1
 466 185 l 1,16,-1
 466 68 l 1,17,-1
 210 68 l 1,18,-1
 210 354 l 1,19,-1
 351 354 l 1,20,-1
 351 283 l 1,21,-1
 419 283 l 1,22,-1
 419 493 l 1,23,-1
 351 493 l 1,0,-1
310 932 m 1,24,-1
 381 932 l 1,25,-1
 276 809 l 1,26,-1
 203 809 l 1,27,-1
 310 932 l 1,24,-1
EndSplineSet
EndChar

StartChar: Ecircumflex
Encoding: 202 202 135
Width: 584
Flags: W
LayerCount: 2
Fore
SplineSet
419 493 m 1,0,-1
 419 283 l 1,1,-1
 351 283 l 1,2,-1
 351 354 l 1,3,-1
 210 354 l 1,4,-1
 210 68 l 1,5,-1
 466 68 l 1,6,-1
 466 185 l 1,7,-1
 534 185 l 1,8,-1
 534 0 l 1,9,-1
 65 0 l 1,10,-1
 65 68 l 1,11,-1
 128 68 l 1,12,-1
 128 682 l 1,13,-1
 65 682 l 1,14,-1
 65 750 l 1,15,-1
 534 750 l 1,16,-1
 534 565 l 1,17,-1
 466 565 l 1,18,-1
 466 682 l 1,19,-1
 210 682 l 1,20,-1
 210 422 l 1,21,-1
 351 422 l 1,22,-1
 351 493 l 1,23,-1
 419 493 l 1,0,-1
435 809 m 1,24,-1
 362 809 l 1,25,-1
 293 889 l 1,26,-1
 223 809 l 1,27,-1
 149 809 l 1,28,-1
 261 932 l 1,29,-1
 328 932 l 1,30,-1
 435 809 l 1,24,-1
EndSplineSet
EndChar

StartChar: Edieresis
Encoding: 203 203 136
Width: 584
Flags: W
LayerCount: 2
Fore
SplineSet
419 493 m 1,0,-1
 419 283 l 1,1,-1
 351 283 l 1,2,-1
 351 354 l 1,3,-1
 210 354 l 1,4,-1
 210 68 l 1,5,-1
 466 68 l 1,6,-1
 466 185 l 1,7,-1
 534 185 l 1,8,-1
 534 0 l 1,9,-1
 65 0 l 1,10,-1
 65 68 l 1,11,-1
 128 68 l 1,12,-1
 128 682 l 1,13,-1
 65 682 l 1,14,-1
 65 750 l 1,15,-1
 534 750 l 1,16,-1
 534 565 l 1,17,-1
 466 565 l 1,18,-1
 466 682 l 1,19,-1
 210 682 l 1,20,-1
 210 422 l 1,21,-1
 351 422 l 1,22,-1
 351 493 l 1,23,-1
 419 493 l 1,0,-1
248.5 882.5 m 128,-1,25
 261 869 261 869 261 851 c 128,-1,26
 261 833 261 833 248.5 820.5 c 128,-1,27
 236 808 236 808 218 808 c 128,-1,28
 200 808 200 808 187.5 820.5 c 128,-1,29
 175 833 175 833 175 851 c 128,-1,30
 175 869 175 869 188 882.5 c 128,-1,31
 201 896 201 896 218.5 896 c 128,-1,24
 236 896 236 896 248.5 882.5 c 128,-1,25
396.5 882.5 m 128,-1,33
 409 869 409 869 409 851 c 128,-1,34
 409 833 409 833 396.5 820.5 c 128,-1,35
 384 808 384 808 366 808 c 128,-1,36
 348 808 348 808 335.5 820.5 c 128,-1,37
 323 833 323 833 323 851 c 128,-1,38
 323 869 323 869 336 882.5 c 128,-1,39
 349 896 349 896 366.5 896 c 128,-1,32
 384 896 384 896 396.5 882.5 c 128,-1,33
EndSplineSet
EndChar

StartChar: Igrave
Encoding: 204 204 137
Width: 370
Flags: W
LayerCount: 2
Fore
SplineSet
225 68 m 1,0,-1
 290 68 l 1,1,-1
 290 0 l 1,2,-1
 80 0 l 1,3,-1
 80 68 l 1,4,-1
 143 68 l 1,5,-1
 143 682 l 1,6,-1
 80 682 l 1,7,-1
 80 750 l 1,8,-1
 290 750 l 1,9,-1
 290 682 l 1,10,-1
 225 682 l 1,11,-1
 225 68 l 1,0,-1
274 809 m 1,12,-1
 201 809 l 1,13,-1
 96 932 l 1,14,-1
 167 932 l 1,15,-1
 274 809 l 1,12,-1
EndSplineSet
EndChar

StartChar: Iacute
Encoding: 205 205 138
Width: 370
Flags: W
LayerCount: 2
Fore
SplineSet
225 682 m 1,0,-1
 290 682 l 1,1,-1
 290 750 l 1,2,-1
 80 750 l 1,3,-1
 80 682 l 1,4,-1
 143 682 l 1,5,-1
 143 68 l 1,6,-1
 80 68 l 1,7,-1
 80 0 l 1,8,-1
 290 0 l 1,9,-1
 290 68 l 1,10,-1
 225 68 l 1,11,-1
 225 682 l 1,0,-1
203 932 m 1,12,-1
 274 932 l 1,13,-1
 169 809 l 1,14,-1
 96 809 l 1,15,-1
 203 932 l 1,12,-1
EndSplineSet
EndChar

StartChar: Icircumflex
Encoding: 206 206 139
Width: 370
Flags: W
LayerCount: 2
Fore
SplineSet
225 68 m 1,0,-1
 290 68 l 1,1,-1
 290 0 l 1,2,-1
 80 0 l 1,3,-1
 80 68 l 1,4,-1
 143 68 l 1,5,-1
 143 682 l 1,6,-1
 80 682 l 1,7,-1
 80 750 l 1,8,-1
 290 750 l 1,9,-1
 290 682 l 1,10,-1
 225 682 l 1,11,-1
 225 68 l 1,0,-1
328 809 m 1,12,-1
 255 809 l 1,13,-1
 186 889 l 1,14,-1
 116 809 l 1,15,-1
 42 809 l 1,16,-1
 154 932 l 1,17,-1
 221 932 l 1,18,-1
 328 809 l 1,12,-1
EndSplineSet
EndChar

StartChar: Idieresis
Encoding: 207 207 140
Width: 370
Flags: W
LayerCount: 2
Fore
SplineSet
225 68 m 1,0,-1
 290 68 l 1,1,-1
 290 0 l 1,2,-1
 80 0 l 1,3,-1
 80 68 l 1,4,-1
 143 68 l 1,5,-1
 143 682 l 1,6,-1
 80 682 l 1,7,-1
 80 750 l 1,8,-1
 290 750 l 1,9,-1
 290 682 l 1,10,-1
 225 682 l 1,11,-1
 225 68 l 1,0,-1
141.5 882.5 m 128,-1,13
 154 869 154 869 154 851 c 128,-1,14
 154 833 154 833 141.5 820.5 c 128,-1,15
 129 808 129 808 111 808 c 128,-1,16
 93 808 93 808 80.5 820.5 c 128,-1,17
 68 833 68 833 68 851 c 128,-1,18
 68 869 68 869 81 882.5 c 128,-1,19
 94 896 94 896 111.5 896 c 128,-1,12
 129 896 129 896 141.5 882.5 c 128,-1,13
289.5 882.5 m 128,-1,21
 302 869 302 869 302 851 c 128,-1,22
 302 833 302 833 289.5 820.5 c 128,-1,23
 277 808 277 808 259 808 c 128,-1,24
 241 808 241 808 228.5 820.5 c 128,-1,25
 216 833 216 833 216 851 c 128,-1,26
 216 869 216 869 229 882.5 c 128,-1,27
 242 896 242 896 259.5 896 c 128,-1,20
 277 896 277 896 289.5 882.5 c 128,-1,21
EndSplineSet
EndChar

StartChar: Eth
Encoding: 208 208 141
Width: 604
Flags: W
LayerCount: 2
Fore
SplineSet
123 421 m 1,0,-1
 123 682 l 1,1,-1
 60 682 l 1,2,-1
 60 750 l 1,3,-1
 413 750 l 2,4,5
 487 750 487 750 515.5 717.5 c 128,-1,6
 544 685 544 685 544 619 c 2,7,-1
 544 131 l 2,8,9
 544 62 544 62 512 31 c 128,-1,10
 480 0 480 0 413 0 c 2,11,-1
 60 0 l 1,12,-1
 60 68 l 1,13,-1
 123 68 l 1,14,-1
 123 355 l 1,15,-1
 56 355 l 1,16,-1
 56 421 l 1,17,-1
 123 421 l 1,0,-1
462 682 m 1,18,-1
 205 682 l 1,19,-1
 205 421 l 1,20,-1
 347 421 l 1,21,-1
 347 355 l 1,22,-1
 205 355 l 1,23,-1
 205 68 l 1,24,-1
 462 68 l 1,25,-1
 462 682 l 1,18,-1
EndSplineSet
EndChar

StartChar: Ntilde
Encoding: 209 209 142
Width: 719
Flags: W
LayerCount: 2
Fore
SplineSet
654 682 m 1,0,-1
 591 682 l 1,1,-1
 591 0 l 1,2,-1
 493 0 l 1,3,-1
 210 584 l 1,4,-1
 210 68 l 1,5,-1
 275 68 l 1,6,-1
 275 0 l 1,7,-1
 65 0 l 1,8,-1
 65 68 l 1,9,-1
 128 68 l 1,10,-1
 128 682 l 1,11,-1
 65 682 l 1,12,-1
 65 750 l 1,13,-1
 219 750 l 1,14,-1
 509 154 l 1,15,-1
 509 682 l 1,16,-1
 444 682 l 1,17,-1
 444 750 l 1,18,-1
 654 750 l 1,19,-1
 654 682 l 1,0,-1
524 888 m 1,20,21
 516 865 516 865 496 846 c 1,22,23
 456 811 456 811 424 811 c 0,24,25
 400 811 400 811 368.5 829.5 c 128,-1,26
 337 848 337 848 320.5 856.5 c 128,-1,27
 304 865 304 865 287.5 865 c 128,-1,28
 271 865 271 865 260 855 c 128,-1,29
 249 845 249 845 235 816 c 1,30,-1
 194 846 l 1,31,32
 201 868 201 868 221 886 c 1,33,34
 258 922 258 922 282 922 c 128,-1,35
 306 922 306 922 326.5 913.5 c 128,-1,36
 347 905 347 905 365.5 894.5 c 128,-1,37
 384 884 384 884 399 875.5 c 128,-1,38
 414 867 414 867 428.5 867 c 128,-1,39
 443 867 443 867 460.5 882 c 128,-1,40
 478 897 478 897 486 916 c 1,41,-1
 524 888 l 1,20,21
EndSplineSet
EndChar

StartChar: Ograve
Encoding: 210 210 143
Width: 542
Flags: W
LayerCount: 2
Fore
SplineSet
366 750 m 2,0,1
 427 750 427 750 454.5 716.5 c 128,-1,2
 482 683 482 683 482 617 c 2,3,-1
 482 136 l 2,4,5
 482 64 482 64 458 32 c 128,-1,6
 434 0 434 0 371 0 c 2,7,-1
 179 0 l 2,8,9
 83 0 83 0 66 72 c 0,10,11
 60 94 60 94 60 121 c 2,12,-1
 60 617 l 2,13,14
 60 684 60 684 82 714 c 0,15,16
 107 750 107 750 171 750 c 2,17,-1
 366 750 l 2,0,1
140 68 m 1,18,-1
 402 68 l 1,19,-1
 402 682 l 1,20,-1
 140 682 l 1,21,-1
 140 68 l 1,18,-1
360 809 m 1,22,-1
 287 809 l 1,23,-1
 182 932 l 1,24,-1
 253 932 l 1,25,-1
 360 809 l 1,22,-1
EndSplineSet
EndChar

StartChar: Oacute
Encoding: 211 211 144
Width: 542
Flags: W
LayerCount: 2
Fore
SplineSet
171 750 m 2,0,1
 79 750 79 750 64 672 c 0,2,3
 60 648 60 648 60 617 c 2,4,-1
 60 121 l 2,5,6
 60 32 60 32 122 8 c 0,7,8
 144 0 144 0 179 0 c 2,9,-1
 371 0 l 2,10,11
 434 0 434 0 458 32 c 128,-1,12
 482 64 482 64 482 136 c 2,13,-1
 482 617 l 2,14,15
 482 683 482 683 454.5 716.5 c 128,-1,16
 427 750 427 750 366 750 c 2,17,-1
 171 750 l 2,0,1
140 682 m 1,18,-1
 402 682 l 1,19,-1
 402 68 l 1,20,-1
 140 68 l 1,21,-1
 140 682 l 1,18,-1
289 932 m 1,22,-1
 360 932 l 1,23,-1
 255 809 l 1,24,-1
 182 809 l 1,25,-1
 289 932 l 1,22,-1
EndSplineSet
EndChar

StartChar: Ocircumflex
Encoding: 212 212 145
Width: 542
Flags: W
LayerCount: 2
Fore
SplineSet
366 750 m 2,0,1
 427 750 427 750 454.5 716.5 c 128,-1,2
 482 683 482 683 482 617 c 2,3,-1
 482 136 l 2,4,5
 482 64 482 64 458 32 c 128,-1,6
 434 0 434 0 371 0 c 2,7,-1
 179 0 l 2,8,9
 83 0 83 0 66 72 c 0,10,11
 60 94 60 94 60 121 c 2,12,-1
 60 617 l 2,13,14
 60 684 60 684 82 714 c 0,15,16
 107 750 107 750 171 750 c 2,17,-1
 366 750 l 2,0,1
140 68 m 1,18,-1
 402 68 l 1,19,-1
 402 682 l 1,20,-1
 140 682 l 1,21,-1
 140 68 l 1,18,-1
414 809 m 1,22,-1
 341 809 l 1,23,-1
 272 889 l 1,24,-1
 202 809 l 1,25,-1
 128 809 l 1,26,-1
 240 932 l 1,27,-1
 307 932 l 1,28,-1
 414 809 l 1,22,-1
EndSplineSet
EndChar

StartChar: Otilde
Encoding: 213 213 146
Width: 542
Flags: W
LayerCount: 2
Fore
SplineSet
366 750 m 2,0,1
 427 750 427 750 454.5 716.5 c 128,-1,2
 482 683 482 683 482 617 c 2,3,-1
 482 136 l 2,4,5
 482 64 482 64 458 32 c 128,-1,6
 434 0 434 0 371 0 c 2,7,-1
 179 0 l 2,8,9
 83 0 83 0 66 72 c 0,10,11
 60 94 60 94 60 121 c 2,12,-1
 60 617 l 2,13,14
 60 684 60 684 82 714 c 0,15,16
 107 750 107 750 171 750 c 2,17,-1
 366 750 l 2,0,1
140 68 m 1,18,-1
 402 68 l 1,19,-1
 402 682 l 1,20,-1
 140 682 l 1,21,-1
 140 68 l 1,18,-1
436 888 m 1,22,23
 428 865 428 865 408 846 c 1,24,25
 368 811 368 811 336 811 c 0,26,27
 312 811 312 811 280.5 829.5 c 128,-1,28
 249 848 249 848 232.5 856.5 c 128,-1,29
 216 865 216 865 199.5 865 c 128,-1,30
 183 865 183 865 172 855 c 128,-1,31
 161 845 161 845 147 816 c 1,32,-1
 106 846 l 1,33,34
 113 868 113 868 133 886 c 1,35,36
 170 922 170 922 194 922 c 128,-1,37
 218 922 218 922 238.5 913.5 c 128,-1,38
 259 905 259 905 277.5 894.5 c 128,-1,39
 296 884 296 884 311 875.5 c 128,-1,40
 326 867 326 867 340.5 867 c 128,-1,41
 355 867 355 867 372.5 882 c 128,-1,42
 390 897 390 897 398 916 c 1,43,-1
 436 888 l 1,22,23
EndSplineSet
EndChar

StartChar: Odieresis
Encoding: 214 214 147
Width: 542
Flags: W
LayerCount: 2
Fore
SplineSet
366 750 m 2,0,1
 427 750 427 750 454.5 716.5 c 128,-1,2
 482 683 482 683 482 617 c 2,3,-1
 482 136 l 2,4,5
 482 64 482 64 458 32 c 128,-1,6
 434 0 434 0 371 0 c 2,7,-1
 179 0 l 2,8,9
 83 0 83 0 66 72 c 0,10,11
 60 94 60 94 60 121 c 2,12,-1
 60 617 l 2,13,14
 60 684 60 684 82 714 c 0,15,16
 107 750 107 750 171 750 c 2,17,-1
 366 750 l 2,0,1
140 68 m 1,18,-1
 402 68 l 1,19,-1
 402 682 l 1,20,-1
 140 682 l 1,21,-1
 140 68 l 1,18,-1
227.5 882.5 m 128,-1,23
 240 869 240 869 240 851 c 128,-1,24
 240 833 240 833 227.5 820.5 c 128,-1,25
 215 808 215 808 197 808 c 128,-1,26
 179 808 179 808 166.5 820.5 c 128,-1,27
 154 833 154 833 154 851 c 128,-1,28
 154 869 154 869 167 882.5 c 128,-1,29
 180 896 180 896 197.5 896 c 128,-1,22
 215 896 215 896 227.5 882.5 c 128,-1,23
375.5 882.5 m 128,-1,31
 388 869 388 869 388 851 c 128,-1,32
 388 833 388 833 375.5 820.5 c 128,-1,33
 363 808 363 808 345 808 c 128,-1,34
 327 808 327 808 314.5 820.5 c 128,-1,35
 302 833 302 833 302 851 c 128,-1,36
 302 869 302 869 315 882.5 c 128,-1,37
 328 896 328 896 345.5 896 c 128,-1,30
 363 896 363 896 375.5 882.5 c 128,-1,31
EndSplineSet
EndChar

StartChar: multiply
Encoding: 215 215 148
Width: 373
Flags: W
LayerCount: 2
Fore
SplineSet
366 254 m 1,0,-1
 320 208 l 1,1,-1
 187 340 l 1,2,-1
 54 207 l 1,3,-1
 5 256 l 1,4,-1
 138 389 l 1,5,-1
 6 521 l 1,6,-1
 52 568 l 1,7,-1
 185 436 l 1,8,-1
 318 570 l 1,9,-1
 368 520 l 1,10,-1
 234 386 l 1,11,-1
 366 254 l 1,0,-1
EndSplineSet
EndChar

StartChar: Oslash
Encoding: 216 216 149
Width: 542
Flags: W
LayerCount: 2
Fore
SplineSet
131 5 m 1,0,1
 90 16 90 16 75 46.5 c 128,-1,2
 60 77 60 77 60 121 c 2,3,-1
 60 617 l 2,4,5
 60 684 60 684 82 714 c 0,6,7
 107 750 107 750 171 750 c 2,8,-1
 343 750 l 1,9,-1
 362 817 l 1,10,-1
 429 817 l 1,11,-1
 408 744 l 1,12,13
 482 724 482 724 482 617 c 2,14,-1
 482 136 l 2,15,16
 482 64 482 64 458 32 c 128,-1,17
 434 0 434 0 371 0 c 2,18,-1
 197 0 l 1,19,-1
 176 -76 l 1,20,-1
 108 -76 l 1,21,-1
 131 5 l 1,0,1
391 682 m 1,22,-1
 217 68 l 1,23,-1
 402 68 l 1,24,-1
 402 682 l 1,25,-1
 391 682 l 1,22,-1
140 68 m 1,26,-1
 149 68 l 1,27,-1
 323 682 l 1,28,-1
 140 682 l 1,29,-1
 140 68 l 1,26,-1
EndSplineSet
EndChar

StartChar: Ugrave
Encoding: 217 217 150
Width: 682
Flags: W
LayerCount: 2
Fore
SplineSet
212 0 m 2,0,1
 123 0 123 0 123 99 c 2,2,-1
 123 682 l 1,3,-1
 60 682 l 1,4,-1
 60 750 l 1,5,-1
 270 750 l 1,6,-1
 270 682 l 1,7,-1
 205 682 l 1,8,-1
 205 68 l 1,9,-1
 477 68 l 1,10,-1
 477 682 l 1,11,-1
 412 682 l 1,12,-1
 412 750 l 1,13,-1
 622 750 l 1,14,-1
 622 682 l 1,15,-1
 559 682 l 1,16,-1
 559 104 l 2,17,18
 559 0 559 0 469 0 c 2,19,-1
 212 0 l 2,0,1
430 809 m 1,20,-1
 357 809 l 1,21,-1
 252 932 l 1,22,-1
 323 932 l 1,23,-1
 430 809 l 1,20,-1
EndSplineSet
EndChar

StartChar: Uacute
Encoding: 218 218 151
Width: 682
Flags: W
LayerCount: 2
Fore
SplineSet
469 0 m 2,0,1
 559 0 559 0 559 104 c 2,2,-1
 559 682 l 1,3,-1
 622 682 l 1,4,-1
 622 750 l 1,5,-1
 412 750 l 1,6,-1
 412 682 l 1,7,-1
 477 682 l 1,8,-1
 477 68 l 1,9,-1
 205 68 l 1,10,-1
 205 682 l 1,11,-1
 270 682 l 1,12,-1
 270 750 l 1,13,-1
 60 750 l 1,14,-1
 60 682 l 1,15,-1
 123 682 l 1,16,-1
 123 99 l 2,17,18
 123 0 123 0 212 0 c 2,19,-1
 469 0 l 2,0,1
359 932 m 1,20,-1
 430 932 l 1,21,-1
 325 809 l 1,22,-1
 252 809 l 1,23,-1
 359 932 l 1,20,-1
EndSplineSet
EndChar

StartChar: Ucircumflex
Encoding: 219 219 152
Width: 682
Flags: W
LayerCount: 2
Fore
SplineSet
212 0 m 2,0,1
 123 0 123 0 123 99 c 2,2,-1
 123 682 l 1,3,-1
 60 682 l 1,4,-1
 60 750 l 1,5,-1
 270 750 l 1,6,-1
 270 682 l 1,7,-1
 205 682 l 1,8,-1
 205 68 l 1,9,-1
 477 68 l 1,10,-1
 477 682 l 1,11,-1
 412 682 l 1,12,-1
 412 750 l 1,13,-1
 622 750 l 1,14,-1
 622 682 l 1,15,-1
 559 682 l 1,16,-1
 559 104 l 2,17,18
 559 0 559 0 469 0 c 2,19,-1
 212 0 l 2,0,1
484 809 m 1,20,-1
 411 809 l 1,21,-1
 342 889 l 1,22,-1
 272 809 l 1,23,-1
 198 809 l 1,24,-1
 310 932 l 1,25,-1
 377 932 l 1,26,-1
 484 809 l 1,20,-1
EndSplineSet
EndChar

StartChar: Udieresis
Encoding: 220 220 153
Width: 682
Flags: W
LayerCount: 2
Fore
SplineSet
212 0 m 2,0,1
 123 0 123 0 123 99 c 2,2,-1
 123 682 l 1,3,-1
 60 682 l 1,4,-1
 60 750 l 1,5,-1
 270 750 l 1,6,-1
 270 682 l 1,7,-1
 205 682 l 1,8,-1
 205 68 l 1,9,-1
 477 68 l 1,10,-1
 477 682 l 1,11,-1
 412 682 l 1,12,-1
 412 750 l 1,13,-1
 622 750 l 1,14,-1
 622 682 l 1,15,-1
 559 682 l 1,16,-1
 559 104 l 2,17,18
 559 0 559 0 469 0 c 2,19,-1
 212 0 l 2,0,1
297.5 882.5 m 128,-1,21
 310 869 310 869 310 851 c 128,-1,22
 310 833 310 833 297.5 820.5 c 128,-1,23
 285 808 285 808 267 808 c 128,-1,24
 249 808 249 808 236.5 820.5 c 128,-1,25
 224 833 224 833 224 851 c 128,-1,26
 224 869 224 869 237 882.5 c 128,-1,27
 250 896 250 896 267.5 896 c 128,-1,20
 285 896 285 896 297.5 882.5 c 128,-1,21
445.5 882.5 m 128,-1,29
 458 869 458 869 458 851 c 128,-1,30
 458 833 458 833 445.5 820.5 c 128,-1,31
 433 808 433 808 415 808 c 128,-1,32
 397 808 397 808 384.5 820.5 c 128,-1,33
 372 833 372 833 372 851 c 128,-1,34
 372 869 372 869 385 882.5 c 128,-1,35
 398 896 398 896 415.5 896 c 128,-1,28
 433 896 433 896 445.5 882.5 c 128,-1,29
EndSplineSet
EndChar

StartChar: Yacute
Encoding: 221 221 154
Width: 556
Flags: W
LayerCount: 2
Fore
SplineSet
372 750 m 1,0,-1
 372 682 l 1,1,-1
 408 682 l 1,2,-1
 278 438 l 1,3,-1
 151 682 l 1,4,-1
 187 682 l 1,5,-1
 187 750 l 1,6,-1
 25 750 l 1,7,-1
 25 682 l 1,8,-1
 70 682 l 1,9,-1
 236 369 l 1,10,-1
 236 68 l 1,11,-1
 173 68 l 1,12,-1
 173 0 l 1,13,-1
 383 0 l 1,14,-1
 383 68 l 1,15,-1
 318 68 l 1,16,-1
 318 369 l 1,17,-1
 493 682 l 1,18,-1
 531 682 l 1,19,-1
 531 750 l 1,20,-1
 372 750 l 1,0,-1
296 932 m 1,21,-1
 367 932 l 1,22,-1
 262 809 l 1,23,-1
 189 809 l 1,24,-1
 296 932 l 1,21,-1
EndSplineSet
EndChar

StartChar: Thorn
Encoding: 222 222 155
Width: 594
Flags: W
LayerCount: 2
Fore
SplineSet
422 619 m 2,0,1
 488 619 488 619 511 594 c 256,2,3
 534 569 534 569 534 495 c 2,4,-1
 534 422 l 2,5,6
 534 365 534 365 510 340 c 1,7,8
 498 326 498 326 478.5 314 c 128,-1,9
 459 302 459 302 431 285 c 2,10,-1
 210 147 l 1,11,-1
 210 68 l 1,12,-1
 275 68 l 1,13,-1
 275 0 l 1,14,-1
 65 0 l 1,15,-1
 65 68 l 1,16,-1
 128 68 l 1,17,-1
 128 681 l 1,18,-1
 65 681 l 1,19,-1
 65 750 l 1,20,-1
 275 750 l 1,21,-1
 275 681 l 1,22,-1
 211 681 l 1,23,-1
 211 619 l 1,24,-1
 422 619 l 2,0,1
461 550 m 1,25,-1
 210 550 l 1,26,-1
 210 227 l 1,27,-1
 461 382 l 1,28,-1
 461 550 l 1,25,-1
EndSplineSet
EndChar

StartChar: germandbls
Encoding: 223 223 156
Width: 549
Flags: W
LayerCount: 2
Fore
SplineSet
208 0 m 1,0,-1
 50 0 l 1,1,-1
 50 68 l 1,2,-1
 130 68 l 1,3,-1
 130 646 l 2,4,5
 130 703 130 703 152 726.5 c 128,-1,6
 174 750 174 750 219 750 c 2,7,-1
 356 750 l 2,8,9
 414 750 414 750 444 715 c 0,10,11
 469 685 469 685 469 631 c 2,12,-1
 469 502 l 2,13,14
 469 464 469 464 451.5 437.5 c 128,-1,15
 434 411 434 411 411 409 c 1,16,17
 440 404 440 404 457 385 c 0,18,19
 489 349 489 349 489 304 c 2,20,-1
 489 134 l 2,21,22
 489 68 489 68 456 34 c 128,-1,23
 423 0 423 0 348 0 c 2,24,-1
 276 0 l 1,25,-1
 276 68 l 1,26,-1
 407 68 l 1,27,-1
 407 368 l 1,28,-1
 276 368 l 1,29,-1
 276 443 l 1,30,-1
 392 443 l 1,31,-1
 392 682 l 1,32,-1
 208 682 l 1,33,-1
 208 0 l 1,0,-1
EndSplineSet
EndChar

StartChar: agrave
Encoding: 224 224 157
Width: 493
Flags: W
LayerCount: 2
Fore
SplineSet
453 68 m 1,0,-1
 453 0 l 1,1,-1
 105 0 l 2,2,3
 54 0 54 0 36 20 c 0,4,5
 20 38 20 38 20 88 c 2,6,-1
 20 125 l 2,7,8
 20 161 20 161 29 174 c 0,9,10
 42 193 42 193 88 221 c 2,11,-1
 308 358 l 1,12,-1
 308 432 l 1,13,-1
 112 432 l 1,14,-1
 112 374 l 1,15,-1
 48 374 l 1,16,-1
 48 500 l 1,17,-1
 298 500 l 2,18,19
 349 500 349 500 369.5 478 c 128,-1,20
 390 456 390 456 390 414 c 2,21,-1
 390 68 l 1,22,-1
 453 68 l 1,0,-1
308 278 m 1,23,-1
 100 148 l 1,24,-1
 100 68 l 1,25,-1
 308 68 l 1,26,-1
 308 278 l 1,23,-1
335 559 m 1,27,-1
 262 559 l 1,28,-1
 157 682 l 1,29,-1
 228 682 l 1,30,-1
 335 559 l 1,27,-1
EndSplineSet
EndChar

StartChar: aacute
Encoding: 225 225 158
Width: 493
Flags: W
LayerCount: 2
Fore
SplineSet
390 68 m 1,0,-1
 390 414 l 2,1,2
 390 456 390 456 369.5 478 c 128,-1,3
 349 500 349 500 298 500 c 2,4,-1
 48 500 l 1,5,-1
 48 374 l 1,6,-1
 112 374 l 1,7,-1
 112 432 l 1,8,-1
 308 432 l 1,9,-1
 308 358 l 1,10,-1
 88 221 l 2,11,12
 42 193 42 193 33 180 c 0,13,14
 20 161 20 161 20 125 c 2,15,-1
 20 88 l 2,16,17
 20 38 20 38 33 23.5 c 128,-1,18
 46 9 46 9 62.5 4.5 c 128,-1,19
 79 0 79 0 105 0 c 2,20,-1
 453 0 l 1,21,-1
 453 68 l 1,22,-1
 390 68 l 1,0,-1
308 68 m 1,23,-1
 100 68 l 1,24,-1
 100 148 l 1,25,-1
 308 278 l 1,26,-1
 308 68 l 1,23,-1
264 682 m 1,27,-1
 335 682 l 1,28,-1
 230 559 l 1,29,-1
 157 559 l 1,30,-1
 264 682 l 1,27,-1
EndSplineSet
EndChar

StartChar: acircumflex
Encoding: 226 226 159
Width: 493
Flags: W
LayerCount: 2
Fore
SplineSet
453 68 m 1,0,-1
 453 0 l 1,1,-1
 105 0 l 2,2,3
 54 0 54 0 36 20 c 0,4,5
 20 38 20 38 20 88 c 2,6,-1
 20 125 l 2,7,8
 20 161 20 161 29 174 c 0,9,10
 42 193 42 193 88 221 c 2,11,-1
 308 358 l 1,12,-1
 308 432 l 1,13,-1
 112 432 l 1,14,-1
 112 374 l 1,15,-1
 48 374 l 1,16,-1
 48 500 l 1,17,-1
 298 500 l 2,18,19
 349 500 349 500 369.5 478 c 128,-1,20
 390 456 390 456 390 414 c 2,21,-1
 390 68 l 1,22,-1
 453 68 l 1,0,-1
308 278 m 1,23,-1
 100 148 l 1,24,-1
 100 68 l 1,25,-1
 308 68 l 1,26,-1
 308 278 l 1,23,-1
350 559 m 1,27,-1
 277 559 l 1,28,-1
 208 639 l 1,29,-1
 138 559 l 1,30,-1
 64 559 l 1,31,-1
 176 682 l 1,32,-1
 243 682 l 1,33,-1
 350 559 l 1,27,-1
EndSplineSet
EndChar

StartChar: atilde
Encoding: 227 227 160
Width: 493
Flags: W
LayerCount: 2
Fore
SplineSet
453 68 m 1,0,-1
 453 0 l 1,1,-1
 105 0 l 2,2,3
 54 0 54 0 36 20 c 0,4,5
 20 38 20 38 20 88 c 2,6,-1
 20 125 l 2,7,8
 20 161 20 161 29 174 c 0,9,10
 42 193 42 193 88 221 c 2,11,-1
 308 358 l 1,12,-1
 308 432 l 1,13,-1
 112 432 l 1,14,-1
 112 374 l 1,15,-1
 48 374 l 1,16,-1
 48 500 l 1,17,-1
 298 500 l 2,18,19
 349 500 349 500 369.5 478 c 128,-1,20
 390 456 390 456 390 414 c 2,21,-1
 390 68 l 1,22,-1
 453 68 l 1,0,-1
308 278 m 1,23,-1
 100 148 l 1,24,-1
 100 68 l 1,25,-1
 308 68 l 1,26,-1
 308 278 l 1,23,-1
375 638 m 1,27,28
 367 615 367 615 347 596 c 1,29,30
 307 561 307 561 275 561 c 0,31,32
 251 561 251 561 219.5 579.5 c 128,-1,33
 188 598 188 598 171.5 606.5 c 128,-1,34
 155 615 155 615 138.5 615 c 128,-1,35
 122 615 122 615 111 605 c 128,-1,36
 100 595 100 595 86 566 c 1,37,-1
 45 596 l 1,38,39
 52 618 52 618 72 636 c 1,40,41
 109 672 109 672 133 672 c 128,-1,42
 157 672 157 672 177.5 663.5 c 128,-1,43
 198 655 198 655 216.5 644.5 c 128,-1,44
 235 634 235 634 250 625.5 c 128,-1,45
 265 617 265 617 279.5 617 c 128,-1,46
 294 617 294 617 311.5 632 c 128,-1,47
 329 647 329 647 337 666 c 1,48,-1
 375 638 l 1,27,28
EndSplineSet
EndChar

StartChar: adieresis
Encoding: 228 228 161
Width: 493
Flags: W
LayerCount: 2
Fore
SplineSet
453 68 m 1,0,-1
 453 0 l 1,1,-1
 105 0 l 2,2,3
 54 0 54 0 36 20 c 0,4,5
 20 38 20 38 20 88 c 2,6,-1
 20 125 l 2,7,8
 20 161 20 161 29 174 c 0,9,10
 42 193 42 193 88 221 c 2,11,-1
 308 358 l 1,12,-1
 308 432 l 1,13,-1
 112 432 l 1,14,-1
 112 374 l 1,15,-1
 48 374 l 1,16,-1
 48 500 l 1,17,-1
 298 500 l 2,18,19
 349 500 349 500 369.5 478 c 128,-1,20
 390 456 390 456 390 414 c 2,21,-1
 390 68 l 1,22,-1
 453 68 l 1,0,-1
308 278 m 1,23,-1
 100 148 l 1,24,-1
 100 68 l 1,25,-1
 308 68 l 1,26,-1
 308 278 l 1,23,-1
159.5 632.5 m 128,-1,28
 172 619 172 619 172 601 c 128,-1,29
 172 583 172 583 159.5 570.5 c 128,-1,30
 147 558 147 558 129 558 c 128,-1,31
 111 558 111 558 98.5 570.5 c 128,-1,32
 86 583 86 583 86 601 c 128,-1,33
 86 619 86 619 99 632.5 c 128,-1,34
 112 646 112 646 129.5 646 c 128,-1,27
 147 646 147 646 159.5 632.5 c 128,-1,28
307.5 632.5 m 128,-1,36
 320 619 320 619 320 601 c 128,-1,37
 320 583 320 583 307.5 570.5 c 128,-1,38
 295 558 295 558 277 558 c 128,-1,39
 259 558 259 558 246.5 570.5 c 128,-1,40
 234 583 234 583 234 601 c 128,-1,41
 234 619 234 619 247 632.5 c 128,-1,42
 260 646 260 646 277.5 646 c 128,-1,35
 295 646 295 646 307.5 632.5 c 128,-1,36
EndSplineSet
EndChar

StartChar: aring
Encoding: 229 229 162
Width: 493
Flags: W
LayerCount: 2
Fore
SplineSet
453 68 m 1,0,-1
 453 0 l 1,1,-1
 105 0 l 2,2,3
 54 0 54 0 36 20 c 0,4,5
 20 38 20 38 20 88 c 2,6,-1
 20 125 l 2,7,8
 20 161 20 161 29 174 c 0,9,10
 42 193 42 193 88 221 c 2,11,-1
 308 358 l 1,12,-1
 308 432 l 1,13,-1
 112 432 l 1,14,-1
 112 374 l 1,15,-1
 48 374 l 1,16,-1
 48 500 l 1,17,-1
 298 500 l 2,18,19
 349 500 349 500 369.5 478 c 128,-1,20
 390 456 390 456 390 414 c 2,21,-1
 390 68 l 1,22,-1
 453 68 l 1,0,-1
308 278 m 1,23,-1
 100 148 l 1,24,-1
 100 68 l 1,25,-1
 308 68 l 1,26,-1
 308 278 l 1,23,-1
143 686 m 128,-1,28
 169 712 169 712 207 712 c 0,29,30
 243 712 243 712 269 686 c 128,-1,31
 295 660 295 660 295 623 c 128,-1,32
 295 586 295 586 269 560 c 128,-1,33
 243 534 243 534 206 534 c 0,34,35
 168 534 168 534 143 560 c 0,36,37
 117 588 117 588 117 624 c 128,-1,27
 117 660 117 660 143 686 c 128,-1,28
166 624 m 256,38,39
 166 607 166 607 177.5 595 c 128,-1,40
 189 583 189 583 206 583 c 256,41,42
 223 583 223 583 235 595 c 128,-1,43
 247 607 247 607 247 623.5 c 128,-1,44
 247 640 247 640 235 652 c 128,-1,45
 223 664 223 664 206.5 664 c 128,-1,46
 190 664 190 664 178 652.5 c 128,-1,47
 166 641 166 641 166 624 c 256,38,39
EndSplineSet
EndChar

StartChar: ae
Encoding: 230 230 163
Width: 710
Flags: W
LayerCount: 2
Fore
SplineSet
142 374 m 1,0,-1
 78 374 l 1,1,-1
 78 500 l 1,2,-1
 567 500 l 2,3,4
 616 500 616 500 638 481.5 c 128,-1,5
 660 463 660 463 660 412 c 2,6,-1
 660 319 l 1,7,-1
 396 155 l 1,8,-1
 396 68 l 1,9,-1
 581 68 l 1,10,-1
 581 126 l 1,11,-1
 660 126 l 1,12,-1
 660 73 l 2,13,14
 660 43 660 43 641.5 21.5 c 128,-1,15
 623 0 623 0 580 0 c 2,16,-1
 135 0 l 2,17,18
 84 0 84 0 66 20 c 0,19,20
 50 38 50 38 50 88 c 2,21,-1
 50 123 l 2,22,23
 50 160 50 160 59 173.5 c 128,-1,24
 68 187 68 187 81.5 197 c 128,-1,25
 95 207 95 207 118 221 c 2,26,-1
 318 339 l 1,27,-1
 318 432 l 1,28,-1
 142 432 l 1,29,-1
 142 374 l 1,0,-1
396 236 m 1,30,-1
 580 349 l 1,31,-1
 580 432 l 1,32,-1
 396 432 l 1,33,-1
 396 236 l 1,30,-1
318 259 m 1,34,-1
 130 148 l 1,35,-1
 130 68 l 1,36,-1
 318 68 l 1,37,-1
 318 259 l 1,34,-1
EndSplineSet
EndChar

StartChar: ccedilla
Encoding: 231 231 164
Width: 426
Flags: W
LayerCount: 2
Fore
SplineSet
128 0 m 1,0,1
 50 3 50 3 50 88 c 2,2,-1
 50 412 l 2,3,4
 50 454 50 454 73.5 477.5 c 128,-1,5
 97 501 97 501 145 501 c 2,6,-1
 386 501 l 1,7,-1
 386 374 l 1,8,-1
 318 374 l 1,9,-1
 318 432 l 1,10,-1
 130 432 l 1,11,-1
 130 68 l 1,12,-1
 318 68 l 1,13,-1
 318 126 l 1,14,-1
 386 126 l 1,15,-1
 386 0 l 1,16,-1
 187 0 l 1,17,-1
 187 -42 l 1,18,-1
 224 -42 l 2,19,20
 262 -42 262 -42 280 -61 c 128,-1,21
 298 -80 298 -80 298 -112 c 2,22,-1
 298 -149 l 2,23,24
 298 -177 298 -177 285 -197 c 128,-1,25
 272 -217 272 -217 230 -217 c 2,26,-1
 128 -217 l 1,27,-1
 128 -164 l 1,28,-1
 236 -164 l 1,29,-1
 236 -97 l 1,30,-1
 128 -97 l 1,31,-1
 128 0 l 1,0,1
EndSplineSet
EndChar

StartChar: egrave
Encoding: 232 232 165
Width: 465
Flags: W
LayerCount: 2
Fore
SplineSet
50 402 m 2,0,1
 50 501 50 501 153 501 c 2,2,-1
 322 501 l 2,3,4
 371 501 371 501 393 482 c 128,-1,5
 415 463 415 463 415 412 c 2,6,-1
 415 319 l 1,7,-1
 130 139 l 1,8,-1
 130 68 l 1,9,-1
 336 68 l 1,10,-1
 336 126 l 1,11,-1
 415 126 l 1,12,-1
 415 73 l 2,13,14
 415 43 415 43 396.5 21.5 c 128,-1,15
 378 0 378 0 335 0 c 2,16,-1
 130 0 l 2,17,18
 87 0 87 0 68.5 21.5 c 128,-1,19
 50 43 50 43 50 73 c 2,20,-1
 50 402 l 2,0,1
130 220 m 1,21,-1
 335 349 l 1,22,-1
 335 432 l 1,23,-1
 130 432 l 1,24,-1
 130 220 l 1,21,-1
321 559 m 1,25,-1
 248 559 l 1,26,-1
 143 682 l 1,27,-1
 214 682 l 1,28,-1
 321 559 l 1,25,-1
EndSplineSet
EndChar

StartChar: eacute
Encoding: 233 233 166
Width: 465
Flags: W
LayerCount: 2
Fore
SplineSet
153 501 m 2,0,1
 50 501 50 501 50 402 c 2,2,-1
 50 73 l 2,3,4
 50 43 50 43 68.5 21.5 c 128,-1,5
 87 0 87 0 130 0 c 2,6,-1
 335 0 l 2,7,8
 378 0 378 0 396.5 21.5 c 128,-1,9
 415 43 415 43 415 73 c 2,10,-1
 415 126 l 1,11,-1
 336 126 l 1,12,-1
 336 68 l 1,13,-1
 130 68 l 1,14,-1
 130 139 l 1,15,-1
 415 319 l 1,16,-1
 415 412 l 2,17,18
 415 463 415 463 393 482 c 128,-1,19
 371 501 371 501 322 501 c 2,20,-1
 153 501 l 2,0,1
130 432 m 1,21,-1
 335 432 l 1,22,-1
 335 349 l 1,23,-1
 130 220 l 1,24,-1
 130 432 l 1,21,-1
250 682 m 1,25,-1
 321 682 l 1,26,-1
 216 559 l 1,27,-1
 143 559 l 1,28,-1
 250 682 l 1,25,-1
EndSplineSet
EndChar

StartChar: ecircumflex
Encoding: 234 234 167
Width: 465
Flags: W
LayerCount: 2
Fore
SplineSet
50 402 m 2,0,1
 50 501 50 501 153 501 c 2,2,-1
 322 501 l 2,3,4
 371 501 371 501 393 482 c 128,-1,5
 415 463 415 463 415 412 c 2,6,-1
 415 319 l 1,7,-1
 130 139 l 1,8,-1
 130 68 l 1,9,-1
 336 68 l 1,10,-1
 336 126 l 1,11,-1
 415 126 l 1,12,-1
 415 73 l 2,13,14
 415 43 415 43 396.5 21.5 c 128,-1,15
 378 0 378 0 335 0 c 2,16,-1
 130 0 l 2,17,18
 87 0 87 0 68.5 21.5 c 128,-1,19
 50 43 50 43 50 73 c 2,20,-1
 50 402 l 2,0,1
130 220 m 1,21,-1
 335 349 l 1,22,-1
 335 432 l 1,23,-1
 130 432 l 1,24,-1
 130 220 l 1,21,-1
375 559 m 1,25,-1
 302 559 l 1,26,-1
 233 639 l 1,27,-1
 163 559 l 1,28,-1
 89 559 l 1,29,-1
 201 682 l 1,30,-1
 268 682 l 1,31,-1
 375 559 l 1,25,-1
EndSplineSet
EndChar

StartChar: edieresis
Encoding: 235 235 168
Width: 465
Flags: W
LayerCount: 2
Fore
SplineSet
50 402 m 2,0,1
 50 501 50 501 153 501 c 2,2,-1
 322 501 l 2,3,4
 371 501 371 501 393 482 c 128,-1,5
 415 463 415 463 415 412 c 2,6,-1
 415 319 l 1,7,-1
 130 139 l 1,8,-1
 130 68 l 1,9,-1
 336 68 l 1,10,-1
 336 126 l 1,11,-1
 415 126 l 1,12,-1
 415 73 l 2,13,14
 415 43 415 43 396.5 21.5 c 128,-1,15
 378 0 378 0 335 0 c 2,16,-1
 130 0 l 2,17,18
 87 0 87 0 68.5 21.5 c 128,-1,19
 50 43 50 43 50 73 c 2,20,-1
 50 402 l 2,0,1
130 220 m 1,21,-1
 335 349 l 1,22,-1
 335 432 l 1,23,-1
 130 432 l 1,24,-1
 130 220 l 1,21,-1
188.5 632.5 m 128,-1,26
 201 619 201 619 201 601 c 128,-1,27
 201 583 201 583 188.5 570.5 c 128,-1,28
 176 558 176 558 158 558 c 128,-1,29
 140 558 140 558 127.5 570.5 c 128,-1,30
 115 583 115 583 115 601 c 128,-1,31
 115 619 115 619 128 632.5 c 128,-1,32
 141 646 141 646 158.5 646 c 128,-1,25
 176 646 176 646 188.5 632.5 c 128,-1,26
336.5 632.5 m 128,-1,34
 349 619 349 619 349 601 c 128,-1,35
 349 583 349 583 336.5 570.5 c 128,-1,36
 324 558 324 558 306 558 c 128,-1,37
 288 558 288 558 275.5 570.5 c 128,-1,38
 263 583 263 583 263 601 c 128,-1,39
 263 619 263 619 276 632.5 c 128,-1,40
 289 646 289 646 306.5 646 c 128,-1,33
 324 646 324 646 336.5 632.5 c 128,-1,34
EndSplineSet
EndChar

StartChar: igrave
Encoding: 236 236 169
Width: 300
Flags: W
LayerCount: 2
Fore
SplineSet
195 68 m 1,0,-1
 260 68 l 1,1,-1
 260 0 l 1,2,-1
 50 0 l 1,3,-1
 50 68 l 1,4,-1
 113 68 l 1,5,-1
 113 432 l 1,6,-1
 50 432 l 1,7,-1
 50 500 l 1,8,-1
 195 500 l 1,9,-1
 195 68 l 1,0,-1
239 559 m 1,10,-1
 166 559 l 1,11,-1
 61 682 l 1,12,-1
 132 682 l 1,13,-1
 239 559 l 1,10,-1
EndSplineSet
EndChar

StartChar: iacute
Encoding: 237 237 170
Width: 300
Flags: W
LayerCount: 2
Fore
SplineSet
195 500 m 1,0,-1
 50 500 l 1,1,-1
 50 432 l 1,2,-1
 113 432 l 1,3,-1
 113 68 l 1,4,-1
 50 68 l 1,5,-1
 50 0 l 1,6,-1
 260 0 l 1,7,-1
 260 68 l 1,8,-1
 195 68 l 1,9,-1
 195 500 l 1,0,-1
168 682 m 1,10,-1
 239 682 l 1,11,-1
 134 559 l 1,12,-1
 61 559 l 1,13,-1
 168 682 l 1,10,-1
EndSplineSet
EndChar

StartChar: icircumflex
Encoding: 238 238 171
Width: 308
Flags: W
LayerCount: 2
Fore
SplineSet
203 68 m 1,0,-1
 268 68 l 1,1,-1
 268 0 l 1,2,-1
 58 0 l 1,3,-1
 58 68 l 1,4,-1
 121 68 l 1,5,-1
 121 432 l 1,6,-1
 58 432 l 1,7,-1
 58 500 l 1,8,-1
 203 500 l 1,9,-1
 203 68 l 1,0,-1
285 559 m 1,10,-1
 212 559 l 1,11,-1
 143 639 l 1,12,-1
 73 559 l 1,13,-1
 -1 559 l 1,14,-1
 111 682 l 1,15,-1
 178 682 l 1,16,-1
 285 559 l 1,10,-1
EndSplineSet
EndChar

StartChar: idieresis
Encoding: 239 239 172
Width: 300
Flags: W
LayerCount: 2
Fore
SplineSet
195 68 m 1,0,-1
 260 68 l 1,1,-1
 260 0 l 1,2,-1
 50 0 l 1,3,-1
 50 68 l 1,4,-1
 113 68 l 1,5,-1
 113 432 l 1,6,-1
 50 432 l 1,7,-1
 50 500 l 1,8,-1
 195 500 l 1,9,-1
 195 68 l 1,0,-1
106.5 632.5 m 128,-1,11
 119 619 119 619 119 601 c 128,-1,12
 119 583 119 583 106.5 570.5 c 128,-1,13
 94 558 94 558 76 558 c 128,-1,14
 58 558 58 558 45.5 570.5 c 128,-1,15
 33 583 33 583 33 601 c 128,-1,16
 33 619 33 619 46 632.5 c 128,-1,17
 59 646 59 646 76.5 646 c 128,-1,10
 94 646 94 646 106.5 632.5 c 128,-1,11
254.5 632.5 m 128,-1,19
 267 619 267 619 267 601 c 128,-1,20
 267 583 267 583 254.5 570.5 c 128,-1,21
 242 558 242 558 224 558 c 128,-1,22
 206 558 206 558 193.5 570.5 c 128,-1,23
 181 583 181 583 181 601 c 128,-1,24
 181 619 181 619 194 632.5 c 128,-1,25
 207 646 207 646 224.5 646 c 128,-1,18
 242 646 242 646 254.5 632.5 c 128,-1,19
EndSplineSet
EndChar

StartChar: eth
Encoding: 240 240 173
Width: 460
Flags: W
LayerCount: 2
Fore
SplineSet
33 495 m 1,0,-1
 147 589 l 1,1,-1
 37 634 l 1,2,-1
 37 702 l 1,3,-1
 206 638 l 1,4,-1
 313 726 l 1,5,-1
 400 726 l 1,6,-1
 265 616 l 1,7,-1
 330 592 l 2,8,9
 382 572 382 572 399 543.5 c 128,-1,10
 416 515 416 515 416 479 c 2,11,-1
 416 88 l 2,12,13
 416 45 416 45 398 25 c 0,14,15
 376 1 376 1 325 1 c 2,16,-1
 141 1 l 2,17,18
 63 1 63 1 53 52 c 0,19,20
 50 68 50 68 50 88 c 2,21,-1
 50 197 l 2,22,23
 50 237 50 237 71.5 264 c 128,-1,24
 93 291 93 291 141 318 c 1,25,-1
 343 447 l 1,26,-1
 343 472 l 2,27,28
 343 488 343 488 336.5 503.5 c 128,-1,29
 330 519 330 519 302 528 c 1,30,-1
 204 566 l 1,31,-1
 116 495 l 1,32,-1
 33 495 l 1,0,-1
343 67 m 1,33,-1
 343 366 l 1,34,-1
 124 229 l 1,35,-1
 124 67 l 1,36,-1
 343 67 l 1,33,-1
EndSplineSet
EndChar

StartChar: ntilde
Encoding: 241 241 174
Width: 568
Flags: W
LayerCount: 2
Fore
SplineSet
386 510 m 0,0,1
 464 510 464 510 464 433 c 2,2,-1
 464 68 l 1,3,-1
 528 68 l 1,4,-1
 528 0 l 1,5,-1
 335 0 l 1,6,-1
 335 68 l 1,7,-1
 383 68 l 1,8,-1
 383 440 l 1,9,-1
 184 315 l 1,10,-1
 184 68 l 1,11,-1
 233 68 l 1,12,-1
 233 0 l 1,13,-1
 40 0 l 1,14,-1
 40 68 l 1,15,-1
 103 68 l 1,16,-1
 103 433 l 1,17,-1
 40 433 l 1,18,-1
 40 500 l 1,19,-1
 184 500 l 1,20,-1
 184 396 l 1,21,-1
 350 500 l 2,22,23
 366 510 366 510 386 510 c 0,0,1
449 638 m 1,24,25
 441 615 441 615 421 596 c 1,26,27
 381 561 381 561 349 561 c 0,28,29
 325 561 325 561 293.5 579.5 c 128,-1,30
 262 598 262 598 245.5 606.5 c 128,-1,31
 229 615 229 615 212.5 615 c 128,-1,32
 196 615 196 615 185 605 c 128,-1,33
 174 595 174 595 160 566 c 1,34,-1
 119 596 l 1,35,36
 126 618 126 618 146 636 c 1,37,38
 183 672 183 672 207 672 c 128,-1,39
 231 672 231 672 251.5 663.5 c 128,-1,40
 272 655 272 655 290.5 644.5 c 128,-1,41
 309 634 309 634 324 625.5 c 128,-1,42
 339 617 339 617 353.5 617 c 128,-1,43
 368 617 368 617 385.5 632 c 128,-1,44
 403 647 403 647 411 666 c 1,45,-1
 449 638 l 1,24,25
EndSplineSet
EndChar

StartChar: ograve
Encoding: 242 242 175
Width: 451
Flags: W
LayerCount: 2
Fore
SplineSet
133 0 m 2,0,1
 82 0 82 0 61 23.5 c 128,-1,2
 40 47 40 47 40 89 c 2,3,-1
 40 411 l 2,4,5
 40 451 40 451 58.5 475.5 c 128,-1,6
 77 500 77 500 133 500 c 2,7,-1
 318 500 l 2,8,9
 373 500 373 500 392 475.5 c 128,-1,10
 411 451 411 451 411 411 c 2,11,-1
 411 89 l 2,12,13
 411 47 411 47 390 23.5 c 128,-1,14
 369 0 369 0 318 0 c 2,15,-1
 133 0 l 2,0,1
121 68 m 1,16,-1
 330 68 l 1,17,-1
 330 432 l 1,18,-1
 121 432 l 1,19,-1
 121 68 l 1,16,-1
314 559 m 1,20,-1
 241 559 l 1,21,-1
 136 682 l 1,22,-1
 207 682 l 1,23,-1
 314 559 l 1,20,-1
EndSplineSet
EndChar

StartChar: oacute
Encoding: 243 243 176
Width: 451
Flags: W
LayerCount: 2
Fore
SplineSet
318 0 m 2,0,1
 369 0 369 0 390 23.5 c 128,-1,2
 411 47 411 47 411 89 c 2,3,-1
 411 411 l 2,4,5
 411 451 411 451 392 475.5 c 128,-1,6
 373 500 373 500 318 500 c 2,7,-1
 133 500 l 2,8,9
 77 500 77 500 58.5 475.5 c 128,-1,10
 40 451 40 451 40 411 c 2,11,-1
 40 89 l 2,12,13
 40 47 40 47 61 23.5 c 128,-1,14
 82 0 82 0 133 0 c 2,15,-1
 318 0 l 2,0,1
121 432 m 1,16,-1
 330 432 l 1,17,-1
 330 68 l 1,18,-1
 121 68 l 1,19,-1
 121 432 l 1,16,-1
243 682 m 1,20,-1
 314 682 l 1,21,-1
 209 559 l 1,22,-1
 136 559 l 1,23,-1
 243 682 l 1,20,-1
EndSplineSet
EndChar

StartChar: ocircumflex
Encoding: 244 244 177
Width: 451
Flags: W
LayerCount: 2
Fore
SplineSet
133 0 m 2,0,1
 82 0 82 0 61 23.5 c 128,-1,2
 40 47 40 47 40 89 c 2,3,-1
 40 411 l 2,4,5
 40 451 40 451 58.5 475.5 c 128,-1,6
 77 500 77 500 133 500 c 2,7,-1
 318 500 l 2,8,9
 373 500 373 500 392 475.5 c 128,-1,10
 411 451 411 451 411 411 c 2,11,-1
 411 89 l 2,12,13
 411 47 411 47 390 23.5 c 128,-1,14
 369 0 369 0 318 0 c 2,15,-1
 133 0 l 2,0,1
121 68 m 1,16,-1
 330 68 l 1,17,-1
 330 432 l 1,18,-1
 121 432 l 1,19,-1
 121 68 l 1,16,-1
368 559 m 1,20,-1
 295 559 l 1,21,-1
 226 639 l 1,22,-1
 156 559 l 1,23,-1
 82 559 l 1,24,-1
 194 682 l 1,25,-1
 261 682 l 1,26,-1
 368 559 l 1,20,-1
EndSplineSet
EndChar

StartChar: otilde
Encoding: 245 245 178
Width: 451
Flags: W
LayerCount: 2
Fore
SplineSet
133 0 m 2,0,1
 82 0 82 0 61 23.5 c 128,-1,2
 40 47 40 47 40 89 c 2,3,-1
 40 411 l 2,4,5
 40 451 40 451 58.5 475.5 c 128,-1,6
 77 500 77 500 133 500 c 2,7,-1
 318 500 l 2,8,9
 373 500 373 500 392 475.5 c 128,-1,10
 411 451 411 451 411 411 c 2,11,-1
 411 89 l 2,12,13
 411 47 411 47 390 23.5 c 128,-1,14
 369 0 369 0 318 0 c 2,15,-1
 133 0 l 2,0,1
121 68 m 1,16,-1
 330 68 l 1,17,-1
 330 432 l 1,18,-1
 121 432 l 1,19,-1
 121 68 l 1,16,-1
390 638 m 1,20,21
 382 615 382 615 362 596 c 1,22,23
 322 561 322 561 290 561 c 0,24,25
 266 561 266 561 234.5 579.5 c 128,-1,26
 203 598 203 598 186.5 606.5 c 128,-1,27
 170 615 170 615 153.5 615 c 128,-1,28
 137 615 137 615 126 605 c 128,-1,29
 115 595 115 595 101 566 c 1,30,-1
 60 596 l 1,31,32
 67 618 67 618 87 636 c 1,33,34
 124 672 124 672 148 672 c 128,-1,35
 172 672 172 672 192.5 663.5 c 128,-1,36
 213 655 213 655 231.5 644.5 c 128,-1,37
 250 634 250 634 265 625.5 c 128,-1,38
 280 617 280 617 294.5 617 c 128,-1,39
 309 617 309 617 326.5 632 c 128,-1,40
 344 647 344 647 352 666 c 1,41,-1
 390 638 l 1,20,21
EndSplineSet
EndChar

StartChar: odieresis
Encoding: 246 246 179
Width: 451
Flags: W
LayerCount: 2
Fore
SplineSet
133 0 m 2,0,1
 82 0 82 0 61 23.5 c 128,-1,2
 40 47 40 47 40 89 c 2,3,-1
 40 411 l 2,4,5
 40 451 40 451 58.5 475.5 c 128,-1,6
 77 500 77 500 133 500 c 2,7,-1
 318 500 l 2,8,9
 373 500 373 500 392 475.5 c 128,-1,10
 411 451 411 451 411 411 c 2,11,-1
 411 89 l 2,12,13
 411 47 411 47 390 23.5 c 128,-1,14
 369 0 369 0 318 0 c 2,15,-1
 133 0 l 2,0,1
121 68 m 1,16,-1
 330 68 l 1,17,-1
 330 432 l 1,18,-1
 121 432 l 1,19,-1
 121 68 l 1,16,-1
181.5 632.5 m 128,-1,21
 194 619 194 619 194 601 c 128,-1,22
 194 583 194 583 181.5 570.5 c 128,-1,23
 169 558 169 558 151 558 c 128,-1,24
 133 558 133 558 120.5 570.5 c 128,-1,25
 108 583 108 583 108 601 c 128,-1,26
 108 619 108 619 121 632.5 c 128,-1,27
 134 646 134 646 151.5 646 c 128,-1,20
 169 646 169 646 181.5 632.5 c 128,-1,21
329.5 632.5 m 128,-1,29
 342 619 342 619 342 601 c 128,-1,30
 342 583 342 583 329.5 570.5 c 128,-1,31
 317 558 317 558 299 558 c 128,-1,32
 281 558 281 558 268.5 570.5 c 128,-1,33
 256 583 256 583 256 601 c 128,-1,34
 256 619 256 619 269 632.5 c 128,-1,35
 282 646 282 646 299.5 646 c 128,-1,28
 317 646 317 646 329.5 632.5 c 128,-1,29
EndSplineSet
EndChar

StartChar: divide
Encoding: 247 247 180
Width: 362
Flags: W
LayerCount: 2
Fore
SplineSet
15 420 m 1,0,-1
 344 420 l 1,1,-1
 344 354 l 1,2,-1
 15 354 l 1,3,-1
 15 420 l 1,0,-1
214.5 292 m 128,-1,5
 229 276 229 276 229 255 c 128,-1,6
 229 234 229 234 214.5 219.5 c 128,-1,7
 200 205 200 205 179 205 c 128,-1,8
 158 205 158 205 143 219.5 c 128,-1,9
 128 234 128 234 128 255 c 128,-1,10
 128 276 128 276 143.5 292 c 128,-1,11
 159 308 159 308 179.5 308 c 128,-1,4
 200 308 200 308 214.5 292 c 128,-1,5
214.5 558.5 m 128,-1,13
 229 543 229 543 229 521 c 128,-1,14
 229 499 229 499 214.5 484.5 c 128,-1,15
 200 470 200 470 179 470 c 128,-1,16
 158 470 158 470 143 484.5 c 128,-1,17
 128 499 128 499 128 521 c 128,-1,18
 128 543 128 543 143.5 558.5 c 128,-1,19
 159 574 159 574 179.5 574 c 128,-1,12
 200 574 200 574 214.5 558.5 c 128,-1,13
EndSplineSet
EndChar

StartChar: oslash
Encoding: 248 248 181
Width: 451
Flags: W
LayerCount: 2
Fore
SplineSet
119 0 m 1,0,1
 75 4 75 4 57.5 27.5 c 128,-1,2
 40 51 40 51 40 89 c 2,3,-1
 40 411 l 2,4,5
 40 451 40 451 58.5 475.5 c 128,-1,6
 77 500 77 500 133 500 c 2,7,-1
 269 500 l 1,8,-1
 288 563 l 1,9,-1
 359 563 l 1,10,-1
 340 499 l 1,11,12
 382 494 382 494 396.5 470 c 128,-1,13
 411 446 411 446 411 411 c 2,14,-1
 411 89 l 2,15,16
 411 47 411 47 390 23.5 c 128,-1,17
 369 0 369 0 318 0 c 2,18,-1
 190 0 l 1,19,-1
 165 -85 l 1,20,-1
 94 -85 l 1,21,-1
 119 0 l 1,0,1
121 68 m 1,22,-1
 139 68 l 1,23,-1
 248 432 l 1,24,-1
 121 432 l 1,25,-1
 121 68 l 1,22,-1
320 432 m 1,26,-1
 211 68 l 1,27,-1
 330 68 l 1,28,-1
 330 432 l 1,29,-1
 320 432 l 1,26,-1
EndSplineSet
EndChar

StartChar: ugrave
Encoding: 249 249 182
Width: 568
Flags: W
LayerCount: 2
Fore
SplineSet
182 -2 m 0,0,1
 104 -2 104 -2 104 75 c 2,2,-1
 104 433 l 1,3,-1
 40 433 l 1,4,-1
 40 501 l 1,5,-1
 185 501 l 1,6,-1
 185 68 l 1,7,-1
 384 193 l 1,8,-1
 384 433 l 1,9,-1
 335 433 l 1,10,-1
 335 501 l 1,11,-1
 465 501 l 1,12,-1
 465 68 l 1,13,-1
 528 68 l 1,14,-1
 528 0 l 1,15,-1
 384 0 l 1,16,-1
 384 112 l 1,17,-1
 218 8 l 2,18,19
 202 -2 202 -2 182 -2 c 0,0,1
373 559 m 1,20,-1
 300 559 l 1,21,-1
 195 682 l 1,22,-1
 266 682 l 1,23,-1
 373 559 l 1,20,-1
EndSplineSet
EndChar

StartChar: uacute
Encoding: 250 250 183
Width: 568
Flags: W
LayerCount: 2
Fore
SplineSet
104 75 m 2,0,1
 104 -2 104 -2 182 -2 c 0,2,3
 202 -2 202 -2 218 8 c 2,4,-1
 384 112 l 1,5,-1
 384 0 l 1,6,-1
 528 0 l 1,7,-1
 528 68 l 1,8,-1
 465 68 l 1,9,-1
 465 501 l 1,10,-1
 335 501 l 1,11,-1
 335 433 l 1,12,-1
 384 433 l 1,13,-1
 384 193 l 1,14,-1
 185 68 l 1,15,-1
 185 501 l 1,16,-1
 40 501 l 1,17,-1
 40 433 l 1,18,-1
 104 433 l 1,19,-1
 104 75 l 2,0,1
302 682 m 1,20,-1
 373 682 l 1,21,-1
 268 559 l 1,22,-1
 195 559 l 1,23,-1
 302 682 l 1,20,-1
EndSplineSet
EndChar

StartChar: ucircumflex
Encoding: 251 251 184
Width: 568
Flags: W
LayerCount: 2
Fore
SplineSet
182 -2 m 0,0,1
 104 -2 104 -2 104 75 c 2,2,-1
 104 433 l 1,3,-1
 40 433 l 1,4,-1
 40 501 l 1,5,-1
 185 501 l 1,6,-1
 185 68 l 1,7,-1
 384 193 l 1,8,-1
 384 433 l 1,9,-1
 335 433 l 1,10,-1
 335 501 l 1,11,-1
 465 501 l 1,12,-1
 465 68 l 1,13,-1
 528 68 l 1,14,-1
 528 0 l 1,15,-1
 384 0 l 1,16,-1
 384 112 l 1,17,-1
 218 8 l 2,18,19
 202 -2 202 -2 182 -2 c 0,0,1
427 559 m 1,20,-1
 354 559 l 1,21,-1
 285 639 l 1,22,-1
 215 559 l 1,23,-1
 141 559 l 1,24,-1
 253 682 l 1,25,-1
 320 682 l 1,26,-1
 427 559 l 1,20,-1
EndSplineSet
EndChar

StartChar: udieresis
Encoding: 252 252 185
Width: 568
Flags: W
LayerCount: 2
Fore
SplineSet
182 -2 m 0,0,1
 104 -2 104 -2 104 75 c 2,2,-1
 104 433 l 1,3,-1
 40 433 l 1,4,-1
 40 501 l 1,5,-1
 185 501 l 1,6,-1
 185 68 l 1,7,-1
 384 193 l 1,8,-1
 384 433 l 1,9,-1
 335 433 l 1,10,-1
 335 501 l 1,11,-1
 465 501 l 1,12,-1
 465 68 l 1,13,-1
 528 68 l 1,14,-1
 528 0 l 1,15,-1
 384 0 l 1,16,-1
 384 112 l 1,17,-1
 218 8 l 2,18,19
 202 -2 202 -2 182 -2 c 0,0,1
240.5 632.5 m 128,-1,21
 253 619 253 619 253 601 c 128,-1,22
 253 583 253 583 240.5 570.5 c 128,-1,23
 228 558 228 558 210 558 c 128,-1,24
 192 558 192 558 179.5 570.5 c 128,-1,25
 167 583 167 583 167 601 c 128,-1,26
 167 619 167 619 180 632.5 c 128,-1,27
 193 646 193 646 210.5 646 c 128,-1,20
 228 646 228 646 240.5 632.5 c 128,-1,21
388.5 632.5 m 128,-1,29
 401 619 401 619 401 601 c 128,-1,30
 401 583 401 583 388.5 570.5 c 128,-1,31
 376 558 376 558 358 558 c 128,-1,32
 340 558 340 558 327.5 570.5 c 128,-1,33
 315 583 315 583 315 601 c 128,-1,34
 315 619 315 619 328 632.5 c 128,-1,35
 341 646 341 646 358.5 646 c 128,-1,28
 376 646 376 646 388.5 632.5 c 128,-1,29
EndSplineSet
EndChar

StartChar: yacute
Encoding: 253 253 186
Width: 515
Flags: W
LayerCount: 2
Fore
SplineSet
335 500 m 1,0,-1
 335 432 l 1,1,-1
 384 432 l 1,2,-1
 384 194 l 1,3,-1
 185 69 l 1,4,-1
 185 500 l 1,5,-1
 40 500 l 1,6,-1
 40 432 l 1,7,-1
 104 432 l 1,8,-1
 104 55 l 2,9,10
 104 21 104 21 121 5.5 c 128,-1,11
 138 -10 138 -10 161 -10 c 256,12,13
 184 -10 184 -10 207 4 c 2,14,-1
 383 113 l 1,15,-1
 383 -150 l 1,16,-1
 210 -150 l 1,17,-1
 210 -83 l 1,18,-1
 142 -83 l 1,19,-1
 142 -219 l 1,20,-1
 373 -219 l 2,21,22
 424 -219 424 -219 444.5 -197 c 128,-1,23
 465 -175 465 -175 465 -133 c 2,24,-1
 465 500 l 1,25,-1
 335 500 l 1,0,-1
275 682 m 1,26,-1
 346 682 l 1,27,-1
 241 559 l 1,28,-1
 168 559 l 1,29,-1
 275 682 l 1,26,-1
EndSplineSet
EndChar

StartChar: thorn
Encoding: 254 254 187
Width: 527
Flags: W
LayerCount: 2
Fore
SplineSet
185 68 m 1,0,-1
 397 68 l 1,1,-1
 397 439 l 1,2,-1
 185 306 l 1,3,-1
 185 68 l 1,0,-1
41 -182 m 1,4,-1
 103 -182 l 1,5,-1
 103 681 l 1,6,-1
 40 681 l 1,7,-1
 40 750 l 1,8,-1
 185 750 l 1,9,-1
 185 386 l 1,10,-1
 358 495 l 2,11,12
 382 510 382 510 409 510 c 128,-1,13
 436 510 436 510 456.5 493.5 c 128,-1,14
 477 477 477 477 477 445 c 2,15,-1
 477 94 l 2,16,17
 477 48 477 48 464 31 c 0,18,19
 439 0 439 0 387 0 c 2,20,-1
 185 0 l 1,21,-1
 185 -182 l 1,22,-1
 251 -182 l 1,23,-1
 251 -250 l 1,24,-1
 41 -250 l 1,25,-1
 41 -182 l 1,4,-1
EndSplineSet
EndChar

StartChar: ydieresis
Encoding: 255 255 188
Width: 515
Flags: W
LayerCount: 2
Fore
SplineSet
465 500 m 1,0,-1
 465 -133 l 2,1,2
 465 -175 465 -175 444.5 -197 c 128,-1,3
 424 -219 424 -219 373 -219 c 2,4,-1
 142 -219 l 1,5,-1
 142 -83 l 1,6,-1
 210 -83 l 1,7,-1
 210 -150 l 1,8,-1
 383 -150 l 1,9,-1
 383 113 l 1,10,-1
 207 4 l 2,11,12
 184 -10 184 -10 161 -10 c 256,13,14
 138 -10 138 -10 121 5.5 c 128,-1,15
 104 21 104 21 104 55 c 2,16,-1
 104 432 l 1,17,-1
 40 432 l 1,18,-1
 40 500 l 1,19,-1
 185 500 l 1,20,-1
 185 69 l 1,21,-1
 384 194 l 1,22,-1
 384 432 l 1,23,-1
 335 432 l 1,24,-1
 335 500 l 1,25,-1
 465 500 l 1,0,-1
213.5 632.5 m 128,-1,27
 226 619 226 619 226 601 c 128,-1,28
 226 583 226 583 213.5 570.5 c 128,-1,29
 201 558 201 558 183 558 c 128,-1,30
 165 558 165 558 152.5 570.5 c 128,-1,31
 140 583 140 583 140 601 c 128,-1,32
 140 619 140 619 153 632.5 c 128,-1,33
 166 646 166 646 183.5 646 c 128,-1,26
 201 646 201 646 213.5 632.5 c 128,-1,27
361.5 632.5 m 128,-1,35
 374 619 374 619 374 601 c 128,-1,36
 374 583 374 583 361.5 570.5 c 128,-1,37
 349 558 349 558 331 558 c 128,-1,38
 313 558 313 558 300.5 570.5 c 128,-1,39
 288 583 288 583 288 601 c 128,-1,40
 288 619 288 619 301 632.5 c 128,-1,41
 314 646 314 646 331.5 646 c 128,-1,34
 349 646 349 646 361.5 632.5 c 128,-1,35
EndSplineSet
EndChar

StartChar: Amacron
Encoding: 256 256 189
Width: 641
Flags: W
LayerCount: 2
Fore
SplineSet
409 330 m 1,0,-1
 320 682 l 1,1,-1
 231 330 l 1,2,-1
 409 330 l 1,0,-1
616 68 m 1,3,-1
 616 0 l 1,4,-1
 421 0 l 1,5,-1
 421 68 l 1,6,-1
 475 68 l 1,7,-1
 425 267 l 1,8,-1
 215 267 l 1,9,-1
 165 68 l 1,10,-1
 220 68 l 1,11,-1
 220 0 l 1,12,-1
 25 0 l 1,13,-1
 25 68 l 1,14,-1
 88 68 l 1,15,-1
 262 750 l 1,16,-1
 380 750 l 1,17,-1
 551 68 l 1,18,-1
 616 68 l 1,3,-1
193 888 m 1,19,-1
 448 888 l 1,20,-1
 448 825 l 1,21,-1
 193 825 l 1,22,-1
 193 888 l 1,19,-1
EndSplineSet
EndChar

StartChar: amacron
Encoding: 257 257 190
Width: 493
Flags: W
LayerCount: 2
Fore
SplineSet
453 68 m 1,0,-1
 453 0 l 1,1,-1
 105 0 l 2,2,3
 54 0 54 0 36 20 c 0,4,5
 20 38 20 38 20 88 c 2,6,-1
 20 125 l 2,7,8
 20 161 20 161 29 174 c 0,9,10
 42 193 42 193 88 221 c 2,11,-1
 308 358 l 1,12,-1
 308 432 l 1,13,-1
 112 432 l 1,14,-1
 112 374 l 1,15,-1
 48 374 l 1,16,-1
 48 500 l 1,17,-1
 298 500 l 2,18,19
 349 500 349 500 369.5 478 c 128,-1,20
 390 456 390 456 390 414 c 2,21,-1
 390 68 l 1,22,-1
 453 68 l 1,0,-1
308 278 m 1,23,-1
 100 148 l 1,24,-1
 100 68 l 1,25,-1
 308 68 l 1,26,-1
 308 278 l 1,23,-1
83 638 m 1,27,-1
 338 638 l 1,28,-1
 338 575 l 1,29,-1
 83 575 l 1,30,-1
 83 638 l 1,27,-1
EndSplineSet
EndChar

StartChar: Abreve
Encoding: 258 258 191
Width: 641
Flags: W
LayerCount: 2
Fore
SplineSet
616 68 m 1,0,-1
 616 0 l 1,1,-1
 421 0 l 1,2,-1
 421 68 l 1,3,-1
 475 68 l 1,4,-1
 425 267 l 1,5,-1
 215 267 l 1,6,-1
 165 68 l 1,7,-1
 220 68 l 1,8,-1
 220 0 l 1,9,-1
 25 0 l 1,10,-1
 25 68 l 1,11,-1
 88 68 l 1,12,-1
 262 750 l 1,13,-1
 380 750 l 1,14,-1
 551 68 l 1,15,-1
 616 68 l 1,0,-1
409 330 m 1,16,-1
 320 682 l 1,17,-1
 231 330 l 1,18,-1
 409 330 l 1,16,-1
474 947 m 1,19,20
 474 882 474 882 429 838 c 0,21,22
 383 794 383 794 321 794 c 0,23,24
 257 794 257 794 212 839 c 128,-1,25
 167 884 167 884 167 947 c 1,26,-1
 220 947 l 1,27,28
 220 907 220 907 249.5 877.5 c 128,-1,29
 279 848 279 848 321 848 c 0,30,31
 362 848 362 848 391.5 877.5 c 128,-1,32
 421 907 421 907 421 947 c 1,33,-1
 474 947 l 1,19,20
EndSplineSet
EndChar

StartChar: abreve
Encoding: 259 259 192
Width: 493
Flags: W
LayerCount: 2
Fore
SplineSet
453 68 m 1,0,-1
 453 0 l 1,1,-1
 105 0 l 2,2,3
 54 0 54 0 36 20 c 0,4,5
 20 38 20 38 20 88 c 2,6,-1
 20 125 l 2,7,8
 20 161 20 161 29 174 c 0,9,10
 42 193 42 193 88 221 c 2,11,-1
 308 358 l 1,12,-1
 308 432 l 1,13,-1
 112 432 l 1,14,-1
 112 374 l 1,15,-1
 48 374 l 1,16,-1
 48 500 l 1,17,-1
 298 500 l 2,18,19
 349 500 349 500 369.5 478 c 128,-1,20
 390 456 390 456 390 414 c 2,21,-1
 390 68 l 1,22,-1
 453 68 l 1,0,-1
308 278 m 1,23,-1
 100 148 l 1,24,-1
 100 68 l 1,25,-1
 308 68 l 1,26,-1
 308 278 l 1,23,-1
366 697 m 1,27,28
 366 632 366 632 321 588 c 0,29,30
 275 544 275 544 213 544 c 0,31,32
 149 544 149 544 104 589 c 128,-1,33
 59 634 59 634 59 697 c 1,34,-1
 112 697 l 1,35,36
 112 657 112 657 141.5 627.5 c 128,-1,37
 171 598 171 598 213 598 c 0,38,39
 254 598 254 598 283.5 627.5 c 128,-1,40
 313 657 313 657 313 697 c 1,41,-1
 366 697 l 1,27,28
EndSplineSet
EndChar

StartChar: Aogonek
Encoding: 260 260 193
Width: 641
Flags: W
LayerCount: 2
Fore
SplineSet
409 330 m 1,0,-1
 320 682 l 1,1,-1
 231 330 l 1,2,-1
 409 330 l 1,0,-1
616 68 m 1,3,-1
 616 0 l 1,4,-1
 421 0 l 1,5,-1
 421 68 l 1,6,-1
 475 68 l 1,7,-1
 425 267 l 1,8,-1
 215 267 l 1,9,-1
 165 68 l 1,10,-1
 220 68 l 1,11,-1
 220 0 l 1,12,-1
 25 0 l 1,13,-1
 25 68 l 1,14,-1
 88 68 l 1,15,-1
 262 750 l 1,16,-1
 380 750 l 1,17,-1
 551 68 l 1,18,-1
 616 68 l 1,3,-1
616 0 m 1,19,-1
 508 -89 l 1,20,-1
 508 -164 l 1,21,-1
 596 -164 l 1,22,-1
 596 -217 l 1,23,-1
 514 -217 l 2,24,25
 472 -217 472 -217 459 -197 c 128,-1,26
 446 -177 446 -177 446 -149 c 2,27,-1
 446 -118 l 2,28,29
 446 -89 446 -89 455 -75.5 c 128,-1,30
 464 -62 464 -62 474.5 -53.5 c 128,-1,31
 485 -45 485 -45 500 -34 c 2,32,-1
 544 0 l 1,33,-1
 616 0 l 1,19,-1
EndSplineSet
EndChar

StartChar: aogonek
Encoding: 261 261 194
Width: 493
Flags: W
LayerCount: 2
Fore
SplineSet
453 68 m 1,0,-1
 453 0 l 1,1,-1
 105 0 l 2,2,3
 54 0 54 0 36 20 c 0,4,5
 20 38 20 38 20 88 c 2,6,-1
 20 125 l 2,7,8
 20 161 20 161 29 174 c 0,9,10
 42 193 42 193 88 221 c 2,11,-1
 308 358 l 1,12,-1
 308 432 l 1,13,-1
 112 432 l 1,14,-1
 112 374 l 1,15,-1
 48 374 l 1,16,-1
 48 500 l 1,17,-1
 298 500 l 2,18,19
 349 500 349 500 369.5 478 c 128,-1,20
 390 456 390 456 390 414 c 2,21,-1
 390 68 l 1,22,-1
 453 68 l 1,0,-1
308 278 m 1,23,-1
 100 148 l 1,24,-1
 100 68 l 1,25,-1
 308 68 l 1,26,-1
 308 278 l 1,23,-1
453 0 m 1,27,-1
 345 -89 l 1,28,-1
 345 -164 l 1,29,-1
 433 -164 l 1,30,-1
 433 -217 l 1,31,-1
 351 -217 l 2,32,33
 309 -217 309 -217 296 -197 c 128,-1,34
 283 -177 283 -177 283 -149 c 2,35,-1
 283 -118 l 2,36,37
 283 -89 283 -89 292 -75.5 c 128,-1,38
 301 -62 301 -62 311.5 -53.5 c 128,-1,39
 322 -45 322 -45 337 -34 c 2,40,-1
 381 0 l 1,41,-1
 453 0 l 1,27,-1
EndSplineSet
EndChar

StartChar: Cacute
Encoding: 262 262 195
Width: 525
Flags: W
LayerCount: 2
Fore
SplineSet
407 68 m 1,0,-1
 142 68 l 1,1,-1
 142 682 l 1,2,-1
 407 682 l 1,3,-1
 407 565 l 1,4,-1
 475 565 l 1,5,-1
 475 750 l 1,6,-1
 158 750 l 2,7,8
 83 750 83 750 65 680 c 0,9,10
 60 661 60 661 60 642 c 2,11,-1
 60 107 l 2,12,13
 60 32 60 32 117 8 c 0,14,15
 138 0 138 0 168 0 c 2,16,-1
 475 0 l 1,17,-1
 475 185 l 1,18,-1
 407 185 l 1,19,-1
 407 68 l 1,0,-1
280 932 m 1,20,-1
 351 932 l 1,21,-1
 246 809 l 1,22,-1
 173 809 l 1,23,-1
 280 932 l 1,20,-1
EndSplineSet
EndChar

StartChar: cacute
Encoding: 263 263 196
Width: 426
Flags: W
LayerCount: 2
Fore
SplineSet
386 126 m 1,0,-1
 318 126 l 1,1,-1
 318 68 l 1,2,-1
 130 68 l 1,3,-1
 130 432 l 1,4,-1
 318 432 l 1,5,-1
 318 374 l 1,6,-1
 386 374 l 1,7,-1
 386 501 l 1,8,-1
 145 501 l 2,9,10
 97 501 97 501 73.5 477.5 c 128,-1,11
 50 454 50 454 50 412 c 2,12,-1
 50 88 l 2,13,14
 50 46 50 46 64 30 c 0,15,16
 89 0 89 0 137 0 c 2,17,-1
 386 0 l 1,18,-1
 386 126 l 1,0,-1
231 682 m 1,19,-1
 302 682 l 1,20,-1
 197 559 l 1,21,-1
 124 559 l 1,22,-1
 231 682 l 1,19,-1
EndSplineSet
EndChar

StartChar: Ccircumflex
Encoding: 264 264 197
Width: 525
Flags: W
LayerCount: 2
Fore
SplineSet
407 185 m 1,0,-1
 475 185 l 1,1,-1
 475 0 l 1,2,-1
 168 0 l 2,3,4
 84 0 84 0 66 66 c 0,5,6
 60 85 60 85 60 107 c 2,7,-1
 60 642 l 2,8,9
 60 715 60 715 111 740 c 0,10,11
 130 750 130 750 158 750 c 2,12,-1
 475 750 l 1,13,-1
 475 565 l 1,14,-1
 407 565 l 1,15,-1
 407 682 l 1,16,-1
 142 682 l 1,17,-1
 142 68 l 1,18,-1
 407 68 l 1,19,-1
 407 185 l 1,0,-1
405 809 m 1,20,-1
 332 809 l 1,21,-1
 263 889 l 1,22,-1
 193 809 l 1,23,-1
 119 809 l 1,24,-1
 231 932 l 1,25,-1
 298 932 l 1,26,-1
 405 809 l 1,20,-1
EndSplineSet
EndChar

StartChar: ccircumflex
Encoding: 265 265 198
Width: 426
Flags: W
LayerCount: 2
Fore
SplineSet
386 0 m 1,0,-1
 137 0 l 2,1,2
 65 0 65 0 54 54 c 0,3,4
 50 70 50 70 50 88 c 2,5,-1
 50 412 l 2,6,7
 50 454 50 454 73.5 477.5 c 128,-1,8
 97 501 97 501 145 501 c 2,9,-1
 386 501 l 1,10,-1
 386 374 l 1,11,-1
 318 374 l 1,12,-1
 318 432 l 1,13,-1
 130 432 l 1,14,-1
 130 68 l 1,15,-1
 318 68 l 1,16,-1
 318 126 l 1,17,-1
 386 126 l 1,18,-1
 386 0 l 1,0,-1
356 559 m 1,19,-1
 283 559 l 1,20,-1
 214 639 l 1,21,-1
 144 559 l 1,22,-1
 70 559 l 1,23,-1
 182 682 l 1,24,-1
 249 682 l 1,25,-1
 356 559 l 1,19,-1
EndSplineSet
EndChar

StartChar: Cdotaccent
Encoding: 266 266 199
Width: 525
Flags: W
LayerCount: 2
Fore
SplineSet
407 185 m 1,0,-1
 475 185 l 1,1,-1
 475 0 l 1,2,-1
 168 0 l 2,3,4
 84 0 84 0 66 66 c 0,5,6
 60 85 60 85 60 107 c 2,7,-1
 60 642 l 2,8,9
 60 715 60 715 111 740 c 0,10,11
 130 750 130 750 158 750 c 2,12,-1
 475 750 l 1,13,-1
 475 565 l 1,14,-1
 407 565 l 1,15,-1
 407 682 l 1,16,-1
 142 682 l 1,17,-1
 142 68 l 1,18,-1
 407 68 l 1,19,-1
 407 185 l 1,0,-1
292.5 904.5 m 128,-1,21
 305 891 305 891 305 873 c 128,-1,22
 305 855 305 855 292.5 842.5 c 128,-1,23
 280 830 280 830 262 830 c 128,-1,24
 244 830 244 830 231.5 842.5 c 128,-1,25
 219 855 219 855 219 873 c 128,-1,26
 219 891 219 891 232 904.5 c 128,-1,27
 245 918 245 918 262.5 918 c 128,-1,20
 280 918 280 918 292.5 904.5 c 128,-1,21
EndSplineSet
EndChar

StartChar: cdotaccent
Encoding: 267 267 200
Width: 426
Flags: W
LayerCount: 2
Fore
SplineSet
386 0 m 1,0,-1
 137 0 l 2,1,2
 65 0 65 0 54 54 c 0,3,4
 50 70 50 70 50 88 c 2,5,-1
 50 412 l 2,6,7
 50 454 50 454 73.5 477.5 c 128,-1,8
 97 501 97 501 145 501 c 2,9,-1
 386 501 l 1,10,-1
 386 374 l 1,11,-1
 318 374 l 1,12,-1
 318 432 l 1,13,-1
 130 432 l 1,14,-1
 130 68 l 1,15,-1
 318 68 l 1,16,-1
 318 126 l 1,17,-1
 386 126 l 1,18,-1
 386 0 l 1,0,-1
243.5 654.5 m 128,-1,20
 256 641 256 641 256 623 c 128,-1,21
 256 605 256 605 243.5 592.5 c 128,-1,22
 231 580 231 580 213 580 c 128,-1,23
 195 580 195 580 182.5 592.5 c 128,-1,24
 170 605 170 605 170 623 c 128,-1,25
 170 641 170 641 183 654.5 c 128,-1,26
 196 668 196 668 213.5 668 c 128,-1,19
 231 668 231 668 243.5 654.5 c 128,-1,20
EndSplineSet
EndChar

StartChar: Ccaron
Encoding: 268 268 201
Width: 525
Flags: W
LayerCount: 2
Fore
SplineSet
407 185 m 1,0,-1
 475 185 l 1,1,-1
 475 0 l 1,2,-1
 168 0 l 2,3,4
 84 0 84 0 66 66 c 0,5,6
 60 85 60 85 60 107 c 2,7,-1
 60 642 l 2,8,9
 60 715 60 715 111 740 c 0,10,11
 130 750 130 750 158 750 c 2,12,-1
 475 750 l 1,13,-1
 475 565 l 1,14,-1
 407 565 l 1,15,-1
 407 682 l 1,16,-1
 142 682 l 1,17,-1
 142 68 l 1,18,-1
 407 68 l 1,19,-1
 407 185 l 1,0,-1
298 809 m 1,20,-1
 231 809 l 1,21,-1
 119 932 l 1,22,-1
 193 932 l 1,23,-1
 263 852 l 1,24,-1
 332 932 l 1,25,-1
 405 932 l 1,26,-1
 298 809 l 1,20,-1
EndSplineSet
EndChar

StartChar: ccaron
Encoding: 269 269 202
Width: 426
Flags: W
LayerCount: 2
Fore
SplineSet
386 0 m 1,0,-1
 137 0 l 2,1,2
 65 0 65 0 54 54 c 0,3,4
 50 70 50 70 50 88 c 2,5,-1
 50 412 l 2,6,7
 50 454 50 454 73.5 477.5 c 128,-1,8
 97 501 97 501 145 501 c 2,9,-1
 386 501 l 1,10,-1
 386 374 l 1,11,-1
 318 374 l 1,12,-1
 318 432 l 1,13,-1
 130 432 l 1,14,-1
 130 68 l 1,15,-1
 318 68 l 1,16,-1
 318 126 l 1,17,-1
 386 126 l 1,18,-1
 386 0 l 1,0,-1
249 559 m 1,19,-1
 182 559 l 1,20,-1
 70 682 l 1,21,-1
 144 682 l 1,22,-1
 214 602 l 1,23,-1
 283 682 l 1,24,-1
 356 682 l 1,25,-1
 249 559 l 1,19,-1
EndSplineSet
EndChar

StartChar: Dcaron
Encoding: 270 270 203
Width: 604
Flags: W
LayerCount: 2
Fore
SplineSet
413 750 m 2,0,1
 487 750 487 750 515.5 717.5 c 128,-1,2
 544 685 544 685 544 619 c 2,3,-1
 544 131 l 2,4,5
 544 62 544 62 512 31 c 128,-1,6
 480 0 480 0 413 0 c 2,7,-1
 60 0 l 1,8,-1
 60 68 l 1,9,-1
 123 68 l 1,10,-1
 123 682 l 1,11,-1
 60 682 l 1,12,-1
 60 750 l 1,13,-1
 413 750 l 2,0,1
462 682 m 1,14,-1
 205 682 l 1,15,-1
 205 68 l 1,16,-1
 462 68 l 1,17,-1
 462 682 l 1,14,-1
338 809 m 1,18,-1
 271 809 l 1,19,-1
 159 932 l 1,20,-1
 233 932 l 1,21,-1
 303 852 l 1,22,-1
 372 932 l 1,23,-1
 445 932 l 1,24,-1
 338 809 l 1,18,-1
EndSplineSet
EndChar

StartChar: dcaron
Encoding: 271 271 204
Width: 611
Flags: W
LayerCount: 2
Fore
SplineSet
487 69 m 1,0,-1
 487 0 l 1,1,-1
 342 0 l 1,2,-1
 342 115 l 1,3,-1
 169 6 l 1,4,5
 138 -10 138 -10 110.5 -10 c 128,-1,6
 83 -10 83 -10 66.5 10 c 128,-1,7
 50 30 50 30 50 56 c 2,8,-1
 50 406 l 2,9,10
 50 452 50 452 64 469 c 0,11,12
 88 500 88 500 140 500 c 2,13,-1
 342 500 l 1,14,-1
 342 682 l 1,15,-1
 276 682 l 1,16,-1
 276 750 l 1,17,-1
 424 750 l 1,18,-1
 424 69 l 1,19,-1
 487 69 l 1,0,-1
342 432 m 1,20,-1
 130 432 l 1,21,-1
 130 63 l 1,22,-1
 342 195 l 1,23,-1
 342 432 l 1,20,-1
528 510 m 1,24,-1
 455 510 l 1,25,-1
 530 750 l 1,26,-1
 604 750 l 1,27,-1
 528 510 l 1,24,-1
EndSplineSet
EndChar

StartChar: Dcroat
Encoding: 272 272 205
Width: 604
Flags: W
LayerCount: 2
Fore
SplineSet
53 420 m 1,0,-1
 123 420 l 1,1,-1
 123 682 l 1,2,-1
 60 682 l 1,3,-1
 60 750 l 1,4,-1
 413 750 l 2,5,6
 487 750 487 750 515.5 717.5 c 128,-1,7
 544 685 544 685 544 619 c 2,8,-1
 544 131 l 2,9,10
 544 62 544 62 512 31 c 128,-1,11
 480 0 480 0 413 0 c 2,12,-1
 60 0 l 1,13,-1
 60 68 l 1,14,-1
 123 68 l 1,15,-1
 123 354 l 1,16,-1
 53 354 l 1,17,-1
 53 420 l 1,0,-1
462 682 m 1,18,-1
 205 682 l 1,19,-1
 205 420 l 1,20,-1
 328 420 l 1,21,-1
 328 354 l 1,22,-1
 205 354 l 1,23,-1
 205 68 l 1,24,-1
 462 68 l 1,25,-1
 462 682 l 1,18,-1
EndSplineSet
EndChar

StartChar: dcroat
Encoding: 273 273 206
Width: 527
Flags: W
LayerCount: 2
Fore
SplineSet
342 632 m 1,0,-1
 342 682 l 1,1,-1
 276 682 l 1,2,-1
 276 750 l 1,3,-1
 424 750 l 1,4,-1
 424 632 l 1,5,-1
 487 632 l 1,6,-1
 487 569 l 1,7,-1
 424 569 l 1,8,-1
 424 69 l 1,9,-1
 487 69 l 1,10,-1
 487 0 l 1,11,-1
 342 0 l 1,12,-1
 342 115 l 1,13,-1
 169 6 l 1,14,15
 138 -10 138 -10 110.5 -10 c 128,-1,16
 83 -10 83 -10 66.5 10 c 128,-1,17
 50 30 50 30 50 56 c 2,18,-1
 50 406 l 2,19,20
 50 452 50 452 64 469 c 0,21,22
 88 500 88 500 140 500 c 2,23,-1
 342 500 l 1,24,-1
 342 569 l 1,25,-1
 260 569 l 1,26,-1
 260 632 l 1,27,-1
 342 632 l 1,0,-1
342 432 m 1,28,-1
 130 432 l 1,29,-1
 130 63 l 1,30,-1
 342 195 l 1,31,-1
 342 432 l 1,28,-1
EndSplineSet
EndChar

StartChar: Emacron
Encoding: 274 274 207
Width: 584
Flags: W
LayerCount: 2
Fore
SplineSet
419 493 m 1,0,-1
 419 283 l 1,1,-1
 351 283 l 1,2,-1
 351 354 l 1,3,-1
 210 354 l 1,4,-1
 210 68 l 1,5,-1
 466 68 l 1,6,-1
 466 185 l 1,7,-1
 534 185 l 1,8,-1
 534 0 l 1,9,-1
 65 0 l 1,10,-1
 65 68 l 1,11,-1
 128 68 l 1,12,-1
 128 682 l 1,13,-1
 65 682 l 1,14,-1
 65 750 l 1,15,-1
 534 750 l 1,16,-1
 534 565 l 1,17,-1
 466 565 l 1,18,-1
 466 682 l 1,19,-1
 210 682 l 1,20,-1
 210 422 l 1,21,-1
 351 422 l 1,22,-1
 351 493 l 1,23,-1
 419 493 l 1,0,-1
164 888 m 1,24,-1
 419 888 l 1,25,-1
 419 825 l 1,26,-1
 164 825 l 1,27,-1
 164 888 l 1,24,-1
EndSplineSet
EndChar

StartChar: emacron
Encoding: 275 275 208
Width: 465
Flags: W
LayerCount: 2
Fore
SplineSet
50 402 m 2,0,1
 50 501 50 501 153 501 c 2,2,-1
 322 501 l 2,3,4
 371 501 371 501 393 482 c 128,-1,5
 415 463 415 463 415 412 c 2,6,-1
 415 319 l 1,7,-1
 130 139 l 1,8,-1
 130 68 l 1,9,-1
 336 68 l 1,10,-1
 336 126 l 1,11,-1
 415 126 l 1,12,-1
 415 73 l 2,13,14
 415 43 415 43 396.5 21.5 c 128,-1,15
 378 0 378 0 335 0 c 2,16,-1
 130 0 l 2,17,18
 87 0 87 0 68.5 21.5 c 128,-1,19
 50 43 50 43 50 73 c 2,20,-1
 50 402 l 2,0,1
130 220 m 1,21,-1
 335 349 l 1,22,-1
 335 432 l 1,23,-1
 130 432 l 1,24,-1
 130 220 l 1,21,-1
105 638 m 1,25,-1
 360 638 l 1,26,-1
 360 575 l 1,27,-1
 105 575 l 1,28,-1
 105 638 l 1,25,-1
EndSplineSet
EndChar

StartChar: Ebreve
Encoding: 276 276 209
Width: 584
Flags: W
LayerCount: 2
Fore
SplineSet
419 493 m 1,0,-1
 419 283 l 1,1,-1
 351 283 l 1,2,-1
 351 354 l 1,3,-1
 210 354 l 1,4,-1
 210 68 l 1,5,-1
 466 68 l 1,6,-1
 466 185 l 1,7,-1
 534 185 l 1,8,-1
 534 0 l 1,9,-1
 65 0 l 1,10,-1
 65 68 l 1,11,-1
 128 68 l 1,12,-1
 128 682 l 1,13,-1
 65 682 l 1,14,-1
 65 750 l 1,15,-1
 534 750 l 1,16,-1
 534 565 l 1,17,-1
 466 565 l 1,18,-1
 466 682 l 1,19,-1
 210 682 l 1,20,-1
 210 422 l 1,21,-1
 351 422 l 1,22,-1
 351 493 l 1,23,-1
 419 493 l 1,0,-1
445 947 m 1,24,25
 445 882 445 882 400 838 c 0,26,27
 354 794 354 794 292 794 c 0,28,29
 228 794 228 794 183 839 c 128,-1,30
 138 884 138 884 138 947 c 1,31,-1
 191 947 l 1,32,33
 191 907 191 907 220.5 877.5 c 128,-1,34
 250 848 250 848 292 848 c 0,35,36
 333 848 333 848 362.5 877.5 c 128,-1,37
 392 907 392 907 392 947 c 1,38,-1
 445 947 l 1,24,25
EndSplineSet
EndChar

StartChar: ebreve
Encoding: 277 277 210
Width: 465
Flags: W
LayerCount: 2
Fore
SplineSet
50 402 m 2,0,1
 50 501 50 501 153 501 c 2,2,-1
 322 501 l 2,3,4
 371 501 371 501 393 482 c 128,-1,5
 415 463 415 463 415 412 c 2,6,-1
 415 319 l 1,7,-1
 130 139 l 1,8,-1
 130 68 l 1,9,-1
 336 68 l 1,10,-1
 336 126 l 1,11,-1
 415 126 l 1,12,-1
 415 73 l 2,13,14
 415 43 415 43 396.5 21.5 c 128,-1,15
 378 0 378 0 335 0 c 2,16,-1
 130 0 l 2,17,18
 87 0 87 0 68.5 21.5 c 128,-1,19
 50 43 50 43 50 73 c 2,20,-1
 50 402 l 2,0,1
130 220 m 1,21,-1
 335 349 l 1,22,-1
 335 432 l 1,23,-1
 130 432 l 1,24,-1
 130 220 l 1,21,-1
386 697 m 1,25,26
 386 632 386 632 341 588 c 0,27,28
 295 544 295 544 233 544 c 0,29,30
 169 544 169 544 124 589 c 128,-1,31
 79 634 79 634 79 697 c 1,32,-1
 132 697 l 1,33,34
 132 657 132 657 161.5 627.5 c 128,-1,35
 191 598 191 598 233 598 c 0,36,37
 274 598 274 598 303.5 627.5 c 128,-1,38
 333 657 333 657 333 697 c 1,39,-1
 386 697 l 1,25,26
EndSplineSet
EndChar

StartChar: Edotaccent
Encoding: 278 278 211
Width: 584
Flags: W
LayerCount: 2
Fore
SplineSet
419 493 m 1,0,-1
 419 283 l 1,1,-1
 351 283 l 1,2,-1
 351 354 l 1,3,-1
 210 354 l 1,4,-1
 210 68 l 1,5,-1
 466 68 l 1,6,-1
 466 185 l 1,7,-1
 534 185 l 1,8,-1
 534 0 l 1,9,-1
 65 0 l 1,10,-1
 65 68 l 1,11,-1
 128 68 l 1,12,-1
 128 682 l 1,13,-1
 65 682 l 1,14,-1
 65 750 l 1,15,-1
 534 750 l 1,16,-1
 534 565 l 1,17,-1
 466 565 l 1,18,-1
 466 682 l 1,19,-1
 210 682 l 1,20,-1
 210 422 l 1,21,-1
 351 422 l 1,22,-1
 351 493 l 1,23,-1
 419 493 l 1,0,-1
322.5 904.5 m 128,-1,25
 335 891 335 891 335 873 c 128,-1,26
 335 855 335 855 322.5 842.5 c 128,-1,27
 310 830 310 830 292 830 c 128,-1,28
 274 830 274 830 261.5 842.5 c 128,-1,29
 249 855 249 855 249 873 c 128,-1,30
 249 891 249 891 262 904.5 c 128,-1,31
 275 918 275 918 292.5 918 c 128,-1,24
 310 918 310 918 322.5 904.5 c 128,-1,25
EndSplineSet
EndChar

StartChar: edotaccent
Encoding: 279 279 212
Width: 465
Flags: W
LayerCount: 2
Fore
SplineSet
50 402 m 2,0,1
 50 501 50 501 153 501 c 2,2,-1
 322 501 l 2,3,4
 371 501 371 501 393 482 c 128,-1,5
 415 463 415 463 415 412 c 2,6,-1
 415 319 l 1,7,-1
 130 139 l 1,8,-1
 130 68 l 1,9,-1
 336 68 l 1,10,-1
 336 126 l 1,11,-1
 415 126 l 1,12,-1
 415 73 l 2,13,14
 415 43 415 43 396.5 21.5 c 128,-1,15
 378 0 378 0 335 0 c 2,16,-1
 130 0 l 2,17,18
 87 0 87 0 68.5 21.5 c 128,-1,19
 50 43 50 43 50 73 c 2,20,-1
 50 402 l 2,0,1
130 220 m 1,21,-1
 335 349 l 1,22,-1
 335 432 l 1,23,-1
 130 432 l 1,24,-1
 130 220 l 1,21,-1
262.5 654.5 m 128,-1,26
 275 641 275 641 275 623 c 128,-1,27
 275 605 275 605 262.5 592.5 c 128,-1,28
 250 580 250 580 232 580 c 128,-1,29
 214 580 214 580 201.5 592.5 c 128,-1,30
 189 605 189 605 189 623 c 128,-1,31
 189 641 189 641 202 654.5 c 128,-1,32
 215 668 215 668 232.5 668 c 128,-1,25
 250 668 250 668 262.5 654.5 c 128,-1,26
EndSplineSet
EndChar

StartChar: Eogonek
Encoding: 280 280 213
Width: 584
Flags: W
LayerCount: 2
Fore
SplineSet
419 493 m 1,0,-1
 419 283 l 1,1,-1
 351 283 l 1,2,-1
 351 354 l 1,3,-1
 210 354 l 1,4,-1
 210 68 l 1,5,-1
 466 68 l 1,6,-1
 466 185 l 1,7,-1
 534 185 l 1,8,-1
 534 0 l 1,9,-1
 65 0 l 1,10,-1
 65 68 l 1,11,-1
 128 68 l 1,12,-1
 128 682 l 1,13,-1
 65 682 l 1,14,-1
 65 750 l 1,15,-1
 534 750 l 1,16,-1
 534 565 l 1,17,-1
 466 565 l 1,18,-1
 466 682 l 1,19,-1
 210 682 l 1,20,-1
 210 422 l 1,21,-1
 351 422 l 1,22,-1
 351 493 l 1,23,-1
 419 493 l 1,0,-1
534 0 m 1,24,-1
 426 -89 l 1,25,-1
 426 -164 l 1,26,-1
 514 -164 l 1,27,-1
 514 -217 l 1,28,-1
 432 -217 l 2,29,30
 390 -217 390 -217 377 -197 c 128,-1,31
 364 -177 364 -177 364 -149 c 2,32,-1
 364 -118 l 2,33,34
 364 -89 364 -89 373 -75.5 c 128,-1,35
 382 -62 382 -62 392.5 -53.5 c 128,-1,36
 403 -45 403 -45 418 -34 c 2,37,-1
 462 0 l 1,38,-1
 534 0 l 1,24,-1
EndSplineSet
EndChar

StartChar: eogonek
Encoding: 281 281 214
Width: 465
Flags: W
LayerCount: 2
Fore
SplineSet
50 402 m 2,0,1
 50 501 50 501 153 501 c 2,2,-1
 322 501 l 2,3,4
 371 501 371 501 393 482 c 128,-1,5
 415 463 415 463 415 412 c 2,6,-1
 415 319 l 1,7,-1
 130 139 l 1,8,-1
 130 68 l 1,9,-1
 336 68 l 1,10,-1
 336 126 l 1,11,-1
 415 126 l 1,12,-1
 415 73 l 2,13,14
 415 43 415 43 396.5 21.5 c 128,-1,15
 378 0 378 0 335 0 c 2,16,-1
 130 0 l 2,17,18
 87 0 87 0 68.5 21.5 c 128,-1,19
 50 43 50 43 50 73 c 2,20,-1
 50 402 l 2,0,1
130 220 m 1,21,-1
 335 349 l 1,22,-1
 335 432 l 1,23,-1
 130 432 l 1,24,-1
 130 220 l 1,21,-1
328 0 m 1,25,-1
 220 -89 l 1,26,-1
 220 -164 l 1,27,-1
 308 -164 l 1,28,-1
 308 -217 l 1,29,-1
 226 -217 l 2,30,31
 184 -217 184 -217 171 -197 c 128,-1,32
 158 -177 158 -177 158 -149 c 2,33,-1
 158 -118 l 2,34,35
 158 -89 158 -89 167 -75.5 c 128,-1,36
 176 -62 176 -62 186.5 -53.5 c 128,-1,37
 197 -45 197 -45 212 -34 c 2,38,-1
 256 0 l 1,39,-1
 328 0 l 1,25,-1
EndSplineSet
EndChar

StartChar: Ecaron
Encoding: 282 282 215
Width: 584
Flags: W
LayerCount: 2
Fore
SplineSet
419 493 m 1,0,-1
 419 283 l 1,1,-1
 351 283 l 1,2,-1
 351 354 l 1,3,-1
 210 354 l 1,4,-1
 210 68 l 1,5,-1
 466 68 l 1,6,-1
 466 185 l 1,7,-1
 534 185 l 1,8,-1
 534 0 l 1,9,-1
 65 0 l 1,10,-1
 65 68 l 1,11,-1
 128 68 l 1,12,-1
 128 682 l 1,13,-1
 65 682 l 1,14,-1
 65 750 l 1,15,-1
 534 750 l 1,16,-1
 534 565 l 1,17,-1
 466 565 l 1,18,-1
 466 682 l 1,19,-1
 210 682 l 1,20,-1
 210 422 l 1,21,-1
 351 422 l 1,22,-1
 351 493 l 1,23,-1
 419 493 l 1,0,-1
328 809 m 1,24,-1
 261 809 l 1,25,-1
 149 932 l 1,26,-1
 223 932 l 1,27,-1
 293 852 l 1,28,-1
 362 932 l 1,29,-1
 435 932 l 1,30,-1
 328 809 l 1,24,-1
EndSplineSet
EndChar

StartChar: ecaron
Encoding: 283 283 216
Width: 465
Flags: W
LayerCount: 2
Fore
SplineSet
50 402 m 2,0,1
 50 501 50 501 153 501 c 2,2,-1
 322 501 l 2,3,4
 371 501 371 501 393 482 c 128,-1,5
 415 463 415 463 415 412 c 2,6,-1
 415 319 l 1,7,-1
 130 139 l 1,8,-1
 130 68 l 1,9,-1
 336 68 l 1,10,-1
 336 126 l 1,11,-1
 415 126 l 1,12,-1
 415 73 l 2,13,14
 415 43 415 43 396.5 21.5 c 128,-1,15
 378 0 378 0 335 0 c 2,16,-1
 130 0 l 2,17,18
 87 0 87 0 68.5 21.5 c 128,-1,19
 50 43 50 43 50 73 c 2,20,-1
 50 402 l 2,0,1
130 220 m 1,21,-1
 335 349 l 1,22,-1
 335 432 l 1,23,-1
 130 432 l 1,24,-1
 130 220 l 1,21,-1
268 559 m 1,25,-1
 201 559 l 1,26,-1
 89 682 l 1,27,-1
 163 682 l 1,28,-1
 233 602 l 1,29,-1
 302 682 l 1,30,-1
 375 682 l 1,31,-1
 268 559 l 1,25,-1
EndSplineSet
EndChar

StartChar: Gcircumflex
Encoding: 284 284 217
Width: 542
Flags: W
LayerCount: 2
Fore
SplineSet
60 635 m 2,0,1
 60 750 60 750 167 750 c 2,2,-1
 482 750 l 1,3,-1
 482 565 l 1,4,-1
 402 565 l 1,5,-1
 402 682 l 1,6,-1
 142 682 l 1,7,-1
 142 68 l 1,8,-1
 402 68 l 1,9,-1
 402 302 l 1,10,-1
 263 215 l 1,11,-1
 263 288 l 1,12,-1
 482 425 l 1,13,-1
 482 0 l 1,14,-1
 185 0 l 2,15,16
 114 0 114 0 88 26 c 0,17,18
 60 53 60 53 60 124 c 2,19,-1
 60 635 l 2,0,1
414 809 m 1,20,-1
 341 809 l 1,21,-1
 272 889 l 1,22,-1
 202 809 l 1,23,-1
 128 809 l 1,24,-1
 240 932 l 1,25,-1
 307 932 l 1,26,-1
 414 809 l 1,20,-1
EndSplineSet
EndChar

StartChar: gcircumflex
Encoding: 285 285 218
Width: 523
Flags: W
LayerCount: 2
Fore
SplineSet
420 432 m 1,0,-1
 420 -133 l 2,1,2
 420 -175 420 -175 399.5 -197 c 128,-1,3
 379 -219 379 -219 328 -219 c 2,4,-1
 86 -219 l 1,5,-1
 86 -83 l 1,6,-1
 154 -83 l 1,7,-1
 154 -150 l 1,8,-1
 338 -150 l 1,9,-1
 338 111 l 1,10,-1
 167 3 l 2,11,12
 145 -10 145 -10 118.5 -10 c 128,-1,13
 92 -10 92 -10 71 10.5 c 128,-1,14
 50 31 50 31 50 61 c 2,15,-1
 50 412 l 2,16,17
 50 461 50 461 63 476 c 0,18,19
 85 500 85 500 135 500 c 2,20,-1
 483 500 l 1,21,-1
 483 432 l 1,22,-1
 420 432 l 1,0,-1
338 432 m 1,23,-1
 128 432 l 1,24,-1
 128 60 l 1,25,-1
 338 192 l 1,26,-1
 338 432 l 1,23,-1
404 559 m 1,27,-1
 331 559 l 1,28,-1
 262 639 l 1,29,-1
 192 559 l 1,30,-1
 118 559 l 1,31,-1
 230 682 l 1,32,-1
 297 682 l 1,33,-1
 404 559 l 1,27,-1
EndSplineSet
EndChar

StartChar: Gbreve
Encoding: 286 286 219
Width: 542
Flags: W
LayerCount: 2
Fore
SplineSet
60 635 m 2,0,1
 60 750 60 750 167 750 c 2,2,-1
 482 750 l 1,3,-1
 482 565 l 1,4,-1
 402 565 l 1,5,-1
 402 682 l 1,6,-1
 142 682 l 1,7,-1
 142 68 l 1,8,-1
 402 68 l 1,9,-1
 402 302 l 1,10,-1
 263 215 l 1,11,-1
 263 288 l 1,12,-1
 482 425 l 1,13,-1
 482 0 l 1,14,-1
 185 0 l 2,15,16
 114 0 114 0 88 26 c 0,17,18
 60 53 60 53 60 124 c 2,19,-1
 60 635 l 2,0,1
424 947 m 1,20,21
 424 882 424 882 379 838 c 0,22,23
 333 794 333 794 271 794 c 0,24,25
 207 794 207 794 162 839 c 128,-1,26
 117 884 117 884 117 947 c 1,27,-1
 170 947 l 1,28,29
 170 907 170 907 199.5 877.5 c 128,-1,30
 229 848 229 848 271 848 c 0,31,32
 312 848 312 848 341.5 877.5 c 128,-1,33
 371 907 371 907 371 947 c 1,34,-1
 424 947 l 1,20,21
EndSplineSet
EndChar

StartChar: gbreve
Encoding: 287 287 220
Width: 523
Flags: W
LayerCount: 2
Fore
SplineSet
420 432 m 1,0,-1
 420 -133 l 2,1,2
 420 -175 420 -175 399.5 -197 c 128,-1,3
 379 -219 379 -219 328 -219 c 2,4,-1
 86 -219 l 1,5,-1
 86 -83 l 1,6,-1
 154 -83 l 1,7,-1
 154 -150 l 1,8,-1
 338 -150 l 1,9,-1
 338 111 l 1,10,-1
 167 3 l 2,11,12
 145 -10 145 -10 118.5 -10 c 128,-1,13
 92 -10 92 -10 71 10.5 c 128,-1,14
 50 31 50 31 50 61 c 2,15,-1
 50 412 l 2,16,17
 50 461 50 461 63 476 c 0,18,19
 85 500 85 500 135 500 c 2,20,-1
 483 500 l 1,21,-1
 483 432 l 1,22,-1
 420 432 l 1,0,-1
338 432 m 1,23,-1
 128 432 l 1,24,-1
 128 60 l 1,25,-1
 338 192 l 1,26,-1
 338 432 l 1,23,-1
415 697 m 1,27,28
 415 632 415 632 370 588 c 0,29,30
 324 544 324 544 262 544 c 0,31,32
 198 544 198 544 153 589 c 128,-1,33
 108 634 108 634 108 697 c 1,34,-1
 161 697 l 1,35,36
 161 657 161 657 190.5 627.5 c 128,-1,37
 220 598 220 598 262 598 c 0,38,39
 303 598 303 598 332.5 627.5 c 128,-1,40
 362 657 362 657 362 697 c 1,41,-1
 415 697 l 1,27,28
EndSplineSet
EndChar

StartChar: Gdotaccent
Encoding: 288 288 221
Width: 542
Flags: W
LayerCount: 2
Fore
SplineSet
60 635 m 2,0,1
 60 750 60 750 167 750 c 2,2,-1
 482 750 l 1,3,-1
 482 565 l 1,4,-1
 402 565 l 1,5,-1
 402 682 l 1,6,-1
 142 682 l 1,7,-1
 142 68 l 1,8,-1
 402 68 l 1,9,-1
 402 302 l 1,10,-1
 263 215 l 1,11,-1
 263 288 l 1,12,-1
 482 425 l 1,13,-1
 482 0 l 1,14,-1
 185 0 l 2,15,16
 114 0 114 0 88 26 c 0,17,18
 60 53 60 53 60 124 c 2,19,-1
 60 635 l 2,0,1
301.5 904.5 m 128,-1,21
 314 891 314 891 314 873 c 128,-1,22
 314 855 314 855 301.5 842.5 c 128,-1,23
 289 830 289 830 271 830 c 128,-1,24
 253 830 253 830 240.5 842.5 c 128,-1,25
 228 855 228 855 228 873 c 128,-1,26
 228 891 228 891 241 904.5 c 128,-1,27
 254 918 254 918 271.5 918 c 128,-1,20
 289 918 289 918 301.5 904.5 c 128,-1,21
EndSplineSet
EndChar

StartChar: gdotaccent
Encoding: 289 289 222
Width: 523
Flags: W
LayerCount: 2
Fore
SplineSet
420 432 m 1,0,-1
 420 -133 l 2,1,2
 420 -175 420 -175 399.5 -197 c 128,-1,3
 379 -219 379 -219 328 -219 c 2,4,-1
 86 -219 l 1,5,-1
 86 -83 l 1,6,-1
 154 -83 l 1,7,-1
 154 -150 l 1,8,-1
 338 -150 l 1,9,-1
 338 111 l 1,10,-1
 167 3 l 2,11,12
 145 -10 145 -10 118.5 -10 c 128,-1,13
 92 -10 92 -10 71 10.5 c 128,-1,14
 50 31 50 31 50 61 c 2,15,-1
 50 412 l 2,16,17
 50 461 50 461 63 476 c 0,18,19
 85 500 85 500 135 500 c 2,20,-1
 483 500 l 1,21,-1
 483 432 l 1,22,-1
 420 432 l 1,0,-1
338 432 m 1,23,-1
 128 432 l 1,24,-1
 128 60 l 1,25,-1
 338 192 l 1,26,-1
 338 432 l 1,23,-1
291.5 654.5 m 128,-1,28
 304 641 304 641 304 623 c 128,-1,29
 304 605 304 605 291.5 592.5 c 128,-1,30
 279 580 279 580 261 580 c 128,-1,31
 243 580 243 580 230.5 592.5 c 128,-1,32
 218 605 218 605 218 623 c 128,-1,33
 218 641 218 641 231 654.5 c 128,-1,34
 244 668 244 668 261.5 668 c 128,-1,27
 279 668 279 668 291.5 654.5 c 128,-1,28
EndSplineSet
EndChar

StartChar: uni0122
Encoding: 290 290 223
Width: 542
Flags: W
LayerCount: 2
Fore
SplineSet
60 635 m 2,0,1
 60 750 60 750 167 750 c 2,2,-1
 482 750 l 1,3,-1
 482 565 l 1,4,-1
 402 565 l 1,5,-1
 402 682 l 1,6,-1
 142 682 l 1,7,-1
 142 68 l 1,8,-1
 402 68 l 1,9,-1
 402 302 l 1,10,-1
 263 215 l 1,11,-1
 263 288 l 1,12,-1
 482 425 l 1,13,-1
 482 0 l 1,14,-1
 185 0 l 2,15,16
 114 0 114 0 88 26 c 0,17,18
 60 53 60 53 60 124 c 2,19,-1
 60 635 l 2,0,1
289 -75 m 1,20,-1
 360 -75 l 1,21,-1
 255 -198 l 1,22,-1
 182 -198 l 1,23,-1
 289 -75 l 1,20,-1
EndSplineSet
EndChar

StartChar: uni0123
Encoding: 291 291 224
Width: 523
Flags: W
LayerCount: 2
Fore
SplineSet
291 681 m 1,0,-1
 362 681 l 1,1,-1
 257 558 l 1,2,-1
 184 558 l 1,3,-1
 291 681 l 1,0,-1
483 432 m 1,4,-1
 483 500 l 1,5,-1
 135 500 l 2,6,7
 85 500 85 500 66 480 c 1,8,9
 50 461 50 461 50 412 c 2,10,-1
 50 61 l 2,11,12
 50 31 50 31 71 10.5 c 128,-1,13
 92 -10 92 -10 118.5 -10 c 128,-1,14
 145 -10 145 -10 167 3 c 2,15,-1
 338 111 l 1,16,-1
 338 -150 l 1,17,-1
 154 -150 l 1,18,-1
 154 -83 l 1,19,-1
 86 -83 l 1,20,-1
 86 -219 l 1,21,-1
 328 -219 l 2,22,23
 379 -219 379 -219 399.5 -197 c 128,-1,24
 420 -175 420 -175 420 -133 c 2,25,-1
 420 432 l 1,26,-1
 483 432 l 1,4,-1
338 192 m 1,27,-1
 128 60 l 1,28,-1
 128 432 l 1,29,-1
 338 432 l 1,30,-1
 338 192 l 1,27,-1
EndSplineSet
EndChar

StartChar: Hcircumflex
Encoding: 292 292 225
Width: 698
Flags: W
LayerCount: 2
Fore
SplineSet
570 682 m 1,0,-1
 570 68 l 1,1,-1
 633 68 l 1,2,-1
 633 0 l 1,3,-1
 427 0 l 1,4,-1
 427 68 l 1,5,-1
 488 68 l 1,6,-1
 488 354 l 1,7,-1
 210 354 l 1,8,-1
 210 68 l 1,9,-1
 271 68 l 1,10,-1
 271 0 l 1,11,-1
 65 0 l 1,12,-1
 65 68 l 1,13,-1
 128 68 l 1,14,-1
 128 682 l 1,15,-1
 65 682 l 1,16,-1
 65 750 l 1,17,-1
 271 750 l 1,18,-1
 271 682 l 1,19,-1
 210 682 l 1,20,-1
 210 421 l 1,21,-1
 488 421 l 1,22,-1
 488 682 l 1,23,-1
 427 682 l 1,24,-1
 427 750 l 1,25,-1
 633 750 l 1,26,-1
 633 682 l 1,27,-1
 570 682 l 1,0,-1
492 809 m 1,28,-1
 419 809 l 1,29,-1
 350 889 l 1,30,-1
 280 809 l 1,31,-1
 206 809 l 1,32,-1
 318 932 l 1,33,-1
 385 932 l 1,34,-1
 492 809 l 1,28,-1
EndSplineSet
EndChar

StartChar: hcircumflex
Encoding: 293 293 226
Width: 568
Flags: W
LayerCount: 2
Fore
SplineSet
528 68 m 1,0,-1
 528 0 l 1,1,-1
 335 0 l 1,2,-1
 335 68 l 1,3,-1
 383 68 l 1,4,-1
 383 438 l 1,5,-1
 184 313 l 1,6,-1
 184 68 l 1,7,-1
 233 68 l 1,8,-1
 233 0 l 1,9,-1
 40 0 l 1,10,-1
 40 68 l 1,11,-1
 103 68 l 1,12,-1
 103 682 l 1,13,-1
 40 682 l 1,14,-1
 40 750 l 1,15,-1
 184 750 l 1,16,-1
 184 394 l 1,17,-1
 350 498 l 2,18,19
 369 510 369 510 395 510 c 128,-1,20
 421 510 421 510 442.5 489.5 c 128,-1,21
 464 469 464 469 464 431 c 2,22,-1
 464 68 l 1,23,-1
 528 68 l 1,0,-1
493 627 m 1,24,-1
 420 627 l 1,25,-1
 351 707 l 1,26,-1
 281 627 l 1,27,-1
 207 627 l 1,28,-1
 319 750 l 1,29,-1
 386 750 l 1,30,-1
 493 627 l 1,24,-1
EndSplineSet
EndChar

StartChar: Hbar
Encoding: 294 294 227
Width: 698
Flags: W
LayerCount: 2
Fore
SplineSet
69 563 m 1,0,-1
 128 563 l 1,1,-1
 128 682 l 1,2,-1
 65 682 l 1,3,-1
 65 750 l 1,4,-1
 271 750 l 1,5,-1
 271 682 l 1,6,-1
 210 682 l 1,7,-1
 210 563 l 1,8,-1
 488 563 l 1,9,-1
 488 682 l 1,10,-1
 427 682 l 1,11,-1
 427 750 l 1,12,-1
 633 750 l 1,13,-1
 633 682 l 1,14,-1
 570 682 l 1,15,-1
 570 563 l 1,16,-1
 630 563 l 1,17,-1
 630 500 l 1,18,-1
 570 500 l 1,19,-1
 570 68 l 1,20,-1
 633 68 l 1,21,-1
 633 0 l 1,22,-1
 427 0 l 1,23,-1
 427 68 l 1,24,-1
 488 68 l 1,25,-1
 488 354 l 1,26,-1
 210 354 l 1,27,-1
 210 68 l 1,28,-1
 271 68 l 1,29,-1
 271 0 l 1,30,-1
 65 0 l 1,31,-1
 65 68 l 1,32,-1
 128 68 l 1,33,-1
 128 500 l 1,34,-1
 69 500 l 1,35,-1
 69 563 l 1,0,-1
488 421 m 1,36,-1
 488 500 l 1,37,-1
 210 500 l 1,38,-1
 210 421 l 1,39,-1
 488 421 l 1,36,-1
EndSplineSet
EndChar

StartChar: hbar
Encoding: 295 295 228
Width: 568
Flags: W
LayerCount: 2
Fore
SplineSet
42 604 m 1,0,-1
 103 604 l 1,1,-1
 103 682 l 1,2,-1
 40 682 l 1,3,-1
 40 750 l 1,4,-1
 184 750 l 1,5,-1
 184 604 l 1,6,-1
 297 604 l 1,7,-1
 297 541 l 1,8,-1
 184 541 l 1,9,-1
 184 394 l 1,10,-1
 350 498 l 2,11,12
 369 510 369 510 395 510 c 128,-1,13
 421 510 421 510 442.5 489.5 c 128,-1,14
 464 469 464 469 464 431 c 2,15,-1
 464 68 l 1,16,-1
 528 68 l 1,17,-1
 528 0 l 1,18,-1
 335 0 l 1,19,-1
 335 68 l 1,20,-1
 383 68 l 1,21,-1
 383 438 l 1,22,-1
 184 313 l 1,23,-1
 184 68 l 1,24,-1
 233 68 l 1,25,-1
 233 0 l 1,26,-1
 40 0 l 1,27,-1
 40 68 l 1,28,-1
 103 68 l 1,29,-1
 103 541 l 1,30,-1
 42 541 l 1,31,-1
 42 604 l 1,0,-1
EndSplineSet
EndChar

StartChar: Itilde
Encoding: 296 296 229
Width: 370
Flags: W
LayerCount: 2
Fore
SplineSet
225 68 m 1,0,-1
 290 68 l 1,1,-1
 290 0 l 1,2,-1
 80 0 l 1,3,-1
 80 68 l 1,4,-1
 143 68 l 1,5,-1
 143 682 l 1,6,-1
 80 682 l 1,7,-1
 80 750 l 1,8,-1
 290 750 l 1,9,-1
 290 682 l 1,10,-1
 225 682 l 1,11,-1
 225 68 l 1,0,-1
350 888 m 1,12,13
 342 865 342 865 322 846 c 1,14,15
 282 811 282 811 250 811 c 0,16,17
 226 811 226 811 194.5 829.5 c 128,-1,18
 163 848 163 848 146.5 856.5 c 128,-1,19
 130 865 130 865 113.5 865 c 128,-1,20
 97 865 97 865 86 855 c 128,-1,21
 75 845 75 845 61 816 c 1,22,-1
 20 846 l 1,23,24
 27 868 27 868 47 886 c 1,25,26
 84 922 84 922 108 922 c 128,-1,27
 132 922 132 922 152.5 913.5 c 128,-1,28
 173 905 173 905 191.5 894.5 c 128,-1,29
 210 884 210 884 225 875.5 c 128,-1,30
 240 867 240 867 254.5 867 c 128,-1,31
 269 867 269 867 286.5 882 c 128,-1,32
 304 897 304 897 312 916 c 1,33,-1
 350 888 l 1,12,13
EndSplineSet
EndChar

StartChar: itilde
Encoding: 297 297 230
Width: 300
Flags: W
LayerCount: 2
Fore
SplineSet
195 68 m 1,0,-1
 260 68 l 1,1,-1
 260 0 l 1,2,-1
 50 0 l 1,3,-1
 50 68 l 1,4,-1
 113 68 l 1,5,-1
 113 432 l 1,6,-1
 50 432 l 1,7,-1
 50 500 l 1,8,-1
 195 500 l 1,9,-1
 195 68 l 1,0,-1
315 638 m 1,10,11
 307 615 307 615 287 596 c 1,12,13
 247 561 247 561 215 561 c 0,14,15
 191 561 191 561 159.5 579.5 c 128,-1,16
 128 598 128 598 111.5 606.5 c 128,-1,17
 95 615 95 615 78.5 615 c 128,-1,18
 62 615 62 615 51 605 c 128,-1,19
 40 595 40 595 26 566 c 1,20,-1
 -15 596 l 1,21,22
 -8 618 -8 618 12 636 c 1,23,24
 49 672 49 672 73 672 c 128,-1,25
 97 672 97 672 117.5 663.5 c 128,-1,26
 138 655 138 655 156.5 644.5 c 128,-1,27
 175 634 175 634 190 625.5 c 128,-1,28
 205 617 205 617 219.5 617 c 128,-1,29
 234 617 234 617 251.5 632 c 128,-1,30
 269 647 269 647 277 666 c 1,31,-1
 315 638 l 1,10,11
EndSplineSet
EndChar

StartChar: Imacron
Encoding: 298 298 231
Width: 370
Flags: W
LayerCount: 2
Fore
SplineSet
225 68 m 1,0,-1
 290 68 l 1,1,-1
 290 0 l 1,2,-1
 80 0 l 1,3,-1
 80 68 l 1,4,-1
 143 68 l 1,5,-1
 143 682 l 1,6,-1
 80 682 l 1,7,-1
 80 750 l 1,8,-1
 290 750 l 1,9,-1
 290 682 l 1,10,-1
 225 682 l 1,11,-1
 225 68 l 1,0,-1
57 888 m 1,12,-1
 312 888 l 1,13,-1
 312 825 l 1,14,-1
 57 825 l 1,15,-1
 57 888 l 1,12,-1
EndSplineSet
EndChar

StartChar: imacron
Encoding: 299 299 232
Width: 300
Flags: W
LayerCount: 2
Fore
SplineSet
195 68 m 1,0,-1
 260 68 l 1,1,-1
 260 0 l 1,2,-1
 50 0 l 1,3,-1
 50 68 l 1,4,-1
 113 68 l 1,5,-1
 113 432 l 1,6,-1
 50 432 l 1,7,-1
 50 500 l 1,8,-1
 195 500 l 1,9,-1
 195 68 l 1,0,-1
22 638 m 1,10,-1
 277 638 l 1,11,-1
 277 575 l 1,12,-1
 22 575 l 1,13,-1
 22 638 l 1,10,-1
EndSplineSet
EndChar

StartChar: Ibreve
Encoding: 300 300 233
Width: 370
Flags: W
LayerCount: 2
Fore
SplineSet
225 68 m 1,0,-1
 290 68 l 1,1,-1
 290 0 l 1,2,-1
 80 0 l 1,3,-1
 80 68 l 1,4,-1
 143 68 l 1,5,-1
 143 682 l 1,6,-1
 80 682 l 1,7,-1
 80 750 l 1,8,-1
 290 750 l 1,9,-1
 290 682 l 1,10,-1
 225 682 l 1,11,-1
 225 68 l 1,0,-1
338 947 m 1,12,13
 338 882 338 882 293 838 c 0,14,15
 247 794 247 794 185 794 c 0,16,17
 121 794 121 794 76 839 c 128,-1,18
 31 884 31 884 31 947 c 1,19,-1
 84 947 l 1,20,21
 84 907 84 907 113.5 877.5 c 128,-1,22
 143 848 143 848 185 848 c 0,23,24
 226 848 226 848 255.5 877.5 c 128,-1,25
 285 907 285 907 285 947 c 1,26,-1
 338 947 l 1,12,13
EndSplineSet
EndChar

StartChar: ibreve
Encoding: 301 301 234
Width: 300
Flags: W
LayerCount: 2
Fore
SplineSet
195 68 m 1,0,-1
 260 68 l 1,1,-1
 260 0 l 1,2,-1
 50 0 l 1,3,-1
 50 68 l 1,4,-1
 113 68 l 1,5,-1
 113 432 l 1,6,-1
 50 432 l 1,7,-1
 50 500 l 1,8,-1
 195 500 l 1,9,-1
 195 68 l 1,0,-1
304 697 m 1,10,11
 304 632 304 632 259 588 c 0,12,13
 213 544 213 544 151 544 c 0,14,15
 87 544 87 544 42 589 c 128,-1,16
 -3 634 -3 634 -3 697 c 1,17,-1
 50 697 l 1,18,19
 50 657 50 657 79.5 627.5 c 128,-1,20
 109 598 109 598 151 598 c 0,21,22
 192 598 192 598 221.5 627.5 c 128,-1,23
 251 657 251 657 251 697 c 1,24,-1
 304 697 l 1,10,11
EndSplineSet
EndChar

StartChar: Iogonek
Encoding: 302 302 235
Width: 370
Flags: W
LayerCount: 2
Fore
SplineSet
225 68 m 1,0,-1
 290 68 l 1,1,-1
 290 0 l 1,2,-1
 80 0 l 1,3,-1
 80 68 l 1,4,-1
 143 68 l 1,5,-1
 143 682 l 1,6,-1
 80 682 l 1,7,-1
 80 750 l 1,8,-1
 290 750 l 1,9,-1
 290 682 l 1,10,-1
 225 682 l 1,11,-1
 225 68 l 1,0,-1
290 0 m 1,12,-1
 182 -89 l 1,13,-1
 182 -164 l 1,14,-1
 270 -164 l 1,15,-1
 270 -217 l 1,16,-1
 188 -217 l 2,17,18
 146 -217 146 -217 133 -197 c 128,-1,19
 120 -177 120 -177 120 -149 c 2,20,-1
 120 -118 l 2,21,22
 120 -89 120 -89 129 -75.5 c 128,-1,23
 138 -62 138 -62 148.5 -53.5 c 128,-1,24
 159 -45 159 -45 174 -34 c 2,25,-1
 218 0 l 1,26,-1
 290 0 l 1,12,-1
EndSplineSet
EndChar

StartChar: iogonek
Encoding: 303 303 236
Width: 300
Flags: W
LayerCount: 2
Fore
SplineSet
195 68 m 1,0,-1
 260 68 l 1,1,-1
 260 0 l 1,2,-1
 50 0 l 1,3,-1
 50 68 l 1,4,-1
 113 68 l 1,5,-1
 113 432 l 1,6,-1
 50 432 l 1,7,-1
 50 500 l 1,8,-1
 195 500 l 1,9,-1
 195 68 l 1,0,-1
189.5 668.5 m 128,-1,11
 204 653 204 653 204 631.5 c 128,-1,12
 204 610 204 610 189.5 595.5 c 128,-1,13
 175 581 175 581 153.5 581 c 128,-1,14
 132 581 132 581 117.5 595.5 c 128,-1,15
 103 610 103 610 103 631.5 c 128,-1,16
 103 653 103 653 118 668.5 c 128,-1,17
 133 684 133 684 154 684 c 128,-1,10
 175 684 175 684 189.5 668.5 c 128,-1,11
235 0 m 1,18,-1
 127 -89 l 1,19,-1
 127 -164 l 1,20,-1
 215 -164 l 1,21,-1
 215 -217 l 1,22,-1
 133 -217 l 2,23,24
 91 -217 91 -217 78 -197 c 128,-1,25
 65 -177 65 -177 65 -149 c 2,26,-1
 65 -118 l 2,27,28
 65 -89 65 -89 74 -75.5 c 128,-1,29
 83 -62 83 -62 93.5 -53.5 c 128,-1,30
 104 -45 104 -45 119 -34 c 2,31,-1
 163 0 l 1,32,-1
 235 0 l 1,18,-1
EndSplineSet
EndChar

StartChar: Idotaccent
Encoding: 304 304 237
Width: 370
Flags: W
LayerCount: 2
Fore
SplineSet
225 68 m 1,0,-1
 290 68 l 1,1,-1
 290 0 l 1,2,-1
 80 0 l 1,3,-1
 80 68 l 1,4,-1
 143 68 l 1,5,-1
 143 682 l 1,6,-1
 80 682 l 1,7,-1
 80 750 l 1,8,-1
 290 750 l 1,9,-1
 290 682 l 1,10,-1
 225 682 l 1,11,-1
 225 68 l 1,0,-1
215.5 904.5 m 128,-1,13
 228 891 228 891 228 873 c 128,-1,14
 228 855 228 855 215.5 842.5 c 128,-1,15
 203 830 203 830 185 830 c 128,-1,16
 167 830 167 830 154.5 842.5 c 128,-1,17
 142 855 142 855 142 873 c 128,-1,18
 142 891 142 891 155 904.5 c 128,-1,19
 168 918 168 918 185.5 918 c 128,-1,12
 203 918 203 918 215.5 904.5 c 128,-1,13
EndSplineSet
EndChar

StartChar: dotlessi
Encoding: 305 305 238
Width: 300
Flags: W
LayerCount: 2
Fore
SplineSet
195 68 m 1,0,-1
 260 68 l 1,1,-1
 260 0 l 1,2,-1
 50 0 l 1,3,-1
 50 68 l 1,4,-1
 113 68 l 1,5,-1
 113 432 l 1,6,-1
 50 432 l 1,7,-1
 50 500 l 1,8,-1
 195 500 l 1,9,-1
 195 68 l 1,0,-1
EndSplineSet
EndChar

StartChar: Jcircumflex
Encoding: 308 308 239
Width: 406
Flags: W
LayerCount: 2
Fore
SplineSet
341 682 m 1,0,-1
 276 682 l 1,1,-1
 276 117 l 2,2,3
 276 38 276 38 221 10 c 0,4,5
 200 0 200 0 169 0 c 2,6,-1
 20 0 l 1,7,-1
 20 68 l 1,8,-1
 194 68 l 1,9,-1
 194 682 l 1,10,-1
 130 682 l 1,11,-1
 130 750 l 1,12,-1
 341 750 l 1,13,-1
 341 682 l 1,0,-1
377 809 m 1,14,-1
 304 809 l 1,15,-1
 235 889 l 1,16,-1
 165 809 l 1,17,-1
 91 809 l 1,18,-1
 203 932 l 1,19,-1
 270 932 l 1,20,-1
 377 809 l 1,14,-1
EndSplineSet
EndChar

StartChar: uni0136
Encoding: 310 310 240
Width: 605
Flags: W
LayerCount: 2
Fore
SplineSet
575 68 m 1,0,-1
 575 0 l 1,1,-1
 461 0 l 1,2,-1
 210 373 l 1,3,-1
 210 68 l 1,4,-1
 275 68 l 1,5,-1
 275 0 l 1,6,-1
 65 0 l 1,7,-1
 65 68 l 1,8,-1
 128 68 l 1,9,-1
 128 682 l 1,10,-1
 65 682 l 1,11,-1
 65 750 l 1,12,-1
 275 750 l 1,13,-1
 275 682 l 1,14,-1
 206 682 l 1,15,-1
 206 403 l 1,16,-1
 461 750 l 1,17,-1
 569 750 l 1,18,-1
 569 682 l 1,19,-1
 502 682 l 1,20,-1
 294 390 l 1,21,-1
 511 68 l 1,22,-1
 575 68 l 1,0,-1
320 -75 m 1,23,-1
 391 -75 l 1,24,-1
 286 -198 l 1,25,-1
 213 -198 l 1,26,-1
 320 -75 l 1,23,-1
EndSplineSet
EndChar

StartChar: uni0137
Encoding: 311 311 241
Width: 507
Flags: W
LayerCount: 2
Fore
SplineSet
487 68 m 1,0,-1
 487 0 l 1,1,-1
 401 0 l 1,2,-1
 184 252 l 1,3,-1
 184 68 l 1,4,-1
 244 68 l 1,5,-1
 244 0 l 1,6,-1
 40 0 l 1,7,-1
 40 68 l 1,8,-1
 104 68 l 1,9,-1
 104 682 l 1,10,-1
 40 682 l 1,11,-1
 40 750 l 1,12,-1
 180 750 l 1,13,-1
 180 276 l 1,14,-1
 408 500 l 1,15,-1
 486 500 l 1,16,-1
 486 432 l 1,17,-1
 431 432 l 1,18,-1
 268 265 l 1,19,-1
 435 68 l 1,20,-1
 487 68 l 1,0,-1
271 -75 m 1,21,-1
 342 -75 l 1,22,-1
 237 -198 l 1,23,-1
 164 -198 l 1,24,-1
 271 -75 l 1,21,-1
EndSplineSet
EndChar

StartChar: kgreenlandic
Encoding: 312 312 242
Width: 507
Flags: W
LayerCount: 2
Fore
SplineSet
487 68 m 1,0,-1
 487 0 l 1,1,-1
 401 0 l 1,2,-1
 184 252 l 1,3,-1
 184 68 l 1,4,-1
 244 68 l 1,5,-1
 244 0 l 1,6,-1
 40 0 l 1,7,-1
 40 68 l 1,8,-1
 104 68 l 1,9,-1
 104 432 l 1,10,-1
 40 432 l 1,11,-1
 40 500 l 1,12,-1
 180 500 l 1,13,-1
 180 276 l 1,14,-1
 408 500 l 1,15,-1
 486 500 l 1,16,-1
 486 432 l 1,17,-1
 431 432 l 1,18,-1
 268 265 l 1,19,-1
 435 68 l 1,20,-1
 487 68 l 1,0,-1
EndSplineSet
EndChar

StartChar: Lacute
Encoding: 313 313 243
Width: 528
Flags: W
LayerCount: 2
Fore
SplineSet
65 0 m 1,0,-1
 488 0 l 1,1,-1
 488 185 l 1,2,-1
 420 185 l 1,3,-1
 420 68 l 1,4,-1
 210 68 l 1,5,-1
 210 682 l 1,6,-1
 275 682 l 1,7,-1
 275 750 l 1,8,-1
 65 750 l 1,9,-1
 65 682 l 1,10,-1
 128 682 l 1,11,-1
 128 68 l 1,12,-1
 65 68 l 1,13,-1
 65 0 l 1,0,-1
282 932 m 1,14,-1
 353 932 l 1,15,-1
 248 809 l 1,16,-1
 175 809 l 1,17,-1
 282 932 l 1,14,-1
EndSplineSet
EndChar

StartChar: lacute
Encoding: 314 314 244
Width: 277
Flags: W
LayerCount: 2
Fore
SplineSet
195 750 m 1,0,-1
 50 750 l 1,1,-1
 50 682 l 1,2,-1
 113 682 l 1,3,-1
 113 68 l 1,4,-1
 50 68 l 1,5,-1
 50 0 l 1,6,-1
 260 0 l 1,7,-1
 260 68 l 1,8,-1
 195 68 l 1,9,-1
 195 750 l 1,0,-1
154 917 m 1,10,-1
 225 917 l 1,11,-1
 120 794 l 1,12,-1
 47 794 l 1,13,-1
 154 917 l 1,10,-1
EndSplineSet
EndChar

StartChar: uni013B
Encoding: 315 315 245
Width: 528
Flags: W
LayerCount: 2
Fore
SplineSet
65 68 m 1,0,-1
 128 68 l 1,1,-1
 128 682 l 1,2,-1
 65 682 l 1,3,-1
 65 750 l 1,4,-1
 275 750 l 1,5,-1
 275 682 l 1,6,-1
 210 682 l 1,7,-1
 210 68 l 1,8,-1
 420 68 l 1,9,-1
 420 185 l 1,10,-1
 488 185 l 1,11,-1
 488 0 l 1,12,-1
 65 0 l 1,13,-1
 65 68 l 1,0,-1
282 -75 m 1,14,-1
 353 -75 l 1,15,-1
 248 -198 l 1,16,-1
 175 -198 l 1,17,-1
 282 -75 l 1,14,-1
EndSplineSet
EndChar

StartChar: uni013C
Encoding: 316 316 246
Width: 310
Flags: W
LayerCount: 2
Fore
SplineSet
195 68 m 1,0,-1
 260 68 l 1,1,-1
 260 0 l 1,2,-1
 50 0 l 1,3,-1
 50 68 l 1,4,-1
 113 68 l 1,5,-1
 113 682 l 1,6,-1
 50 682 l 1,7,-1
 50 750 l 1,8,-1
 195 750 l 1,9,-1
 195 68 l 1,0,-1
173 -75 m 1,10,-1
 244 -75 l 1,11,-1
 139 -198 l 1,12,-1
 66 -198 l 1,13,-1
 173 -75 l 1,10,-1
EndSplineSet
EndChar

StartChar: Lcaron
Encoding: 317 317 247
Width: 528
Flags: W
LayerCount: 2
Fore
SplineSet
206 791 m 1,0,-1
 139 791 l 1,1,-1
 27 914 l 1,2,-1
 101 914 l 1,3,-1
 171 834 l 1,4,-1
 240 914 l 1,5,-1
 313 914 l 1,6,-1
 206 791 l 1,0,-1
65 68 m 1,7,-1
 128 68 l 1,8,-1
 128 682 l 1,9,-1
 65 682 l 1,10,-1
 65 750 l 1,11,-1
 275 750 l 1,12,-1
 275 682 l 1,13,-1
 210 682 l 1,14,-1
 210 68 l 1,15,-1
 420 68 l 1,16,-1
 420 185 l 1,17,-1
 488 185 l 1,18,-1
 488 0 l 1,19,-1
 65 0 l 1,20,-1
 65 68 l 1,7,-1
EndSplineSet
EndChar

StartChar: lcaron
Encoding: 318 318 248
Width: 364
Flags: W
LayerCount: 2
Fore
SplineSet
195 68 m 1,0,-1
 260 68 l 1,1,-1
 260 0 l 1,2,-1
 50 0 l 1,3,-1
 50 68 l 1,4,-1
 113 68 l 1,5,-1
 113 682 l 1,6,-1
 50 682 l 1,7,-1
 50 750 l 1,8,-1
 195 750 l 1,9,-1
 195 68 l 1,0,-1
287 510 m 1,10,-1
 214 510 l 1,11,-1
 289 750 l 1,12,-1
 363 750 l 1,13,-1
 287 510 l 1,10,-1
EndSplineSet
EndChar

StartChar: Ldot
Encoding: 319 319 249
Width: 528
Flags: W
LayerCount: 2
Fore
SplineSet
65 68 m 1,0,-1
 128 68 l 1,1,-1
 128 682 l 1,2,-1
 65 682 l 1,3,-1
 65 750 l 1,4,-1
 275 750 l 1,5,-1
 275 682 l 1,6,-1
 210 682 l 1,7,-1
 210 68 l 1,8,-1
 420 68 l 1,9,-1
 420 185 l 1,10,-1
 488 185 l 1,11,-1
 488 0 l 1,12,-1
 65 0 l 1,13,-1
 65 68 l 1,0,-1
361.5 300 m 128,-1,15
 376 284 376 284 376 263 c 128,-1,16
 376 242 376 242 361.5 227.5 c 128,-1,17
 347 213 347 213 326 213 c 128,-1,18
 305 213 305 213 290 227.5 c 128,-1,19
 275 242 275 242 275 263 c 128,-1,20
 275 284 275 284 290.5 300 c 128,-1,21
 306 316 306 316 326.5 316 c 128,-1,14
 347 316 347 316 361.5 300 c 128,-1,15
EndSplineSet
EndChar

StartChar: ldot
Encoding: 320 320 250
Width: 335
Flags: W
LayerCount: 2
Fore
SplineSet
195 68 m 1,0,-1
 260 68 l 1,1,-1
 260 0 l 1,2,-1
 50 0 l 1,3,-1
 50 68 l 1,4,-1
 113 68 l 1,5,-1
 113 682 l 1,6,-1
 50 682 l 1,7,-1
 50 750 l 1,8,-1
 195 750 l 1,9,-1
 195 68 l 1,0,-1
312.5 300 m 128,-1,11
 327 284 327 284 327 263 c 128,-1,12
 327 242 327 242 312.5 227.5 c 128,-1,13
 298 213 298 213 277 213 c 128,-1,14
 256 213 256 213 241 227.5 c 128,-1,15
 226 242 226 242 226 263 c 128,-1,16
 226 284 226 284 241.5 300 c 128,-1,17
 257 316 257 316 277.5 316 c 128,-1,10
 298 316 298 316 312.5 300 c 128,-1,11
EndSplineSet
EndChar

StartChar: Lslash
Encoding: 321 321 251
Width: 528
Flags: W
LayerCount: 2
Fore
SplineSet
65 68 m 1,0,-1
 128 68 l 1,1,-1
 128 253 l 1,2,-1
 45 218 l 1,3,-1
 45 304 l 1,4,-1
 128 339 l 1,5,-1
 128 682 l 1,6,-1
 65 682 l 1,7,-1
 65 750 l 1,8,-1
 275 750 l 1,9,-1
 275 682 l 1,10,-1
 210 682 l 1,11,-1
 210 375 l 1,12,-1
 401 457 l 1,13,-1
 401 371 l 1,14,-1
 210 289 l 1,15,-1
 210 68 l 1,16,-1
 420 68 l 1,17,-1
 420 185 l 1,18,-1
 488 185 l 1,19,-1
 488 0 l 1,20,-1
 65 0 l 1,21,-1
 65 68 l 1,0,-1
EndSplineSet
EndChar

StartChar: lslash
Encoding: 322 322 252
Width: 310
Flags: W
LayerCount: 2
Fore
SplineSet
195 394 m 1,0,-1
 296 438 l 1,1,-1
 296 352 l 1,2,-1
 195 308 l 1,3,-1
 195 68 l 1,4,-1
 260 68 l 1,5,-1
 260 0 l 1,6,-1
 50 0 l 1,7,-1
 50 68 l 1,8,-1
 113 68 l 1,9,-1
 113 273 l 1,10,-1
 11 229 l 1,11,-1
 11 315 l 1,12,-1
 113 359 l 1,13,-1
 113 682 l 1,14,-1
 50 682 l 1,15,-1
 50 750 l 1,16,-1
 195 750 l 1,17,-1
 195 394 l 1,0,-1
EndSplineSet
EndChar

StartChar: Nacute
Encoding: 323 323 253
Width: 719
Flags: W
LayerCount: 2
Fore
SplineSet
654 750 m 1,0,-1
 444 750 l 1,1,-1
 444 682 l 1,2,-1
 509 682 l 1,3,-1
 509 154 l 1,4,-1
 219 750 l 1,5,-1
 65 750 l 1,6,-1
 65 682 l 1,7,-1
 128 682 l 1,8,-1
 128 68 l 1,9,-1
 65 68 l 1,10,-1
 65 0 l 1,11,-1
 275 0 l 1,12,-1
 275 68 l 1,13,-1
 210 68 l 1,14,-1
 210 584 l 1,15,-1
 493 0 l 1,16,-1
 591 0 l 1,17,-1
 591 682 l 1,18,-1
 654 682 l 1,19,-1
 654 750 l 1,0,-1
377 932 m 1,20,-1
 448 932 l 1,21,-1
 343 809 l 1,22,-1
 270 809 l 1,23,-1
 377 932 l 1,20,-1
EndSplineSet
EndChar

StartChar: nacute
Encoding: 324 324 254
Width: 568
Flags: W
LayerCount: 2
Fore
SplineSet
464 433 m 2,0,1
 464 510 464 510 386 510 c 0,2,3
 366 510 366 510 350 500 c 2,4,-1
 184 396 l 1,5,-1
 184 500 l 1,6,-1
 40 500 l 1,7,-1
 40 433 l 1,8,-1
 103 433 l 1,9,-1
 103 68 l 1,10,-1
 40 68 l 1,11,-1
 40 0 l 1,12,-1
 233 0 l 1,13,-1
 233 68 l 1,14,-1
 184 68 l 1,15,-1
 184 315 l 1,16,-1
 383 440 l 1,17,-1
 383 68 l 1,18,-1
 335 68 l 1,19,-1
 335 0 l 1,20,-1
 528 0 l 1,21,-1
 528 68 l 1,22,-1
 464 68 l 1,23,-1
 464 433 l 2,0,1
302 682 m 1,24,-1
 373 682 l 1,25,-1
 268 559 l 1,26,-1
 195 559 l 1,27,-1
 302 682 l 1,24,-1
EndSplineSet
EndChar

StartChar: uni0145
Encoding: 325 325 255
Width: 719
Flags: W
LayerCount: 2
Fore
SplineSet
654 682 m 1,0,-1
 591 682 l 1,1,-1
 591 0 l 1,2,-1
 493 0 l 1,3,-1
 210 584 l 1,4,-1
 210 68 l 1,5,-1
 275 68 l 1,6,-1
 275 0 l 1,7,-1
 65 0 l 1,8,-1
 65 68 l 1,9,-1
 128 68 l 1,10,-1
 128 682 l 1,11,-1
 65 682 l 1,12,-1
 65 750 l 1,13,-1
 219 750 l 1,14,-1
 509 154 l 1,15,-1
 509 682 l 1,16,-1
 444 682 l 1,17,-1
 444 750 l 1,18,-1
 654 750 l 1,19,-1
 654 682 l 1,0,-1
377 -75 m 1,20,-1
 448 -75 l 1,21,-1
 343 -198 l 1,22,-1
 270 -198 l 1,23,-1
 377 -75 l 1,20,-1
EndSplineSet
EndChar

StartChar: uni0146
Encoding: 326 326 256
Width: 568
Flags: W
LayerCount: 2
Fore
SplineSet
386 510 m 0,0,1
 464 510 464 510 464 433 c 2,2,-1
 464 68 l 1,3,-1
 528 68 l 1,4,-1
 528 0 l 1,5,-1
 335 0 l 1,6,-1
 335 68 l 1,7,-1
 383 68 l 1,8,-1
 383 440 l 1,9,-1
 184 315 l 1,10,-1
 184 68 l 1,11,-1
 233 68 l 1,12,-1
 233 0 l 1,13,-1
 40 0 l 1,14,-1
 40 68 l 1,15,-1
 103 68 l 1,16,-1
 103 433 l 1,17,-1
 40 433 l 1,18,-1
 40 500 l 1,19,-1
 184 500 l 1,20,-1
 184 396 l 1,21,-1
 350 500 l 2,22,23
 366 510 366 510 386 510 c 0,0,1
302 -75 m 1,24,-1
 373 -75 l 1,25,-1
 268 -198 l 1,26,-1
 195 -198 l 1,27,-1
 302 -75 l 1,24,-1
EndSplineSet
EndChar

StartChar: Ncaron
Encoding: 327 327 257
Width: 719
Flags: W
LayerCount: 2
Fore
SplineSet
654 682 m 1,0,-1
 591 682 l 1,1,-1
 591 0 l 1,2,-1
 493 0 l 1,3,-1
 210 584 l 1,4,-1
 210 68 l 1,5,-1
 275 68 l 1,6,-1
 275 0 l 1,7,-1
 65 0 l 1,8,-1
 65 68 l 1,9,-1
 128 68 l 1,10,-1
 128 682 l 1,11,-1
 65 682 l 1,12,-1
 65 750 l 1,13,-1
 219 750 l 1,14,-1
 509 154 l 1,15,-1
 509 682 l 1,16,-1
 444 682 l 1,17,-1
 444 750 l 1,18,-1
 654 750 l 1,19,-1
 654 682 l 1,0,-1
395 809 m 1,20,-1
 328 809 l 1,21,-1
 216 932 l 1,22,-1
 290 932 l 1,23,-1
 360 852 l 1,24,-1
 429 932 l 1,25,-1
 502 932 l 1,26,-1
 395 809 l 1,20,-1
EndSplineSet
EndChar

StartChar: ncaron
Encoding: 328 328 258
Width: 568
Flags: W
LayerCount: 2
Fore
SplineSet
386 510 m 0,0,1
 464 510 464 510 464 433 c 2,2,-1
 464 68 l 1,3,-1
 528 68 l 1,4,-1
 528 0 l 1,5,-1
 335 0 l 1,6,-1
 335 68 l 1,7,-1
 383 68 l 1,8,-1
 383 440 l 1,9,-1
 184 315 l 1,10,-1
 184 68 l 1,11,-1
 233 68 l 1,12,-1
 233 0 l 1,13,-1
 40 0 l 1,14,-1
 40 68 l 1,15,-1
 103 68 l 1,16,-1
 103 433 l 1,17,-1
 40 433 l 1,18,-1
 40 500 l 1,19,-1
 184 500 l 1,20,-1
 184 396 l 1,21,-1
 350 500 l 2,22,23
 366 510 366 510 386 510 c 0,0,1
320 559 m 1,24,-1
 253 559 l 1,25,-1
 141 682 l 1,26,-1
 215 682 l 1,27,-1
 285 602 l 1,28,-1
 354 682 l 1,29,-1
 427 682 l 1,30,-1
 320 559 l 1,24,-1
EndSplineSet
EndChar

StartChar: napostrophe
Encoding: 329 329 259
Width: 568
Flags: W
LayerCount: 2
Fore
SplineSet
464 433 m 2,0,1
 464 510 464 510 386 510 c 0,2,3
 366 510 366 510 350 500 c 2,4,-1
 184 396 l 1,5,-1
 184 500 l 1,6,-1
 40 500 l 1,7,-1
 40 433 l 1,8,-1
 103 433 l 1,9,-1
 103 68 l 1,10,-1
 40 68 l 1,11,-1
 40 0 l 1,12,-1
 233 0 l 1,13,-1
 233 68 l 1,14,-1
 184 68 l 1,15,-1
 184 315 l 1,16,-1
 383 440 l 1,17,-1
 383 68 l 1,18,-1
 335 68 l 1,19,-1
 335 0 l 1,20,-1
 528 0 l 1,21,-1
 528 68 l 1,22,-1
 464 68 l 1,23,-1
 464 433 l 2,0,1
147 679 m 1,24,-1
 218 679 l 1,25,-1
 113 556 l 1,26,-1
 40 556 l 1,27,-1
 147 679 l 1,24,-1
EndSplineSet
EndChar

StartChar: Eng
Encoding: 330 330 260
Width: 719
Flags: W
LayerCount: 2
Fore
SplineSet
654 682 m 1,0,-1
 591 682 l 1,1,-1
 591 -100 l 2,2,3
 591 -179 591 -179 536 -206 c 0,4,5
 515 -217 515 -217 484 -217 c 2,6,-1
 335 -217 l 1,7,-1
 335 -149 l 1,8,-1
 509 -149 l 1,9,-1
 509 2 l 1,10,-1
 210 584 l 1,11,-1
 210 68 l 1,12,-1
 275 68 l 1,13,-1
 275 0 l 1,14,-1
 65 0 l 1,15,-1
 65 68 l 1,16,-1
 128 68 l 1,17,-1
 128 682 l 1,18,-1
 65 682 l 1,19,-1
 65 750 l 1,20,-1
 219 750 l 1,21,-1
 509 187 l 1,22,-1
 509 682 l 1,23,-1
 444 682 l 1,24,-1
 444 750 l 1,25,-1
 654 750 l 1,26,-1
 654 682 l 1,0,-1
EndSplineSet
EndChar

StartChar: eng
Encoding: 331 331 261
Width: 568
Flags: W
LayerCount: 2
Fore
SplineSet
386 510 m 0,0,1
 464 510 464 510 464 433 c 2,2,-1
 464 -133 l 2,3,4
 464 -175 464 -175 443.5 -197 c 128,-1,5
 423 -219 423 -219 372 -219 c 2,6,-1
 233 -219 l 1,7,-1
 233 -150 l 1,8,-1
 383 -150 l 1,9,-1
 383 440 l 1,10,-1
 184 315 l 1,11,-1
 184 68 l 1,12,-1
 233 68 l 1,13,-1
 233 0 l 1,14,-1
 40 0 l 1,15,-1
 40 68 l 1,16,-1
 103 68 l 1,17,-1
 103 433 l 1,18,-1
 40 433 l 1,19,-1
 40 500 l 1,20,-1
 184 500 l 1,21,-1
 184 396 l 1,22,-1
 350 500 l 2,23,24
 366 510 366 510 386 510 c 0,0,1
EndSplineSet
EndChar

StartChar: Omacron
Encoding: 332 332 262
Width: 542
Flags: W
LayerCount: 2
Fore
SplineSet
366 750 m 2,0,1
 427 750 427 750 454.5 716.5 c 128,-1,2
 482 683 482 683 482 617 c 2,3,-1
 482 136 l 2,4,5
 482 64 482 64 458 32 c 128,-1,6
 434 0 434 0 371 0 c 2,7,-1
 179 0 l 2,8,9
 83 0 83 0 66 72 c 0,10,11
 60 94 60 94 60 121 c 2,12,-1
 60 617 l 2,13,14
 60 684 60 684 82 714 c 0,15,16
 107 750 107 750 171 750 c 2,17,-1
 366 750 l 2,0,1
140 68 m 1,18,-1
 402 68 l 1,19,-1
 402 682 l 1,20,-1
 140 682 l 1,21,-1
 140 68 l 1,18,-1
143 888 m 1,22,-1
 398 888 l 1,23,-1
 398 825 l 1,24,-1
 143 825 l 1,25,-1
 143 888 l 1,22,-1
EndSplineSet
EndChar

StartChar: omacron
Encoding: 333 333 263
Width: 451
Flags: W
LayerCount: 2
Fore
SplineSet
133 0 m 2,0,1
 82 0 82 0 61 23.5 c 128,-1,2
 40 47 40 47 40 89 c 2,3,-1
 40 411 l 2,4,5
 40 451 40 451 58.5 475.5 c 128,-1,6
 77 500 77 500 133 500 c 2,7,-1
 318 500 l 2,8,9
 373 500 373 500 392 475.5 c 128,-1,10
 411 451 411 451 411 411 c 2,11,-1
 411 89 l 2,12,13
 411 47 411 47 390 23.5 c 128,-1,14
 369 0 369 0 318 0 c 2,15,-1
 133 0 l 2,0,1
121 68 m 1,16,-1
 330 68 l 1,17,-1
 330 432 l 1,18,-1
 121 432 l 1,19,-1
 121 68 l 1,16,-1
98 638 m 1,20,-1
 353 638 l 1,21,-1
 353 575 l 1,22,-1
 98 575 l 1,23,-1
 98 638 l 1,20,-1
EndSplineSet
EndChar

StartChar: Obreve
Encoding: 334 334 264
Width: 542
Flags: W
LayerCount: 2
Fore
SplineSet
366 750 m 2,0,1
 427 750 427 750 454.5 716.5 c 128,-1,2
 482 683 482 683 482 617 c 2,3,-1
 482 136 l 2,4,5
 482 64 482 64 458 32 c 128,-1,6
 434 0 434 0 371 0 c 2,7,-1
 179 0 l 2,8,9
 83 0 83 0 66 72 c 0,10,11
 60 94 60 94 60 121 c 2,12,-1
 60 617 l 2,13,14
 60 684 60 684 82 714 c 0,15,16
 107 750 107 750 171 750 c 2,17,-1
 366 750 l 2,0,1
140 68 m 1,18,-1
 402 68 l 1,19,-1
 402 682 l 1,20,-1
 140 682 l 1,21,-1
 140 68 l 1,18,-1
424 947 m 1,22,23
 424 882 424 882 379 838 c 0,24,25
 333 794 333 794 271 794 c 0,26,27
 207 794 207 794 162 839 c 128,-1,28
 117 884 117 884 117 947 c 1,29,-1
 170 947 l 1,30,31
 170 907 170 907 199.5 877.5 c 128,-1,32
 229 848 229 848 271 848 c 0,33,34
 312 848 312 848 341.5 877.5 c 128,-1,35
 371 907 371 907 371 947 c 1,36,-1
 424 947 l 1,22,23
EndSplineSet
EndChar

StartChar: obreve
Encoding: 335 335 265
Width: 451
Flags: W
LayerCount: 2
Fore
SplineSet
133 0 m 2,0,1
 82 0 82 0 61 23.5 c 128,-1,2
 40 47 40 47 40 89 c 2,3,-1
 40 411 l 2,4,5
 40 451 40 451 58.5 475.5 c 128,-1,6
 77 500 77 500 133 500 c 2,7,-1
 318 500 l 2,8,9
 373 500 373 500 392 475.5 c 128,-1,10
 411 451 411 451 411 411 c 2,11,-1
 411 89 l 2,12,13
 411 47 411 47 390 23.5 c 128,-1,14
 369 0 369 0 318 0 c 2,15,-1
 133 0 l 2,0,1
121 68 m 1,16,-1
 330 68 l 1,17,-1
 330 432 l 1,18,-1
 121 432 l 1,19,-1
 121 68 l 1,16,-1
379 697 m 1,20,21
 379 632 379 632 334 588 c 0,22,23
 288 544 288 544 226 544 c 0,24,25
 162 544 162 544 117 589 c 128,-1,26
 72 634 72 634 72 697 c 1,27,-1
 125 697 l 1,28,29
 125 657 125 657 154.5 627.5 c 128,-1,30
 184 598 184 598 226 598 c 0,31,32
 267 598 267 598 296.5 627.5 c 128,-1,33
 326 657 326 657 326 697 c 1,34,-1
 379 697 l 1,20,21
EndSplineSet
EndChar

StartChar: Ohungarumlaut
Encoding: 336 336 266
Width: 542
Flags: W
LayerCount: 2
Fore
SplineSet
171 750 m 2,0,1
 79 750 79 750 64 672 c 0,2,3
 60 648 60 648 60 617 c 2,4,-1
 60 121 l 2,5,6
 60 32 60 32 122 8 c 0,7,8
 144 0 144 0 179 0 c 2,9,-1
 371 0 l 2,10,11
 434 0 434 0 458 32 c 128,-1,12
 482 64 482 64 482 136 c 2,13,-1
 482 617 l 2,14,15
 482 683 482 683 454.5 716.5 c 128,-1,16
 427 750 427 750 366 750 c 2,17,-1
 171 750 l 2,0,1
140 682 m 1,18,-1
 402 682 l 1,19,-1
 402 68 l 1,20,-1
 140 68 l 1,21,-1
 140 682 l 1,18,-1
214 932 m 1,22,-1
 285 932 l 1,23,-1
 180 809 l 1,24,-1
 107 809 l 1,25,-1
 214 932 l 1,22,-1
363 932 m 1,26,-1
 434 932 l 1,27,-1
 329 809 l 1,28,-1
 256 809 l 1,29,-1
 363 932 l 1,26,-1
EndSplineSet
EndChar

StartChar: ohungarumlaut
Encoding: 337 337 267
Width: 451
Flags: W
LayerCount: 2
Fore
SplineSet
318 0 m 2,0,1
 369 0 369 0 390 23.5 c 128,-1,2
 411 47 411 47 411 89 c 2,3,-1
 411 411 l 2,4,5
 411 451 411 451 392 475.5 c 128,-1,6
 373 500 373 500 318 500 c 2,7,-1
 133 500 l 2,8,9
 77 500 77 500 58.5 475.5 c 128,-1,10
 40 451 40 451 40 411 c 2,11,-1
 40 89 l 2,12,13
 40 47 40 47 61 23.5 c 128,-1,14
 82 0 82 0 133 0 c 2,15,-1
 318 0 l 2,0,1
121 432 m 1,16,-1
 330 432 l 1,17,-1
 330 68 l 1,18,-1
 121 68 l 1,19,-1
 121 432 l 1,16,-1
169 682 m 1,20,-1
 240 682 l 1,21,-1
 135 559 l 1,22,-1
 62 559 l 1,23,-1
 169 682 l 1,20,-1
318 682 m 1,24,-1
 389 682 l 1,25,-1
 284 559 l 1,26,-1
 211 559 l 1,27,-1
 318 682 l 1,24,-1
EndSplineSet
EndChar

StartChar: OE
Encoding: 338 338 268
Width: 819
Flags: W
LayerCount: 2
Fore
SplineSet
759 750 m 1,0,-1
 759 565 l 1,1,-1
 691 565 l 1,2,-1
 691 682 l 1,3,-1
 458 682 l 1,4,-1
 458 416 l 1,5,-1
 630 525 l 1,6,-1
 630 444 l 1,7,-1
 458 337 l 1,8,-1
 458 68 l 1,9,-1
 691 68 l 1,10,-1
 691 185 l 1,11,-1
 759 185 l 1,12,-1
 759 0 l 1,13,-1
 179 0 l 2,14,15
 83 0 83 0 66 72 c 0,16,17
 60 94 60 94 60 121 c 2,18,-1
 60 617 l 2,19,20
 60 684 60 684 82 714 c 0,21,22
 107 750 107 750 171 750 c 2,23,-1
 759 750 l 1,0,-1
140 68 m 1,24,-1
 376 68 l 1,25,-1
 376 285 l 1,26,-1
 313 245 l 1,27,-1
 313 326 l 1,28,-1
 376 366 l 1,29,-1
 376 682 l 1,30,-1
 140 682 l 1,31,-1
 140 68 l 1,24,-1
EndSplineSet
EndChar

StartChar: oe
Encoding: 339 339 269
Width: 744
Flags: W
LayerCount: 2
Fore
SplineSet
153 0 m 2,0,1
 102 0 102 0 81 23.5 c 128,-1,2
 60 47 60 47 60 89 c 2,3,-1
 60 411 l 2,4,5
 60 451 60 451 78.5 475.5 c 128,-1,6
 97 500 97 500 153 500 c 2,7,-1
 591 500 l 2,8,9
 640 500 640 500 662 481.5 c 128,-1,10
 684 463 684 463 684 412 c 2,11,-1
 684 319 l 1,12,-1
 410 139 l 1,13,-1
 410 68 l 1,14,-1
 605 68 l 1,15,-1
 605 126 l 1,16,-1
 684 126 l 1,17,-1
 684 73 l 2,18,19
 684 43 684 43 665.5 21.5 c 128,-1,20
 647 0 647 0 604 0 c 2,21,-1
 153 0 l 2,0,1
141 68 m 1,22,-1
 330 68 l 1,23,-1
 330 432 l 1,24,-1
 141 432 l 1,25,-1
 141 68 l 1,22,-1
411 220 m 1,26,-1
 604 349 l 1,27,-1
 604 432 l 1,28,-1
 410 432 l 1,29,-1
 411 220 l 1,26,-1
EndSplineSet
EndChar

StartChar: Racute
Encoding: 340 340 270
Width: 646
Flags: W
LayerCount: 2
Fore
SplineSet
575 68 m 1,0,-1
 378 382 l 1,1,2
 424 410 424 410 454 428 c 128,-1,3
 484 446 484 446 502 463.5 c 128,-1,4
 520 481 520 481 527 503 c 128,-1,5
 534 525 534 525 534 563 c 2,6,-1
 534 625 l 2,7,8
 534 699 534 699 511 724.5 c 128,-1,9
 488 750 488 750 422 750 c 2,10,-1
 65 750 l 1,11,-1
 65 682 l 1,12,-1
 128 682 l 1,13,-1
 128 68 l 1,14,-1
 65 68 l 1,15,-1
 65 0 l 1,16,-1
 275 0 l 1,17,-1
 275 68 l 1,18,-1
 210 68 l 1,19,-1
 210 278 l 1,20,-1
 316 343 l 1,21,-1
 487 68 l 1,22,-1
 433 68 l 1,23,-1
 433 0 l 1,24,-1
 631 0 l 1,25,-1
 631 68 l 1,26,-1
 575 68 l 1,0,-1
210 682 m 1,27,-1
 461 682 l 1,28,-1
 461 513 l 1,29,-1
 210 358 l 1,30,-1
 210 682 l 1,27,-1
341 932 m 1,31,-1
 412 932 l 1,32,-1
 307 809 l 1,33,-1
 234 809 l 1,34,-1
 341 932 l 1,31,-1
EndSplineSet
EndChar

StartChar: racute
Encoding: 341 341 271
Width: 461
Flags: W
LayerCount: 2
Fore
SplineSet
421 423 m 2,0,1
 421 500 421 500 343 500 c 0,2,3
 323 500 323 500 307 490 c 2,4,-1
 184 413 l 1,5,-1
 184 501 l 1,6,-1
 40 501 l 1,7,-1
 40 433 l 1,8,-1
 103 433 l 1,9,-1
 103 68 l 1,10,-1
 40 68 l 1,11,-1
 40 0 l 1,12,-1
 233 0 l 1,13,-1
 233 68 l 1,14,-1
 184 68 l 1,15,-1
 184 332 l 1,16,-1
 340 431 l 1,17,-1
 340 334 l 1,18,-1
 421 334 l 1,19,-1
 421 423 l 2,0,1
248 682 m 1,20,-1
 319 682 l 1,21,-1
 214 559 l 1,22,-1
 141 559 l 1,23,-1
 248 682 l 1,20,-1
EndSplineSet
EndChar

StartChar: uni0156
Encoding: 342 342 272
Width: 646
Flags: W
LayerCount: 2
Fore
SplineSet
339 -75 m 1,0,-1
 410 -75 l 1,1,-1
 305 -198 l 1,2,-1
 232 -198 l 1,3,-1
 339 -75 l 1,0,-1
631 68 m 1,4,-1
 631 0 l 1,5,-1
 433 0 l 1,6,-1
 433 68 l 1,7,-1
 487 68 l 1,8,-1
 316 343 l 1,9,-1
 210 278 l 1,10,-1
 210 68 l 1,11,-1
 275 68 l 1,12,-1
 275 0 l 1,13,-1
 65 0 l 1,14,-1
 65 68 l 1,15,-1
 128 68 l 1,16,-1
 128 682 l 1,17,-1
 65 682 l 1,18,-1
 65 750 l 1,19,-1
 422 750 l 2,20,21
 488 750 488 750 511 724.5 c 128,-1,22
 534 699 534 699 534 625 c 2,23,-1
 534 563 l 2,24,25
 534 525 534 525 527 503 c 128,-1,26
 520 481 520 481 502 463.5 c 128,-1,27
 484 446 484 446 454 428 c 128,-1,28
 424 410 424 410 378 382 c 1,29,-1
 575 68 l 1,30,-1
 631 68 l 1,4,-1
210 358 m 1,31,-1
 461 513 l 1,32,-1
 461 682 l 1,33,-1
 210 682 l 1,34,-1
 210 358 l 1,31,-1
EndSplineSet
EndChar

StartChar: uni0157
Encoding: 343 343 273
Width: 461
Flags: W
LayerCount: 2
Fore
SplineSet
343 500 m 0,0,1
 421 500 421 500 421 423 c 2,2,-1
 421 334 l 1,3,-1
 340 334 l 1,4,-1
 340 431 l 1,5,-1
 184 332 l 1,6,-1
 184 68 l 1,7,-1
 233 68 l 1,8,-1
 233 0 l 1,9,-1
 40 0 l 1,10,-1
 40 68 l 1,11,-1
 103 68 l 1,12,-1
 103 433 l 1,13,-1
 40 433 l 1,14,-1
 40 501 l 1,15,-1
 184 501 l 1,16,-1
 184 413 l 1,17,-1
 307 490 l 2,18,19
 323 500 323 500 343 500 c 0,0,1
146 -75 m 1,20,-1
 217 -75 l 1,21,-1
 112 -198 l 1,22,-1
 39 -198 l 1,23,-1
 146 -75 l 1,20,-1
EndSplineSet
EndChar

StartChar: Rcaron
Encoding: 344 344 274
Width: 646
Flags: W
LayerCount: 2
Fore
SplineSet
631 68 m 1,0,-1
 631 0 l 1,1,-1
 433 0 l 1,2,-1
 433 68 l 1,3,-1
 487 68 l 1,4,-1
 316 343 l 1,5,-1
 210 278 l 1,6,-1
 210 68 l 1,7,-1
 275 68 l 1,8,-1
 275 0 l 1,9,-1
 65 0 l 1,10,-1
 65 68 l 1,11,-1
 128 68 l 1,12,-1
 128 682 l 1,13,-1
 65 682 l 1,14,-1
 65 750 l 1,15,-1
 422 750 l 2,16,17
 488 750 488 750 511 724.5 c 128,-1,18
 534 699 534 699 534 625 c 2,19,-1
 534 563 l 2,20,21
 534 525 534 525 527 503 c 128,-1,22
 520 481 520 481 502 463.5 c 128,-1,23
 484 446 484 446 454 428 c 128,-1,24
 424 410 424 410 378 382 c 1,25,-1
 575 68 l 1,26,-1
 631 68 l 1,0,-1
210 358 m 1,27,-1
 461 513 l 1,28,-1
 461 682 l 1,29,-1
 210 682 l 1,30,-1
 210 358 l 1,27,-1
359 809 m 1,31,-1
 292 809 l 1,32,-1
 180 932 l 1,33,-1
 254 932 l 1,34,-1
 324 852 l 1,35,-1
 393 932 l 1,36,-1
 466 932 l 1,37,-1
 359 809 l 1,31,-1
EndSplineSet
EndChar

StartChar: rcaron
Encoding: 345 345 275
Width: 461
Flags: W
LayerCount: 2
Fore
SplineSet
343 500 m 0,0,1
 421 500 421 500 421 423 c 2,2,-1
 421 334 l 1,3,-1
 340 334 l 1,4,-1
 340 431 l 1,5,-1
 184 332 l 1,6,-1
 184 68 l 1,7,-1
 233 68 l 1,8,-1
 233 0 l 1,9,-1
 40 0 l 1,10,-1
 40 68 l 1,11,-1
 103 68 l 1,12,-1
 103 433 l 1,13,-1
 40 433 l 1,14,-1
 40 501 l 1,15,-1
 184 501 l 1,16,-1
 184 413 l 1,17,-1
 307 490 l 2,18,19
 323 500 323 500 343 500 c 0,0,1
266 559 m 1,20,-1
 199 559 l 1,21,-1
 87 682 l 1,22,-1
 161 682 l 1,23,-1
 231 602 l 1,24,-1
 300 682 l 1,25,-1
 373 682 l 1,26,-1
 266 559 l 1,20,-1
EndSplineSet
EndChar

StartChar: Sacute
Encoding: 346 346 276
Width: 542
Flags: W
LayerCount: 2
Fore
SplineSet
140 522 m 1,0,-1
 140 682 l 1,1,-1
 401 682 l 1,2,-1
 401 565 l 1,3,-1
 473 565 l 1,4,-1
 473 750 l 1,5,-1
 171 750 l 2,6,7
 112 750 112 750 88 731 c 0,8,9
 60 709 60 709 60 650 c 2,10,-1
 60 524 l 2,11,12
 60 487 60 487 82.5 465.5 c 128,-1,13
 105 444 105 444 140 424 c 1,14,-1
 402 263 l 1,15,-1
 402 68 l 1,16,-1
 132 68 l 1,17,-1
 132 185 l 1,18,-1
 60 185 l 1,19,-1
 60 0 l 1,20,-1
 379 0 l 2,21,22
 448 0 448 0 474 50 c 0,23,24
 482 67 482 67 482 91 c 2,25,-1
 482 261 l 2,26,27
 482 309 482 309 426 342 c 0,28,29
 408 353 408 353 388 367 c 1,30,-1
 140 522 l 1,0,-1
289 932 m 1,31,-1
 360 932 l 1,32,-1
 255 809 l 1,33,-1
 182 809 l 1,34,-1
 289 932 l 1,31,-1
EndSplineSet
EndChar

StartChar: sacute
Encoding: 347 347 277
Width: 439
Flags: W
LayerCount: 2
Fore
SplineSet
303 0 m 2,0,1
 389 0 389 0 389 88 c 2,2,-1
 389 150 l 2,3,4
 389 189 389 189 336 220 c 0,5,6
 320 229 320 229 299 242 c 2,7,-1
 129 348 l 1,8,-1
 129 432 l 1,9,-1
 309 432 l 1,10,-1
 309 350 l 1,11,-1
 377 350 l 1,12,-1
 377 500 l 1,13,-1
 144 500 l 2,14,15
 67 500 67 500 54 446 c 0,16,17
 50 429 50 429 50 411 c 2,18,-1
 50 354 l 2,19,20
 50 320 50 320 72 300 c 0,21,22
 84 290 84 290 102 280 c 128,-1,23
 120 270 120 270 145 254 c 2,24,-1
 309 151 l 1,25,-1
 309 68 l 1,26,-1
 129 68 l 1,27,-1
 129 151 l 1,28,-1
 61 151 l 1,29,-1
 61 0 l 1,30,-1
 303 0 l 2,0,1
237 682 m 1,31,-1
 308 682 l 1,32,-1
 203 559 l 1,33,-1
 130 559 l 1,34,-1
 237 682 l 1,31,-1
EndSplineSet
EndChar

StartChar: Scircumflex
Encoding: 348 348 278
Width: 542
Flags: W
LayerCount: 2
Fore
SplineSet
388 367 m 1,0,1
 408 353 408 353 425.5 342.5 c 128,-1,2
 443 332 443 332 456 320 c 0,3,4
 482 296 482 296 482 261 c 2,5,-1
 482 91 l 2,6,7
 482 46 482 46 450 22 c 1,8,9
 423 0 423 0 379 0 c 2,10,-1
 60 0 l 1,11,-1
 60 185 l 1,12,-1
 132 185 l 1,13,-1
 132 68 l 1,14,-1
 402 68 l 1,15,-1
 402 263 l 1,16,-1
 140 424 l 1,17,18
 105 444 105 444 82.5 465.5 c 128,-1,19
 60 487 60 487 60 524 c 2,20,-1
 60 650 l 2,21,22
 60 709 60 709 88 731 c 0,23,24
 112 750 112 750 171 750 c 2,25,-1
 473 750 l 1,26,-1
 473 565 l 1,27,-1
 401 565 l 1,28,-1
 401 682 l 1,29,-1
 140 682 l 1,30,-1
 140 522 l 1,31,-1
 388 367 l 1,0,1
414 809 m 1,32,-1
 341 809 l 1,33,-1
 272 889 l 1,34,-1
 202 809 l 1,35,-1
 128 809 l 1,36,-1
 240 932 l 1,37,-1
 307 932 l 1,38,-1
 414 809 l 1,32,-1
EndSplineSet
EndChar

StartChar: scircumflex
Encoding: 349 349 279
Width: 439
Flags: W
LayerCount: 2
Fore
SplineSet
389 88 m 2,0,1
 389 0 389 0 303 0 c 2,2,-1
 61 0 l 1,3,-1
 61 151 l 1,4,-1
 129 151 l 1,5,-1
 129 68 l 1,6,-1
 309 68 l 1,7,-1
 309 151 l 1,8,-1
 145 254 l 2,9,10
 120 270 120 270 102 280 c 128,-1,11
 84 290 84 290 72 300 c 0,12,13
 50 320 50 320 50 354 c 2,14,-1
 50 411 l 2,15,16
 50 453 50 453 64 469 c 0,17,18
 91 500 91 500 144 500 c 2,19,-1
 377 500 l 1,20,-1
 377 350 l 1,21,-1
 309 350 l 1,22,-1
 309 432 l 1,23,-1
 129 432 l 1,24,-1
 129 348 l 1,25,-1
 299 242 l 2,26,27
 320 229 320 229 336.5 219.5 c 128,-1,28
 353 210 353 210 364 200 c 0,29,30
 389 179 389 179 389 150 c 2,31,-1
 389 88 l 2,0,1
362 559 m 1,32,-1
 289 559 l 1,33,-1
 220 639 l 1,34,-1
 150 559 l 1,35,-1
 76 559 l 1,36,-1
 188 682 l 1,37,-1
 255 682 l 1,38,-1
 362 559 l 1,32,-1
EndSplineSet
EndChar

StartChar: Scedilla
Encoding: 350 350 280
Width: 542
Flags: W
LayerCount: 2
Fore
SplineSet
186 0 m 1,0,-1
 60 0 l 1,1,-1
 60 185 l 1,2,-1
 132 185 l 1,3,-1
 132 68 l 1,4,-1
 402 68 l 1,5,-1
 402 263 l 1,6,-1
 140 424 l 1,7,8
 105 444 105 444 82.5 465.5 c 128,-1,9
 60 487 60 487 60 524 c 2,10,-1
 60 650 l 2,11,12
 60 709 60 709 88 731 c 0,13,14
 112 750 112 750 171 750 c 2,15,-1
 473 750 l 1,16,-1
 473 565 l 1,17,-1
 401 565 l 1,18,-1
 401 682 l 1,19,-1
 140 682 l 1,20,-1
 140 522 l 1,21,-1
 388 367 l 1,22,23
 408 353 408 353 425.5 342.5 c 128,-1,24
 443 332 443 332 456 320 c 0,25,26
 482 296 482 296 482 261 c 2,27,-1
 482 91 l 2,28,29
 482 46 482 46 450 22 c 1,30,31
 423 0 423 0 379 0 c 2,32,-1
 245 0 l 1,33,-1
 245 -42 l 1,34,-1
 282 -42 l 2,35,36
 320 -42 320 -42 338 -61 c 128,-1,37
 356 -80 356 -80 356 -112 c 2,38,-1
 356 -149 l 2,39,40
 356 -177 356 -177 343 -197 c 128,-1,41
 330 -217 330 -217 288 -217 c 2,42,-1
 186 -217 l 1,43,-1
 186 -164 l 1,44,-1
 294 -164 l 1,45,-1
 294 -97 l 1,46,-1
 186 -97 l 1,47,-1
 186 0 l 1,0,-1
EndSplineSet
EndChar

StartChar: scedilla
Encoding: 351 351 281
Width: 439
Flags: W
LayerCount: 2
Fore
SplineSet
389 88 m 2,0,1
 389 0 389 0 303 0 c 2,2,-1
 193 0 l 1,3,-1
 193 -42 l 1,4,-1
 230 -42 l 2,5,6
 268 -42 268 -42 286 -61 c 128,-1,7
 304 -80 304 -80 304 -112 c 2,8,-1
 304 -149 l 2,9,10
 304 -177 304 -177 291 -197 c 128,-1,11
 278 -217 278 -217 236 -217 c 2,12,-1
 134 -217 l 1,13,-1
 134 -164 l 1,14,-1
 242 -164 l 1,15,-1
 242 -97 l 1,16,-1
 134 -97 l 1,17,-1
 134 0 l 1,18,-1
 61 0 l 1,19,-1
 61 151 l 1,20,-1
 129 151 l 1,21,-1
 129 68 l 1,22,-1
 309 68 l 1,23,-1
 309 151 l 1,24,-1
 145 254 l 2,25,26
 120 270 120 270 102 280 c 128,-1,27
 84 290 84 290 72 300 c 0,28,29
 50 320 50 320 50 354 c 2,30,-1
 50 411 l 2,31,32
 50 453 50 453 64 469 c 0,33,34
 91 500 91 500 144 500 c 2,35,-1
 377 500 l 1,36,-1
 377 350 l 1,37,-1
 309 350 l 1,38,-1
 309 432 l 1,39,-1
 129 432 l 1,40,-1
 129 348 l 1,41,-1
 299 242 l 2,42,43
 320 229 320 229 336.5 219.5 c 128,-1,44
 353 210 353 210 364 200 c 0,45,46
 389 179 389 179 389 150 c 2,47,-1
 389 88 l 2,0,1
EndSplineSet
EndChar

StartChar: Scaron
Encoding: 352 352 282
Width: 542
Flags: W
LayerCount: 2
Fore
SplineSet
388 367 m 1,0,1
 408 353 408 353 425.5 342.5 c 128,-1,2
 443 332 443 332 456 320 c 0,3,4
 482 296 482 296 482 261 c 2,5,-1
 482 91 l 2,6,7
 482 46 482 46 450 22 c 1,8,9
 423 0 423 0 379 0 c 2,10,-1
 60 0 l 1,11,-1
 60 185 l 1,12,-1
 132 185 l 1,13,-1
 132 68 l 1,14,-1
 402 68 l 1,15,-1
 402 263 l 1,16,-1
 140 424 l 1,17,18
 105 444 105 444 82.5 465.5 c 128,-1,19
 60 487 60 487 60 524 c 2,20,-1
 60 650 l 2,21,22
 60 709 60 709 88 731 c 0,23,24
 112 750 112 750 171 750 c 2,25,-1
 473 750 l 1,26,-1
 473 565 l 1,27,-1
 401 565 l 1,28,-1
 401 682 l 1,29,-1
 140 682 l 1,30,-1
 140 522 l 1,31,-1
 388 367 l 1,0,1
307 809 m 1,32,-1
 240 809 l 1,33,-1
 128 932 l 1,34,-1
 202 932 l 1,35,-1
 272 852 l 1,36,-1
 341 932 l 1,37,-1
 414 932 l 1,38,-1
 307 809 l 1,32,-1
EndSplineSet
EndChar

StartChar: scaron
Encoding: 353 353 283
Width: 439
Flags: W
LayerCount: 2
Fore
SplineSet
389 88 m 2,0,1
 389 0 389 0 303 0 c 2,2,-1
 61 0 l 1,3,-1
 61 151 l 1,4,-1
 129 151 l 1,5,-1
 129 68 l 1,6,-1
 309 68 l 1,7,-1
 309 151 l 1,8,-1
 145 254 l 2,9,10
 120 270 120 270 102 280 c 128,-1,11
 84 290 84 290 72 300 c 0,12,13
 50 320 50 320 50 354 c 2,14,-1
 50 411 l 2,15,16
 50 453 50 453 64 469 c 0,17,18
 91 500 91 500 144 500 c 2,19,-1
 377 500 l 1,20,-1
 377 350 l 1,21,-1
 309 350 l 1,22,-1
 309 432 l 1,23,-1
 129 432 l 1,24,-1
 129 348 l 1,25,-1
 299 242 l 2,26,27
 320 229 320 229 336.5 219.5 c 128,-1,28
 353 210 353 210 364 200 c 0,29,30
 389 179 389 179 389 150 c 2,31,-1
 389 88 l 2,0,1
255 559 m 1,32,-1
 188 559 l 1,33,-1
 76 682 l 1,34,-1
 150 682 l 1,35,-1
 220 602 l 1,36,-1
 289 682 l 1,37,-1
 362 682 l 1,38,-1
 255 559 l 1,32,-1
EndSplineSet
EndChar

StartChar: uni0162
Encoding: 354 354 284
Width: 529
Flags: W
LayerCount: 2
Fore
SplineSet
160 68 m 1,0,-1
 223 68 l 1,1,-1
 223 682 l 1,2,-1
 97 682 l 1,3,-1
 97 564 l 1,4,-1
 25 564 l 1,5,-1
 25 750 l 1,6,-1
 504 750 l 1,7,-1
 504 564 l 1,8,-1
 431 564 l 1,9,-1
 431 682 l 1,10,-1
 305 682 l 1,11,-1
 305 68 l 1,12,-1
 370 68 l 1,13,-1
 370 0 l 1,14,-1
 160 0 l 1,15,-1
 160 68 l 1,0,-1
241 -75 m 1,16,-1
 312 -75 l 1,17,-1
 207 -198 l 1,18,-1
 134 -198 l 1,19,-1
 241 -75 l 1,16,-1
EndSplineSet
EndChar

StartChar: uni0163
Encoding: 355 355 285
Width: 317
Flags: W
LayerCount: 2
Fore
SplineSet
192 682 m 1,0,-1
 192 500 l 1,1,-1
 273 500 l 1,2,-1
 273 428 l 1,3,-1
 192 428 l 1,4,-1
 192 68 l 1,5,-1
 287 68 l 1,6,-1
 287 0 l 1,7,-1
 203 0 l 2,8,9
 158 0 158 0 136 23.5 c 128,-1,10
 114 47 114 47 114 104 c 2,11,-1
 114 428 l 1,12,-1
 40 428 l 1,13,-1
 40 500 l 1,14,-1
 114 500 l 1,15,-1
 114 682 l 1,16,-1
 192 682 l 1,0,-1
209 -75 m 1,17,-1
 280 -75 l 1,18,-1
 175 -198 l 1,19,-1
 102 -198 l 1,20,-1
 209 -75 l 1,17,-1
EndSplineSet
EndChar

StartChar: Tcaron
Encoding: 356 356 286
Width: 529
Flags: W
LayerCount: 2
Fore
SplineSet
160 68 m 1,0,-1
 223 68 l 1,1,-1
 223 682 l 1,2,-1
 97 682 l 1,3,-1
 97 564 l 1,4,-1
 25 564 l 1,5,-1
 25 750 l 1,6,-1
 504 750 l 1,7,-1
 504 564 l 1,8,-1
 431 564 l 1,9,-1
 431 682 l 1,10,-1
 305 682 l 1,11,-1
 305 68 l 1,12,-1
 370 68 l 1,13,-1
 370 0 l 1,14,-1
 160 0 l 1,15,-1
 160 68 l 1,0,-1
300 809 m 1,16,-1
 233 809 l 1,17,-1
 121 932 l 1,18,-1
 195 932 l 1,19,-1
 265 852 l 1,20,-1
 334 932 l 1,21,-1
 407 932 l 1,22,-1
 300 809 l 1,16,-1
EndSplineSet
EndChar

StartChar: tcaron
Encoding: 357 357 287
Width: 382
Flags: W
LayerCount: 2
Fore
SplineSet
192 682 m 1,0,-1
 192 500 l 1,1,-1
 273 500 l 1,2,-1
 273 428 l 1,3,-1
 192 428 l 1,4,-1
 192 68 l 1,5,-1
 287 68 l 1,6,-1
 287 0 l 1,7,-1
 203 0 l 2,8,9
 158 0 158 0 136 23.5 c 128,-1,10
 114 47 114 47 114 104 c 2,11,-1
 114 428 l 1,12,-1
 40 428 l 1,13,-1
 40 500 l 1,14,-1
 114 500 l 1,15,-1
 114 682 l 1,16,-1
 192 682 l 1,0,-1
303 539 m 1,17,-1
 231 539 l 1,18,-1
 305 750 l 1,19,-1
 379 750 l 1,20,-1
 303 539 l 1,17,-1
EndSplineSet
EndChar

StartChar: Tbar
Encoding: 358 358 288
Width: 529
Flags: W
LayerCount: 2
Fore
SplineSet
137 419 m 1,0,-1
 223 419 l 1,1,-1
 223 682 l 1,2,-1
 97 682 l 1,3,-1
 97 564 l 1,4,-1
 25 564 l 1,5,-1
 25 750 l 1,6,-1
 504 750 l 1,7,-1
 504 564 l 1,8,-1
 431 564 l 1,9,-1
 431 682 l 1,10,-1
 305 682 l 1,11,-1
 305 419 l 1,12,-1
 392 419 l 1,13,-1
 392 356 l 1,14,-1
 305 356 l 1,15,-1
 305 68 l 1,16,-1
 370 68 l 1,17,-1
 370 0 l 1,18,-1
 160 0 l 1,19,-1
 160 68 l 1,20,-1
 223 68 l 1,21,-1
 223 356 l 1,22,-1
 137 356 l 1,23,-1
 137 419 l 1,0,-1
EndSplineSet
EndChar

StartChar: tbar
Encoding: 359 359 289
Width: 317
Flags: W
LayerCount: 2
Fore
SplineSet
40 354 m 1,0,-1
 114 354 l 1,1,-1
 114 428 l 1,2,-1
 40 428 l 1,3,-1
 40 500 l 1,4,-1
 114 500 l 1,5,-1
 114 682 l 1,6,-1
 192 682 l 1,7,-1
 192 500 l 1,8,-1
 273 500 l 1,9,-1
 273 428 l 1,10,-1
 192 428 l 1,11,-1
 192 354 l 1,12,-1
 272 354 l 1,13,-1
 272 291 l 1,14,-1
 192 291 l 1,15,-1
 192 68 l 1,16,-1
 287 68 l 1,17,-1
 287 0 l 1,18,-1
 203 0 l 2,19,20
 158 0 158 0 136 23.5 c 128,-1,21
 114 47 114 47 114 104 c 2,22,-1
 114 291 l 1,23,-1
 40 291 l 1,24,-1
 40 354 l 1,0,-1
EndSplineSet
EndChar

StartChar: Utilde
Encoding: 360 360 290
Width: 682
Flags: W
LayerCount: 2
Fore
SplineSet
212 0 m 2,0,1
 123 0 123 0 123 99 c 2,2,-1
 123 682 l 1,3,-1
 60 682 l 1,4,-1
 60 750 l 1,5,-1
 270 750 l 1,6,-1
 270 682 l 1,7,-1
 205 682 l 1,8,-1
 205 68 l 1,9,-1
 477 68 l 1,10,-1
 477 682 l 1,11,-1
 412 682 l 1,12,-1
 412 750 l 1,13,-1
 622 750 l 1,14,-1
 622 682 l 1,15,-1
 559 682 l 1,16,-1
 559 104 l 2,17,18
 559 0 559 0 469 0 c 2,19,-1
 212 0 l 2,0,1
506 888 m 1,20,21
 498 865 498 865 478 846 c 1,22,23
 438 811 438 811 406 811 c 0,24,25
 382 811 382 811 350.5 829.5 c 128,-1,26
 319 848 319 848 302.5 856.5 c 128,-1,27
 286 865 286 865 269.5 865 c 128,-1,28
 253 865 253 865 242 855 c 128,-1,29
 231 845 231 845 217 816 c 1,30,-1
 176 846 l 1,31,32
 183 868 183 868 203 886 c 1,33,34
 240 922 240 922 264 922 c 128,-1,35
 288 922 288 922 308.5 913.5 c 128,-1,36
 329 905 329 905 347.5 894.5 c 128,-1,37
 366 884 366 884 381 875.5 c 128,-1,38
 396 867 396 867 410.5 867 c 128,-1,39
 425 867 425 867 442.5 882 c 128,-1,40
 460 897 460 897 468 916 c 1,41,-1
 506 888 l 1,20,21
EndSplineSet
EndChar

StartChar: utilde
Encoding: 361 361 291
Width: 568
Flags: W
LayerCount: 2
Fore
SplineSet
182 -2 m 0,0,1
 104 -2 104 -2 104 75 c 2,2,-1
 104 433 l 1,3,-1
 40 433 l 1,4,-1
 40 501 l 1,5,-1
 185 501 l 1,6,-1
 185 68 l 1,7,-1
 384 193 l 1,8,-1
 384 433 l 1,9,-1
 335 433 l 1,10,-1
 335 501 l 1,11,-1
 465 501 l 1,12,-1
 465 68 l 1,13,-1
 528 68 l 1,14,-1
 528 0 l 1,15,-1
 384 0 l 1,16,-1
 384 112 l 1,17,-1
 218 8 l 2,18,19
 202 -2 202 -2 182 -2 c 0,0,1
449 638 m 1,20,21
 441 615 441 615 421 596 c 1,22,23
 381 561 381 561 349 561 c 0,24,25
 325 561 325 561 293.5 579.5 c 128,-1,26
 262 598 262 598 245.5 606.5 c 128,-1,27
 229 615 229 615 212.5 615 c 128,-1,28
 196 615 196 615 185 605 c 128,-1,29
 174 595 174 595 160 566 c 1,30,-1
 119 596 l 1,31,32
 126 618 126 618 146 636 c 1,33,34
 183 672 183 672 207 672 c 128,-1,35
 231 672 231 672 251.5 663.5 c 128,-1,36
 272 655 272 655 290.5 644.5 c 128,-1,37
 309 634 309 634 324 625.5 c 128,-1,38
 339 617 339 617 353.5 617 c 128,-1,39
 368 617 368 617 385.5 632 c 128,-1,40
 403 647 403 647 411 666 c 1,41,-1
 449 638 l 1,20,21
EndSplineSet
EndChar

StartChar: Umacron
Encoding: 362 362 292
Width: 682
Flags: W
LayerCount: 2
Fore
SplineSet
212 0 m 2,0,1
 123 0 123 0 123 99 c 2,2,-1
 123 682 l 1,3,-1
 60 682 l 1,4,-1
 60 750 l 1,5,-1
 270 750 l 1,6,-1
 270 682 l 1,7,-1
 205 682 l 1,8,-1
 205 68 l 1,9,-1
 477 68 l 1,10,-1
 477 682 l 1,11,-1
 412 682 l 1,12,-1
 412 750 l 1,13,-1
 622 750 l 1,14,-1
 622 682 l 1,15,-1
 559 682 l 1,16,-1
 559 104 l 2,17,18
 559 0 559 0 469 0 c 2,19,-1
 212 0 l 2,0,1
213 888 m 1,20,-1
 468 888 l 1,21,-1
 468 825 l 1,22,-1
 213 825 l 1,23,-1
 213 888 l 1,20,-1
EndSplineSet
EndChar

StartChar: umacron
Encoding: 363 363 293
Width: 568
Flags: W
LayerCount: 2
Fore
SplineSet
182 -2 m 0,0,1
 104 -2 104 -2 104 75 c 2,2,-1
 104 433 l 1,3,-1
 40 433 l 1,4,-1
 40 501 l 1,5,-1
 185 501 l 1,6,-1
 185 68 l 1,7,-1
 384 193 l 1,8,-1
 384 433 l 1,9,-1
 335 433 l 1,10,-1
 335 501 l 1,11,-1
 465 501 l 1,12,-1
 465 68 l 1,13,-1
 528 68 l 1,14,-1
 528 0 l 1,15,-1
 384 0 l 1,16,-1
 384 112 l 1,17,-1
 218 8 l 2,18,19
 202 -2 202 -2 182 -2 c 0,0,1
156 638 m 1,20,-1
 411 638 l 1,21,-1
 411 575 l 1,22,-1
 156 575 l 1,23,-1
 156 638 l 1,20,-1
EndSplineSet
EndChar

StartChar: Ubreve
Encoding: 364 364 294
Width: 682
Flags: W
LayerCount: 2
Fore
SplineSet
212 0 m 2,0,1
 123 0 123 0 123 99 c 2,2,-1
 123 682 l 1,3,-1
 60 682 l 1,4,-1
 60 750 l 1,5,-1
 270 750 l 1,6,-1
 270 682 l 1,7,-1
 205 682 l 1,8,-1
 205 68 l 1,9,-1
 477 68 l 1,10,-1
 477 682 l 1,11,-1
 412 682 l 1,12,-1
 412 750 l 1,13,-1
 622 750 l 1,14,-1
 622 682 l 1,15,-1
 559 682 l 1,16,-1
 559 104 l 2,17,18
 559 0 559 0 469 0 c 2,19,-1
 212 0 l 2,0,1
494 947 m 1,20,21
 494 882 494 882 449 838 c 0,22,23
 403 794 403 794 341 794 c 0,24,25
 277 794 277 794 232 839 c 128,-1,26
 187 884 187 884 187 947 c 1,27,-1
 240 947 l 1,28,29
 240 907 240 907 269.5 877.5 c 128,-1,30
 299 848 299 848 341 848 c 0,31,32
 382 848 382 848 411.5 877.5 c 128,-1,33
 441 907 441 907 441 947 c 1,34,-1
 494 947 l 1,20,21
EndSplineSet
EndChar

StartChar: ubreve
Encoding: 365 365 295
Width: 568
Flags: W
LayerCount: 2
Fore
SplineSet
182 -2 m 0,0,1
 104 -2 104 -2 104 75 c 2,2,-1
 104 433 l 1,3,-1
 40 433 l 1,4,-1
 40 501 l 1,5,-1
 185 501 l 1,6,-1
 185 68 l 1,7,-1
 384 193 l 1,8,-1
 384 433 l 1,9,-1
 335 433 l 1,10,-1
 335 501 l 1,11,-1
 465 501 l 1,12,-1
 465 68 l 1,13,-1
 528 68 l 1,14,-1
 528 0 l 1,15,-1
 384 0 l 1,16,-1
 384 112 l 1,17,-1
 218 8 l 2,18,19
 202 -2 202 -2 182 -2 c 0,0,1
437 697 m 1,20,21
 437 632 437 632 392 588 c 0,22,23
 346 544 346 544 284 544 c 0,24,25
 220 544 220 544 175 589 c 128,-1,26
 130 634 130 634 130 697 c 1,27,-1
 183 697 l 1,28,29
 183 657 183 657 212.5 627.5 c 128,-1,30
 242 598 242 598 284 598 c 0,31,32
 325 598 325 598 354.5 627.5 c 128,-1,33
 384 657 384 657 384 697 c 1,34,-1
 437 697 l 1,20,21
EndSplineSet
EndChar

StartChar: Uring
Encoding: 366 366 296
Width: 682
Flags: W
LayerCount: 2
Fore
SplineSet
212 0 m 2,0,1
 123 0 123 0 123 99 c 2,2,-1
 123 682 l 1,3,-1
 60 682 l 1,4,-1
 60 750 l 1,5,-1
 270 750 l 1,6,-1
 270 682 l 1,7,-1
 205 682 l 1,8,-1
 205 68 l 1,9,-1
 477 68 l 1,10,-1
 477 682 l 1,11,-1
 412 682 l 1,12,-1
 412 750 l 1,13,-1
 622 750 l 1,14,-1
 622 682 l 1,15,-1
 559 682 l 1,16,-1
 559 104 l 2,17,18
 559 0 559 0 469 0 c 2,19,-1
 212 0 l 2,0,1
278 936 m 128,-1,21
 304 962 304 962 342 962 c 0,22,23
 378 962 378 962 404 936 c 128,-1,24
 430 910 430 910 430 873 c 128,-1,25
 430 836 430 836 404 810 c 128,-1,26
 378 784 378 784 341 784 c 0,27,28
 303 784 303 784 278 810 c 0,29,30
 252 838 252 838 252 874 c 128,-1,20
 252 910 252 910 278 936 c 128,-1,21
301 874 m 256,31,32
 301 857 301 857 312.5 845 c 128,-1,33
 324 833 324 833 341 833 c 256,34,35
 358 833 358 833 370 845 c 128,-1,36
 382 857 382 857 382 873.5 c 128,-1,37
 382 890 382 890 370 902 c 128,-1,38
 358 914 358 914 341.5 914 c 128,-1,39
 325 914 325 914 313 902.5 c 128,-1,40
 301 891 301 891 301 874 c 256,31,32
EndSplineSet
EndChar

StartChar: uring
Encoding: 367 367 297
Width: 568
Flags: W
LayerCount: 2
Fore
SplineSet
182 -2 m 0,0,1
 104 -2 104 -2 104 75 c 2,2,-1
 104 433 l 1,3,-1
 40 433 l 1,4,-1
 40 501 l 1,5,-1
 185 501 l 1,6,-1
 185 68 l 1,7,-1
 384 193 l 1,8,-1
 384 433 l 1,9,-1
 335 433 l 1,10,-1
 335 501 l 1,11,-1
 465 501 l 1,12,-1
 465 68 l 1,13,-1
 528 68 l 1,14,-1
 528 0 l 1,15,-1
 384 0 l 1,16,-1
 384 112 l 1,17,-1
 218 8 l 2,18,19
 202 -2 202 -2 182 -2 c 0,0,1
221 686 m 128,-1,21
 247 712 247 712 285 712 c 0,22,23
 321 712 321 712 347 686 c 128,-1,24
 373 660 373 660 373 623 c 128,-1,25
 373 586 373 586 347 560 c 128,-1,26
 321 534 321 534 284 534 c 0,27,28
 246 534 246 534 221 560 c 0,29,30
 195 588 195 588 195 624 c 128,-1,20
 195 660 195 660 221 686 c 128,-1,21
244 624 m 256,31,32
 244 607 244 607 255.5 595 c 128,-1,33
 267 583 267 583 284 583 c 256,34,35
 301 583 301 583 313 595 c 128,-1,36
 325 607 325 607 325 623.5 c 128,-1,37
 325 640 325 640 313 652 c 128,-1,38
 301 664 301 664 284.5 664 c 128,-1,39
 268 664 268 664 256 652.5 c 128,-1,40
 244 641 244 641 244 624 c 256,31,32
EndSplineSet
EndChar

StartChar: Uhungarumlaut
Encoding: 368 368 298
Width: 682
Flags: W
LayerCount: 2
Fore
SplineSet
469 0 m 2,0,1
 559 0 559 0 559 104 c 2,2,-1
 559 682 l 1,3,-1
 622 682 l 1,4,-1
 622 750 l 1,5,-1
 412 750 l 1,6,-1
 412 682 l 1,7,-1
 477 682 l 1,8,-1
 477 68 l 1,9,-1
 205 68 l 1,10,-1
 205 682 l 1,11,-1
 270 682 l 1,12,-1
 270 750 l 1,13,-1
 60 750 l 1,14,-1
 60 682 l 1,15,-1
 123 682 l 1,16,-1
 123 99 l 2,17,18
 123 0 123 0 212 0 c 2,19,-1
 469 0 l 2,0,1
284 932 m 1,20,-1
 355 932 l 1,21,-1
 250 809 l 1,22,-1
 177 809 l 1,23,-1
 284 932 l 1,20,-1
433 932 m 1,24,-1
 504 932 l 1,25,-1
 399 809 l 1,26,-1
 326 809 l 1,27,-1
 433 932 l 1,24,-1
EndSplineSet
EndChar

StartChar: uhungarumlaut
Encoding: 369 369 299
Width: 568
Flags: W
LayerCount: 2
Fore
SplineSet
104 75 m 2,0,1
 104 -2 104 -2 182 -2 c 0,2,3
 202 -2 202 -2 218 8 c 2,4,-1
 384 112 l 1,5,-1
 384 0 l 1,6,-1
 528 0 l 1,7,-1
 528 68 l 1,8,-1
 465 68 l 1,9,-1
 465 501 l 1,10,-1
 335 501 l 1,11,-1
 335 433 l 1,12,-1
 384 433 l 1,13,-1
 384 193 l 1,14,-1
 185 68 l 1,15,-1
 185 501 l 1,16,-1
 40 501 l 1,17,-1
 40 433 l 1,18,-1
 104 433 l 1,19,-1
 104 75 l 2,0,1
227 682 m 1,20,-1
 298 682 l 1,21,-1
 193 559 l 1,22,-1
 120 559 l 1,23,-1
 227 682 l 1,20,-1
376 682 m 1,24,-1
 447 682 l 1,25,-1
 342 559 l 1,26,-1
 269 559 l 1,27,-1
 376 682 l 1,24,-1
EndSplineSet
EndChar

StartChar: Uogonek
Encoding: 370 370 300
Width: 682
Flags: W
LayerCount: 2
Fore
SplineSet
212 0 m 2,0,1
 123 0 123 0 123 99 c 2,2,-1
 123 682 l 1,3,-1
 60 682 l 1,4,-1
 60 750 l 1,5,-1
 270 750 l 1,6,-1
 270 682 l 1,7,-1
 205 682 l 1,8,-1
 205 68 l 1,9,-1
 477 68 l 1,10,-1
 477 682 l 1,11,-1
 412 682 l 1,12,-1
 412 750 l 1,13,-1
 622 750 l 1,14,-1
 622 682 l 1,15,-1
 559 682 l 1,16,-1
 559 104 l 2,17,18
 559 0 559 0 469 0 c 2,19,-1
 212 0 l 2,0,1
411 0 m 1,20,-1
 303 -89 l 1,21,-1
 303 -164 l 1,22,-1
 391 -164 l 1,23,-1
 391 -217 l 1,24,-1
 309 -217 l 2,25,26
 267 -217 267 -217 254 -197 c 128,-1,27
 241 -177 241 -177 241 -149 c 2,28,-1
 241 -118 l 2,29,30
 241 -89 241 -89 250 -75.5 c 128,-1,31
 259 -62 259 -62 269.5 -53.5 c 128,-1,32
 280 -45 280 -45 295 -34 c 2,33,-1
 339 0 l 1,34,-1
 411 0 l 1,20,-1
EndSplineSet
EndChar

